if (_typeface_js && _typeface_js.loadFace) _typeface_js.loadFace({"glyphs":{"0":{"ha":770,"x_min":44,"x_max":725,"o":"m 44 498 q 86 804 44 696 q 206 967 129 911 q 379 1023 283 1023 q 555 967 476 1023 q 679 799 633 911 q 725 498 725 687 q 680 199 725 311 q 555 32 635 88 q 379 -25 476 -25 q 207 30 283 -25 q 87 194 130 85 q 44 498 44 302 m 138 496 q 169 241 138 328 q 258 110 199 155 q 382 65 317 65 q 507 109 449 65 q 594 240 564 153 q 631 496 631 347 q 598 743 631 647 q 506 883 565 839 q 382 928 448 928 q 258 883 316 928 q 169 752 199 839 q 138 496 138 666 z "},"1":{"ha":770,"x_min":197,"x_max":453,"o":"m 257 998 l 453 998 l 453 0 l 354 0 l 354 900 l 197 900 l 257 998 z "},"2":{"ha":770,"x_min":41,"x_max":719,"o":"m 161 685 l 65 685 q 164 928 69 833 q 397 1023 258 1023 q 620 934 535 1023 q 705 724 705 845 q 665 565 705 640 q 507 364 624 491 l 258 96 l 719 96 l 719 0 l 41 0 l 422 412 q 573 596 538 536 q 608 722 608 656 q 546 867 608 806 q 392 928 483 928 q 233 864 296 928 q 161 685 170 800 z "},"3":{"ha":770,"x_min":49,"x_max":716,"o":"m 184 766 l 82 766 q 189 956 110 890 q 374 1023 267 1023 q 520 987 452 1023 q 624 891 587 951 q 661 765 661 831 q 533 561 661 636 q 651 475 605 532 q 716 298 716 396 q 671 136 716 213 q 549 17 627 59 q 376 -25 472 -25 q 161 49 248 -25 q 49 267 75 123 l 146 267 q 220 127 172 170 q 378 72 282 72 q 552 137 486 72 q 618 290 618 202 q 585 399 618 348 q 497 475 552 450 q 326 507 441 501 l 326 599 q 450 623 394 599 q 532 684 507 647 q 557 766 557 722 q 506 878 557 831 q 374 926 454 926 q 263 889 310 926 q 184 766 216 853 z "},"4":{"ha":770,"x_min":35,"x_max":732,"o":"m 591 1023 l 612 1023 l 612 328 l 732 328 l 732 232 l 612 232 l 612 0 l 512 0 l 512 232 l 35 232 l 591 1023 m 512 328 l 512 743 l 218 328 l 512 328 z "},"5":{"ha":770,"x_min":56,"x_max":709,"o":"m 683 998 l 683 903 l 328 903 l 278 631 q 395 650 343 650 q 620 558 532 650 q 709 325 709 467 q 663 144 709 227 q 540 19 618 62 q 361 -25 463 -25 q 156 49 239 -25 q 56 241 73 123 l 159 241 q 198 148 170 184 q 271 90 225 112 q 367 68 317 68 q 536 142 465 68 q 606 329 606 217 q 543 493 606 430 q 372 556 479 556 q 159 503 284 556 l 251 998 l 683 998 z "},"6":{"ha":770,"x_min":94,"x_max":708,"o":"m 509 1023 l 591 969 l 322 561 q 424 579 376 579 q 625 493 543 579 q 708 282 708 408 q 668 126 708 196 q 554 16 628 57 q 396 -25 481 -25 q 244 15 314 -25 q 134 126 174 54 q 94 280 94 198 q 118 409 94 341 q 207 571 143 476 l 509 1023 m 400 492 q 252 430 313 492 q 191 281 191 369 q 252 133 191 195 q 400 72 313 72 q 548 133 487 72 q 610 281 610 195 q 548 430 610 369 q 400 492 487 492 z "},"7":{"ha":770,"x_min":100,"x_max":732,"o":"m 100 998 l 732 998 l 199 -25 l 117 17 l 578 903 l 100 903 l 100 998 z "},"8":{"ha":770,"x_min":47,"x_max":722,"o":"m 534 547 q 679 433 635 497 q 722 286 722 368 q 647 83 722 171 q 383 -25 555 -25 q 132 70 218 -25 q 47 278 47 164 q 92 428 47 361 q 241 547 136 495 q 131 642 168 585 q 94 762 94 698 q 133 889 94 827 q 241 987 172 951 q 390 1023 310 1023 q 534 987 468 1023 q 638 889 601 951 q 676 760 676 827 q 641 639 676 692 q 534 547 605 586 m 385 926 q 249 877 303 926 q 195 762 195 829 q 253 641 195 695 q 389 587 311 587 q 482 612 438 587 q 551 679 526 636 q 576 764 576 721 q 527 875 576 824 q 385 926 478 926 m 390 497 q 217 430 287 497 q 147 275 147 363 q 177 171 147 220 q 260 96 207 122 q 385 69 314 69 q 558 134 494 69 q 623 284 623 198 q 554 432 623 368 q 390 497 486 497 z "},"9":{"ha":770,"x_min":68,"x_max":682,"o":"m 267 -25 l 184 28 l 454 436 q 352 418 399 418 q 151 504 233 418 q 68 715 68 590 q 108 871 68 802 q 221 981 148 940 q 379 1023 295 1023 q 532 983 462 1023 q 642 871 602 943 q 682 718 682 799 q 657 588 682 656 q 569 426 633 521 l 267 -25 m 375 506 q 524 567 463 506 q 585 715 585 629 q 524 864 585 802 q 375 925 463 925 q 227 864 288 925 q 165 715 165 802 q 227 567 165 629 q 375 506 288 506 z "}," ":{"ha":385,"x_min":0,"x_max":0,"o":""},"!":{"ha":410,"x_min":121,"x_max":288,"o":"m 253 1023 l 253 250 l 155 250 l 155 1023 l 253 1023 m 205 149 q 264 125 239 149 q 288 65 288 100 q 264 6 288 31 q 205 -19 239 -19 q 146 6 170 -19 q 121 65 121 31 q 146 125 121 100 q 205 149 170 149 z "},"\"":{"ha":429,"x_min":33,"x_max":397,"o":"m 381 709 l 311 709 l 296 1023 l 397 1023 l 381 709 m 118 709 l 47 709 l 33 1023 l 133 1023 l 118 709 z "},"#":{"ha":1000,"x_min":125,"x_max":875,"o":"m 836 408 l 836 335 l 668 335 l 619 0 l 543 0 l 592 335 l 366 335 l 315 0 l 240 0 l 292 335 l 125 335 l 125 408 l 303 408 l 338 635 l 166 635 l 166 709 l 349 709 l 396 1026 l 469 1026 l 422 709 l 648 709 l 694 1026 l 770 1026 l 723 709 l 875 709 l 875 635 l 712 635 l 680 408 l 836 408 m 637 635 l 411 635 l 378 408 l 603 408 l 637 635 z "},"$":{"ha":770,"x_min":49,"x_max":726,"o":"m 360 1067 l 449 1067 l 449 994 q 563 950 515 981 q 653 858 610 919 l 580 799 q 449 897 528 880 l 449 558 q 670 406 627 465 q 726 241 726 332 q 685 105 726 167 q 574 8 644 43 q 449 -24 528 -14 l 449 -237 l 360 -237 l 360 -24 q 227 2 277 -18 q 129 61 176 22 q 49 153 81 101 l 121 208 q 360 69 216 83 l 360 489 q 225 560 254 541 q 140 648 168 600 q 112 759 112 696 q 142 872 112 820 q 225 957 173 924 q 360 998 278 989 l 360 1067 m 360 903 q 278 881 309 899 q 229 830 247 862 q 211 761 211 799 q 239 678 211 712 q 360 595 277 632 l 360 903 m 449 72 q 580 132 531 83 q 629 239 629 180 q 592 347 629 298 q 449 453 554 397 l 449 72 z "},"%":{"ha":1076,"x_min":31,"x_max":1045,"o":"m 937 1042 l 210 -69 l 120 -69 l 781 943 q 495 914 664 914 l 458 915 q 500 791 500 857 q 436 625 500 699 q 264 552 371 552 q 98 620 165 552 q 31 786 31 688 q 62 904 31 851 q 149 990 92 958 q 264 1023 205 1023 q 347 1010 289 1023 q 538 991 435 991 q 681 1001 614 991 q 857 1042 749 1011 l 937 1042 m 266 937 q 161 893 204 937 q 117 787 117 849 q 161 682 117 726 q 266 639 204 639 q 371 682 328 639 q 415 787 415 726 q 371 893 415 849 q 266 937 328 937 m 810 440 q 976 371 907 440 q 1045 205 1045 302 q 976 40 1045 109 q 810 -29 907 -29 q 645 40 713 -29 q 576 205 576 109 q 645 371 576 302 q 810 440 713 440 m 810 354 q 705 311 749 354 q 662 205 662 267 q 705 100 662 144 q 810 57 749 57 q 916 100 872 57 q 960 205 960 144 q 916 311 960 267 q 810 354 872 354 z "},"&":{"ha":1051,"x_min":121,"x_max":1015,"o":"m 876 369 l 944 297 q 827 197 879 239 q 926 95 861 161 q 1015 0 978 43 l 876 0 l 748 134 q 541 5 619 36 q 376 -25 463 -25 q 191 41 261 -25 q 121 206 121 107 q 169 356 121 281 q 361 545 216 431 q 255 691 279 644 q 232 781 232 739 q 290 905 232 856 q 455 962 356 962 q 569 937 517 962 q 648 869 621 911 q 675 779 675 827 q 640 672 675 729 q 500 528 604 616 l 652 369 l 755 265 q 876 369 830 328 m 439 602 q 548 713 511 659 q 574 781 574 751 q 540 841 574 816 q 451 866 507 866 q 365 840 398 866 q 332 779 332 814 q 345 728 332 752 q 439 602 378 671 m 427 470 q 260 318 300 374 q 221 213 221 261 q 269 112 221 156 q 387 68 317 68 q 491 90 440 68 q 680 203 571 125 l 517 370 q 427 470 477 412 z "},"'":{"ha":275,"x_min":87,"x_max":188,"o":"m 172 709 l 102 709 l 87 1023 l 188 1023 l 172 709 z "},"(":{"ha":513,"x_min":181,"x_max":429,"o":"m 319 1042 l 429 1042 q 322 724 362 905 q 282 349 282 542 q 312 3 282 170 q 395 -289 342 -163 l 291 -289 q 211 -5 241 -168 q 181 336 181 159 q 216 707 181 526 q 319 1042 252 888 z "},")":{"ha":513,"x_min":84,"x_max":332,"o":"m 194 -289 l 84 -289 q 191 29 151 -153 q 231 404 231 211 q 200 749 231 583 q 117 1042 170 916 l 222 1042 q 302 757 273 921 q 332 416 332 593 q 296 46 332 227 q 194 -289 261 -135 z "},"*":{"ha":590,"x_min":60,"x_max":530,"o":"m 250 1023 l 338 1023 l 319 821 l 486 941 l 530 865 l 342 780 l 530 696 l 486 620 l 319 738 l 338 536 l 250 536 l 271 738 l 104 620 l 60 696 l 250 780 l 60 865 l 104 941 l 271 821 l 250 1023 z "},"+":{"ha":842,"x_min":78,"x_max":764,"o":"m 374 545 l 374 840 l 467 840 l 467 545 l 764 545 l 764 452 l 467 452 l 467 158 l 374 158 l 374 452 l 78 452 l 78 545 l 374 545 z "},",":{"ha":385,"x_min":87,"x_max":292,"o":"m 200 183 l 292 140 l 154 -117 l 87 -88 l 200 183 z "},"-":{"ha":461,"x_min":44,"x_max":417,"o":"m 44 416 l 417 416 l 417 334 l 44 334 l 44 416 z "},".":{"ha":385,"x_min":127,"x_max":294,"o":"m 210 149 q 269 125 245 149 q 294 65 294 100 q 269 6 294 31 q 210 -19 245 -19 q 151 6 176 -19 q 127 65 127 31 q 151 125 127 100 q 210 149 176 149 z "},"/":{"ha":607,"x_min":49,"x_max":567,"o":"m 567 1023 l 153 -136 l 49 -136 l 463 1023 l 567 1023 z "},":":{"ha":385,"x_min":127,"x_max":294,"o":"m 210 757 q 269 732 245 757 q 294 673 294 708 q 269 613 294 637 q 210 589 245 589 q 151 613 176 589 q 127 673 127 637 q 151 732 127 707 q 210 757 176 757 m 210 149 q 269 125 245 149 q 294 65 294 100 q 269 6 294 31 q 210 -19 245 -19 q 151 6 176 -19 q 127 65 127 31 q 151 125 127 100 q 210 149 176 149 z "},";":{"ha":385,"x_min":87,"x_max":294,"o":"m 210 757 q 269 732 245 757 q 294 673 294 708 q 269 613 294 637 q 210 589 245 589 q 151 613 176 589 q 127 673 127 637 q 151 732 127 707 q 210 757 176 757 m 200 183 l 292 140 l 154 -117 l 87 -88 l 200 183 z "},"<":{"ha":842,"x_min":71,"x_max":771,"o":"m 771 235 l 771 136 l 71 454 l 71 543 l 771 862 l 771 762 l 202 498 l 771 235 z "},"=":{"ha":842,"x_min":78,"x_max":764,"o":"m 764 694 l 764 602 l 78 602 l 78 694 l 764 694 m 764 396 l 764 303 l 78 303 l 78 396 l 764 396 z "},">":{"ha":842,"x_min":71,"x_max":771,"o":"m 71 235 l 640 498 l 71 762 l 71 862 l 771 543 l 771 454 l 71 136 l 71 235 z "},"?":{"ha":821,"x_min":115,"x_max":697,"o":"m 214 726 l 115 726 q 197 943 117 863 q 412 1023 277 1023 q 621 956 545 1023 q 697 789 697 888 q 676 701 697 741 q 614 628 656 661 q 467 555 572 596 q 307 476 334 502 q 278 412 278 450 q 316 342 278 373 q 416 311 355 311 q 519 345 483 311 q 563 454 555 379 l 662 454 q 592 278 657 341 q 416 216 526 216 q 241 273 306 216 q 176 413 176 330 q 194 490 176 454 q 244 551 212 526 q 368 612 277 575 q 556 702 515 672 q 597 787 597 732 q 547 887 597 846 q 414 928 497 928 q 256 861 312 928 q 214 726 216 814 m 412 149 q 471 125 446 149 q 495 65 495 100 q 471 6 495 31 q 412 -19 446 -19 q 353 6 377 -19 q 328 65 328 31 q 353 125 328 100 q 412 149 377 149 z "},"@":{"ha":1204,"x_min":93,"x_max":1111,"o":"m 979 204 l 1051 204 q 883 45 960 91 q 633 -18 773 -18 q 359 52 484 -18 q 163 243 233 122 q 93 509 93 365 q 164 780 93 654 q 357 975 235 905 q 624 1044 479 1044 q 970 913 829 1044 q 1111 608 1111 782 q 1052 389 1111 481 q 893 246 994 297 q 762 207 817 207 q 700 228 723 207 q 682 282 682 243 q 618 233 659 253 q 534 214 578 214 q 373 281 437 214 q 309 460 309 349 q 387 679 309 580 q 600 778 464 778 q 700 755 659 778 q 776 677 740 733 l 793 771 l 867 771 l 788 328 q 785 300 785 306 q 794 275 785 284 q 819 267 804 267 q 923 313 859 267 q 1022 432 987 359 q 1058 594 1058 505 q 924 880 1058 766 q 621 985 800 985 q 379 924 488 985 q 209 753 271 863 q 146 515 146 643 q 209 276 146 385 q 384 104 272 166 q 629 41 495 41 q 808 77 728 41 q 979 204 888 112 m 568 290 q 652 318 613 290 q 715 403 692 347 q 745 551 745 477 q 706 663 745 620 q 607 705 668 705 q 466 638 526 705 q 407 472 407 572 q 452 339 407 389 q 568 290 497 290 z "},"A":{"ha":1027,"x_min":33,"x_max":994,"o":"m 529 998 l 994 0 l 887 0 l 730 328 l 300 328 l 144 0 l 33 0 l 505 998 l 529 998 m 517 786 l 345 425 l 686 425 l 517 786 z "},"B":{"ha":798,"x_min":124,"x_max":722,"o":"m 124 998 l 321 998 q 503 969 439 998 q 604 883 567 941 q 641 753 641 825 q 608 632 641 687 q 513 544 576 578 q 633 482 591 517 q 698 396 675 446 q 722 286 722 345 q 634 83 722 166 q 398 0 546 0 l 124 0 l 124 998 m 222 900 l 222 581 l 279 581 q 431 600 382 581 q 509 661 480 619 q 537 753 537 703 q 489 861 537 822 q 337 900 441 900 l 222 900 m 222 480 l 222 98 l 345 98 q 505 119 454 98 q 587 186 556 140 q 618 284 618 231 q 574 400 618 351 q 455 468 531 450 q 278 480 404 480 l 222 480 z "},"C":{"ha":1129,"x_min":75,"x_max":1050,"o":"m 1050 812 l 972 752 q 815 881 907 837 q 615 924 724 924 q 394 867 496 924 q 236 713 292 810 q 180 496 180 616 q 306 191 180 313 q 621 69 431 69 q 972 233 831 69 l 1050 174 q 864 27 976 79 q 615 -25 753 -25 q 202 149 353 -25 q 75 505 75 296 q 229 873 75 724 q 614 1023 382 1023 q 866 967 753 1023 q 1050 812 979 912 z "},"D":{"ha":1034,"x_min":121,"x_max":962,"o":"m 121 0 l 121 998 l 328 998 q 653 962 552 998 q 880 785 798 911 q 962 486 962 660 q 897 222 962 336 q 729 54 832 109 q 439 0 625 0 l 121 0 m 217 94 l 332 94 q 619 120 539 94 q 796 252 732 157 q 861 485 861 347 q 791 732 861 629 q 596 872 721 834 q 288 901 503 901 l 217 901 l 217 94 z "},"E":{"ha":745,"x_min":122,"x_max":694,"o":"m 122 998 l 694 998 l 694 899 l 222 899 l 222 587 l 690 587 l 690 490 l 222 490 l 222 98 l 690 98 l 690 0 l 122 0 l 122 998 z "},"F":{"ha":673,"x_min":121,"x_max":621,"o":"m 121 998 l 621 998 l 621 899 l 220 899 l 220 587 l 621 587 l 621 489 l 220 489 l 220 0 l 121 0 l 121 998 z "},"G":{"ha":1211,"x_min":79,"x_max":1143,"o":"m 1084 830 l 1006 757 q 824 881 923 839 q 630 924 724 924 q 407 866 513 924 q 242 710 300 808 q 184 501 184 611 q 244 287 184 389 q 411 128 304 186 q 644 70 517 70 q 905 157 798 70 q 1031 382 1011 243 l 713 382 l 713 478 l 1143 478 q 1005 111 1141 247 q 642 -25 869 -25 q 203 163 365 -25 q 79 499 79 309 q 151 763 79 641 q 346 954 222 885 q 627 1023 470 1023 q 865 977 753 1023 q 1084 830 977 931 z "},"H":{"ha":949,"x_min":120,"x_max":828,"o":"m 120 998 l 220 998 l 220 579 l 728 579 l 728 998 l 828 998 l 828 0 l 728 0 l 728 481 l 220 481 l 220 0 l 120 0 l 120 998 z "},"I":{"ha":314,"x_min":107,"x_max":207,"o":"m 107 998 l 207 998 l 207 0 l 107 0 l 107 998 z "},"J":{"ha":669,"x_min":58,"x_max":548,"o":"m 448 998 l 548 998 l 548 324 q 524 108 548 169 q 444 11 500 47 q 307 -25 387 -25 q 188 -2 247 -25 q 58 81 130 22 l 111 160 q 241 83 189 105 q 307 68 275 68 q 385 94 350 68 q 434 162 420 119 q 448 328 448 205 l 448 998 z "},"K":{"ha":821,"x_min":121,"x_max":793,"o":"m 121 998 l 223 998 l 223 623 l 621 998 l 756 998 l 277 550 l 793 0 l 661 0 l 223 465 l 223 0 l 121 0 l 121 998 z "},"L":{"ha":642,"x_min":121,"x_max":605,"o":"m 121 998 l 222 998 l 222 96 l 605 96 l 605 0 l 121 0 l 121 998 z "},"M":{"ha":1276,"x_min":76,"x_max":1200,"o":"m 76 0 l 218 998 l 234 998 l 640 179 l 1041 998 l 1057 998 l 1200 0 l 1102 0 l 1004 713 l 652 0 l 627 0 l 269 719 l 172 0 l 76 0 z "},"N":{"ha":1027,"x_min":122,"x_max":905,"o":"m 122 0 l 122 998 l 144 998 l 807 234 l 807 998 l 905 998 l 905 0 l 883 0 l 225 754 l 225 0 l 122 0 z "},"O":{"ha":1207,"x_min":78,"x_max":1128,"o":"m 597 1023 q 976 871 823 1023 q 1128 499 1128 720 q 976 127 1128 280 q 605 -25 824 -25 q 231 127 383 -25 q 78 494 78 279 q 148 761 78 638 q 337 953 217 884 q 597 1023 457 1023 m 602 925 q 392 867 491 925 q 237 712 293 810 q 182 494 182 614 q 305 194 182 317 q 602 72 428 72 q 816 128 718 72 q 970 282 915 184 q 1025 499 1025 380 q 970 714 1025 618 q 814 867 915 810 q 602 925 714 925 z "},"P":{"ha":822,"x_min":121,"x_max":744,"o":"m 121 998 l 319 998 q 550 983 490 998 q 690 896 635 962 q 744 732 744 831 q 691 567 744 632 q 545 480 638 503 q 292 464 477 464 l 220 464 l 220 0 l 121 0 l 121 998 m 220 901 l 220 562 l 389 559 q 539 578 492 559 q 614 638 587 597 q 641 732 641 680 q 614 824 641 782 q 542 883 587 865 q 397 901 498 901 l 220 901 z "},"Q":{"ha":1210,"x_min":79,"x_max":1130,"o":"m 958 109 l 1106 -79 l 983 -79 l 882 50 q 606 -25 760 -25 q 232 127 385 -25 q 79 494 79 279 q 149 761 79 638 q 339 954 219 884 q 604 1023 460 1023 q 978 871 825 1023 q 1130 498 1130 720 q 1088 288 1130 383 q 958 109 1046 192 m 897 186 q 1027 499 1027 313 q 971 714 1027 618 q 816 867 916 810 q 604 925 715 925 q 393 868 492 925 q 239 712 294 810 q 183 494 183 614 q 306 194 183 317 q 602 72 429 72 q 819 130 721 72 l 597 412 l 718 412 l 897 186 z "},"R":{"ha":843,"x_min":127,"x_max":765,"o":"m 127 998 l 326 998 q 551 984 492 998 q 695 897 640 964 q 751 732 751 830 q 712 589 751 651 q 603 496 674 528 q 406 464 532 465 l 765 0 l 642 0 l 283 464 l 227 464 l 227 0 l 127 0 l 127 998 m 227 900 l 227 561 l 398 559 q 546 578 498 559 q 620 639 593 597 q 647 732 647 681 q 620 824 647 783 q 549 882 593 865 q 402 900 505 900 l 227 900 z "},"S":{"ha":692,"x_min":18,"x_max":602,"o":"m 18 186 l 103 237 q 310 72 193 72 q 404 95 360 72 q 471 158 448 119 q 494 241 494 197 q 460 340 494 292 q 290 500 414 406 q 134 636 165 594 q 81 789 81 707 q 113 907 81 854 q 200 992 144 961 q 323 1023 257 1023 q 455 988 394 1023 q 585 859 517 953 l 504 798 q 408 896 448 872 q 321 920 368 920 q 223 883 261 920 q 184 793 184 846 q 198 730 184 760 q 248 663 212 699 q 376 564 267 644 q 554 393 506 468 q 602 243 602 319 q 520 55 602 135 q 319 -25 437 -25 q 155 23 229 -25 q 18 186 81 72 z "},"T":{"ha":591,"x_min":22,"x_max":570,"o":"m 22 901 l 22 998 l 570 998 l 570 901 l 347 901 l 347 0 l 245 0 l 245 901 l 22 901 z "},"U":{"ha":909,"x_min":125,"x_max":785,"o":"m 125 998 l 224 998 l 224 395 q 229 262 224 288 q 263 163 236 203 q 347 97 290 123 q 460 70 403 70 q 555 91 509 70 q 631 149 600 112 q 675 239 661 186 q 686 395 686 277 l 686 998 l 785 998 l 785 395 q 759 179 785 262 q 655 36 733 97 q 465 -25 576 -25 q 258 33 345 -25 q 143 185 172 90 q 125 395 125 243 l 125 998 z "},"V":{"ha":975,"x_min":45,"x_max":929,"o":"m 45 998 l 154 998 l 484 227 l 821 998 l 929 998 l 495 0 l 473 0 l 45 998 z "},"W":{"ha":1333,"x_min":65,"x_max":1268,"o":"m 65 998 l 168 998 l 370 279 l 656 998 l 677 998 l 960 279 l 1166 998 l 1268 998 l 982 0 l 963 0 l 667 755 l 366 0 l 347 0 l 65 998 z "},"X":{"ha":846,"x_min":47,"x_max":800,"o":"m 68 998 l 185 998 l 424 608 l 665 998 l 780 998 l 483 514 l 800 0 l 683 0 l 424 418 l 163 0 l 47 0 l 365 514 l 68 998 z "},"Y":{"ha":822,"x_min":43,"x_max":779,"o":"m 43 998 l 158 998 l 413 587 l 664 998 l 779 998 l 463 477 l 463 0 l 365 0 l 365 477 l 43 998 z "},"Z":{"ha":667,"x_min":38,"x_max":609,"o":"m 83 901 l 83 998 l 609 998 l 192 97 l 588 97 l 588 0 l 38 0 l 458 901 l 83 901 z "},"[":{"ha":488,"x_min":197,"x_max":425,"o":"m 197 1023 l 425 1023 l 425 926 l 292 926 l 292 -177 l 425 -177 l 425 -270 l 197 -270 l 197 1023 z "},"\\":{"ha":840,"x_min":45,"x_max":795,"o":"m 149 1023 l 795 -136 l 691 -136 l 45 1023 l 149 1023 z "},"]":{"ha":488,"x_min":63,"x_max":291,"o":"m 291 -270 l 63 -270 l 63 -174 l 195 -174 l 195 930 l 63 930 l 63 1023 l 291 1023 l 291 -270 z "},"^":{"ha":933,"x_min":81,"x_max":852,"o":"m 427 998 l 507 998 l 852 248 l 762 248 l 465 893 l 169 248 l 81 248 l 427 998 z "},"_":{"ha":694,"x_min":-8,"x_max":703,"o":"m -8 -104 l 703 -104 l 703 -174 l -8 -174 l -8 -104 z "},"`":{"ha":525,"x_min":75,"x_max":369,"o":"m 221 1084 l 369 875 l 275 875 l 75 1084 l 221 1084 z "},"a":{"ha":949,"x_min":73,"x_max":841,"o":"m 841 738 l 841 0 l 747 0 l 747 127 q 613 18 688 54 q 451 -19 539 -19 q 183 95 294 -19 q 73 371 73 208 q 184 644 73 530 q 454 757 296 757 q 618 718 545 757 q 747 602 692 680 l 747 738 l 841 738 m 461 665 q 315 626 382 665 q 208 517 248 587 q 168 368 168 446 q 208 218 168 290 q 316 107 248 147 q 460 68 383 68 q 608 107 538 68 q 716 214 678 146 q 753 365 753 281 q 669 579 753 493 q 461 665 585 665 z "},"b":{"ha":947,"x_min":112,"x_max":880,"o":"m 112 0 l 112 1023 l 206 1023 l 206 611 q 340 721 266 684 q 502 757 414 757 q 769 643 659 757 q 880 368 880 530 q 768 94 880 208 q 499 -19 656 -19 q 336 20 409 -19 q 206 136 262 58 l 206 0 l 112 0 m 492 73 q 638 112 571 73 q 745 221 705 151 q 785 370 785 292 q 745 520 785 449 q 637 631 705 591 q 493 671 570 671 q 345 631 415 671 q 237 524 275 591 q 199 373 199 457 q 284 159 199 245 q 492 73 368 73 z "},"c":{"ha":899,"x_min":71,"x_max":822,"o":"m 822 585 l 747 538 q 480 667 649 667 q 256 581 345 667 q 167 370 167 494 q 208 218 167 289 q 320 107 249 146 q 481 68 392 68 q 747 197 644 68 l 822 148 q 680 25 769 68 q 477 -19 591 -19 q 186 92 302 -19 q 71 363 71 203 q 125 562 71 470 q 273 705 179 654 q 484 757 368 757 q 626 734 557 757 q 741 676 694 712 q 822 585 789 640 z "},"d":{"ha":951,"x_min":74,"x_max":842,"o":"m 842 1023 l 842 0 l 749 0 l 749 127 q 615 18 689 54 q 452 -19 541 -19 q 185 95 296 -19 q 74 371 74 208 q 186 644 74 530 q 455 757 298 757 q 620 718 546 757 q 749 602 693 680 l 749 1023 l 842 1023 m 463 665 q 316 626 383 665 q 209 517 249 587 q 170 368 170 446 q 210 218 170 290 q 317 107 250 147 q 462 68 385 68 q 610 107 540 68 q 717 214 680 146 q 755 365 755 281 q 670 579 755 493 q 463 665 586 665 z "},"e":{"ha":903,"x_min":71,"x_max":831,"o":"m 727 245 l 807 203 q 716 78 768 125 q 600 6 665 31 q 454 -19 536 -19 q 172 99 274 -19 q 71 367 71 218 q 157 617 71 507 q 449 757 266 757 q 750 614 637 757 q 831 361 830 513 l 168 361 q 250 150 171 233 q 446 68 330 68 q 556 87 503 68 q 646 140 609 107 q 727 245 684 172 m 727 444 q 672 565 708 519 q 576 638 635 610 q 450 666 516 666 q 264 596 342 666 q 178 444 207 545 l 727 444 z "},"f":{"ha":436,"x_min":54,"x_max":410,"o":"m 410 1023 l 410 930 q 320 952 357 952 q 274 941 292 952 q 251 915 256 930 q 246 838 246 901 l 246 738 l 400 738 l 400 656 l 245 656 l 245 0 l 151 0 l 151 656 l 54 656 l 54 738 l 151 738 l 151 853 q 165 966 151 932 q 215 1021 180 1000 q 299 1042 250 1042 q 410 1023 345 1042 z "},"g":{"ha":935,"x_min":68,"x_max":837,"o":"m 741 738 l 837 738 l 837 150 q 810 -77 837 -5 q 680 -234 772 -179 q 458 -289 588 -289 q 288 -262 363 -289 q 165 -190 212 -235 q 77 -58 117 -145 l 180 -58 q 289 -167 222 -132 q 454 -202 355 -202 q 617 -166 551 -202 q 713 -75 684 -130 q 741 102 741 -20 l 741 140 q 610 36 688 73 q 446 0 533 0 q 255 51 345 0 q 117 186 165 101 q 68 374 68 272 q 119 565 68 477 q 259 705 170 654 q 449 757 349 757 q 603 723 532 757 q 741 610 675 688 l 741 738 m 461 665 q 311 626 380 665 q 203 518 242 587 q 163 370 163 450 q 245 169 163 248 q 456 90 326 90 q 666 168 587 90 q 746 375 746 247 q 709 524 746 458 q 606 627 673 589 q 461 665 538 665 z "},"h":{"ha":847,"x_min":106,"x_max":749,"o":"m 106 1023 l 201 1023 l 201 606 q 328 719 258 682 q 477 757 397 757 q 624 715 560 757 q 719 602 688 673 q 749 380 749 531 l 749 0 l 654 0 l 654 352 q 644 522 654 479 q 580 632 627 595 q 458 669 534 669 q 304 612 372 669 q 214 471 236 555 q 201 271 201 417 l 201 0 l 106 0 l 106 1023 z "},"i":{"ha":278,"x_min":61,"x_max":218,"o":"m 139 1042 q 195 1019 172 1042 q 218 963 218 996 q 195 908 218 931 q 139 885 172 885 q 84 908 107 885 q 61 963 61 931 q 84 1019 61 996 q 139 1042 107 1042 m 92 738 l 187 738 l 187 0 l 92 0 l 92 738 z "},"j":{"ha":282,"x_min":-43,"x_max":219,"o":"m 141 1042 q 196 1019 174 1042 q 219 963 219 996 q 196 908 219 931 q 141 885 174 885 q 86 908 109 885 q 63 963 63 931 q 86 1019 63 996 q 141 1042 109 1042 m 94 738 l 191 738 l 191 -111 q 157 -247 191 -204 q 65 -289 123 -289 q -43 -266 17 -289 l -43 -180 q 25 -200 -5 -200 q 83 -168 64 -200 q 94 -83 94 -148 l 94 738 z "},"k":{"ha":697,"x_min":105,"x_max":705,"o":"m 105 1023 l 201 1023 l 201 441 l 542 738 l 682 738 l 277 386 l 705 0 l 571 0 l 201 332 l 201 0 l 105 0 l 105 1023 z "},"l":{"ha":278,"x_min":92,"x_max":186,"o":"m 92 1023 l 186 1023 l 186 0 l 92 0 l 92 1023 z "},"m":{"ha":1303,"x_min":105,"x_max":1208,"o":"m 105 738 l 199 738 l 199 610 q 301 713 249 681 q 452 757 373 757 q 554 736 506 757 q 633 680 602 715 q 686 580 663 645 q 804 712 733 667 q 958 757 876 757 q 1093 718 1034 757 q 1180 610 1152 680 q 1208 403 1208 541 l 1208 0 l 1112 0 l 1112 403 q 1095 566 1112 522 q 1037 637 1078 610 q 939 665 996 665 q 812 624 869 665 q 728 515 755 583 q 702 289 702 448 l 702 0 l 608 0 l 608 378 q 591 559 608 511 q 533 636 574 607 q 435 665 492 665 q 312 625 369 665 q 227 518 254 585 q 199 313 199 451 l 199 0 l 105 0 l 105 738 z "},"n":{"ha":847,"x_min":106,"x_max":749,"o":"m 106 738 l 201 738 l 201 606 q 327 719 258 682 q 477 757 396 757 q 624 715 560 757 q 719 602 688 673 q 749 380 749 530 l 749 0 l 655 0 l 655 352 q 644 522 655 479 q 581 632 627 595 q 458 669 534 669 q 304 612 372 669 q 214 471 236 555 q 201 271 201 416 l 201 0 l 106 0 l 106 738 z "},"o":{"ha":909,"x_min":71,"x_max":839,"o":"m 455 757 q 737 633 625 757 q 839 367 839 521 q 731 97 839 212 q 455 -19 624 -19 q 178 97 286 -19 q 71 367 71 212 q 172 633 71 520 q 455 757 284 757 m 455 664 q 252 576 337 664 q 168 365 168 489 q 206 216 168 285 q 311 109 245 146 q 455 71 376 71 q 600 109 534 71 q 704 216 665 146 q 743 365 743 285 q 657 576 743 489 q 455 664 572 664 z "},"p":{"ha":947,"x_min":107,"x_max":876,"o":"m 107 738 l 201 738 l 201 602 q 331 718 258 680 q 494 757 404 757 q 764 644 652 757 q 876 371 876 530 q 765 95 876 208 q 497 -19 654 -19 q 335 18 409 -19 q 201 127 261 54 l 201 -270 l 107 -270 l 107 738 m 487 665 q 279 579 363 665 q 195 365 195 493 q 232 214 195 281 q 340 107 270 146 q 488 68 410 68 q 632 107 565 68 q 740 218 700 147 q 780 368 780 290 q 740 517 780 446 q 633 626 701 587 q 487 665 566 665 z "},"q":{"ha":947,"x_min":72,"x_max":840,"o":"m 840 738 l 840 -270 l 747 -270 l 747 127 q 613 18 687 54 q 450 -19 538 -19 q 183 95 294 -19 q 72 371 72 208 q 184 644 72 530 q 453 757 296 757 q 617 718 544 757 q 747 602 691 680 l 747 738 l 840 738 m 460 665 q 314 626 381 665 q 207 517 247 587 q 168 368 168 446 q 208 218 168 290 q 315 107 248 147 q 460 68 382 68 q 608 107 538 68 q 715 214 677 146 q 753 365 753 281 q 668 579 753 493 q 460 665 584 665 z "},"r":{"ha":418,"x_min":70,"x_max":443,"o":"m 70 738 l 167 738 l 167 630 q 258 725 210 694 q 359 757 307 757 q 443 732 398 757 l 393 652 q 343 665 363 665 q 252 626 296 665 q 184 505 208 587 q 167 250 167 441 l 167 0 l 70 0 l 70 738 z "},"s":{"ha":539,"x_min":37,"x_max":477,"o":"m 477 657 l 416 594 q 267 668 340 668 q 188 637 221 668 q 155 566 155 607 q 182 498 155 530 q 296 420 210 465 q 440 314 402 365 q 477 198 477 262 q 414 44 477 107 q 254 -19 350 -19 q 133 9 191 -19 q 37 85 75 37 l 96 153 q 250 71 169 71 q 347 108 307 71 q 387 194 387 144 q 361 267 387 235 q 241 345 334 298 q 106 447 142 397 q 70 562 70 497 q 127 701 70 646 q 272 757 184 757 q 477 657 374 757 z "},"t":{"ha":471,"x_min":59,"x_max":435,"o":"m 189 1012 l 284 1012 l 284 738 l 435 738 l 435 656 l 284 656 l 284 0 l 189 0 l 189 656 l 59 656 l 59 738 l 189 738 l 189 1012 z "},"u":{"ha":844,"x_min":94,"x_max":739,"o":"m 94 738 l 189 738 l 189 393 q 203 220 189 267 q 280 113 223 152 q 417 73 338 73 q 552 112 496 73 q 628 212 607 150 q 642 393 642 255 l 642 738 l 739 738 l 739 376 q 704 146 739 223 q 596 25 668 68 q 417 -19 525 -19 q 237 25 309 -19 q 129 147 165 68 q 94 382 94 225 l 94 738 z "},"v":{"ha":770,"x_min":36,"x_max":730,"o":"m 36 738 l 137 738 l 384 201 l 629 738 l 730 738 l 393 0 l 376 0 l 36 738 z "},"w":{"ha":1154,"x_min":6,"x_max":1148,"o":"m 6 738 l 104 738 l 330 202 l 566 738 l 583 738 l 819 202 l 1049 738 l 1148 738 l 828 0 l 810 0 l 575 528 l 338 0 l 321 0 l 6 738 z "},"x":{"ha":667,"x_min":-5,"x_max":672,"o":"m 22 738 l 136 738 l 331 465 l 526 738 l 640 738 l 388 387 l 672 0 l 557 0 l 331 310 l 109 0 l -5 0 l 275 387 l 22 738 z "},"y":{"ha":745,"x_min":26,"x_max":728,"o":"m 26 738 l 127 738 l 380 170 l 627 738 l 728 738 l 288 -270 l 187 -270 l 330 56 l 26 738 z "},"z":{"ha":590,"x_min":6,"x_max":587,"o":"m 45 738 l 587 738 l 170 84 l 574 84 l 574 0 l 6 0 l 424 654 l 45 654 l 45 738 z "},"{":{"ha":488,"x_min":51,"x_max":444,"o":"m 51 401 q 118 417 92 402 q 169 471 151 437 q 189 569 186 506 q 192 712 191 600 q 206 872 193 824 q 248 949 220 920 q 321 990 277 977 q 406 998 347 998 l 444 998 l 444 891 l 422 891 q 329 865 351 891 q 306 751 306 839 q 301 550 306 593 q 261 422 292 467 q 164 346 231 378 q 272 250 239 314 q 306 40 306 186 q 309 -114 306 -90 q 326 -170 313 -151 q 356 -192 335 -184 q 444 -199 376 -199 l 444 -306 l 406 -306 q 307 -294 338 -306 q 234 -240 261 -277 q 198 -139 206 -202 q 191 28 192 -94 q 177 197 191 153 q 132 265 164 241 q 51 290 100 289 l 51 401 z "},"|":{"ha":933,"x_min":418,"x_max":515,"o":"m 418 1023 l 515 1023 l 515 -270 l 418 -270 l 418 1023 z "},"}":{"ha":488,"x_min":44,"x_max":437,"o":"m 437 401 l 437 290 q 370 275 395 290 q 319 220 336 255 q 298 123 302 186 q 296 -21 297 92 q 281 -181 295 -133 q 239 -257 268 -229 q 167 -298 211 -286 q 82 -306 140 -306 l 44 -306 l 44 -199 l 65 -199 q 159 -174 136 -199 q 182 -60 182 -148 q 187 146 182 102 q 230 274 197 228 q 323 346 264 320 q 213 446 244 384 q 182 651 182 508 q 176 827 182 801 q 147 876 168 861 q 65 891 125 891 l 44 891 l 44 998 l 82 998 q 181 985 150 998 q 254 931 227 969 q 290 831 281 893 q 296 664 296 786 q 310 495 297 539 q 355 426 323 450 q 437 401 387 402 z "},"~":{"ha":842,"x_min":76,"x_max":765,"o":"m 765 568 l 765 458 q 656 404 689 415 q 594 393 623 393 q 414 445 530 393 q 300 493 325 486 q 254 501 275 501 q 188 488 224 501 q 76 430 152 475 l 76 538 q 184 592 151 581 q 248 604 217 604 q 430 549 314 604 q 539 502 510 511 q 593 492 569 492 q 650 504 621 492 q 765 568 680 515 z "},"Ä":{"ha":1027,"x_min":33,"x_max":994,"o":"m 529 998 l 994 0 l 887 0 l 730 328 l 300 328 l 144 0 l 33 0 l 505 998 l 529 998 m 517 786 l 345 425 l 686 425 l 517 786 m 376 1232 q 431 1208 408 1232 q 454 1153 454 1185 q 431 1097 454 1120 q 376 1074 408 1074 q 320 1097 343 1074 q 297 1153 297 1120 q 320 1208 297 1185 q 376 1232 343 1232 m 652 1232 q 708 1208 685 1232 q 731 1153 731 1185 q 708 1097 731 1120 q 652 1074 685 1074 q 597 1097 620 1074 q 574 1153 574 1120 q 597 1208 574 1185 q 652 1232 620 1232 z "},"Å":{"ha":1027,"x_min":33,"x_max":994,"o":"m 529 998 l 994 0 l 887 0 l 730 328 l 300 328 l 144 0 l 33 0 l 505 998 l 529 998 m 517 786 l 345 425 l 686 425 l 517 786 m 513 1349 q 615 1306 573 1349 q 658 1204 658 1264 q 616 1102 658 1144 q 513 1059 574 1059 q 411 1102 454 1059 q 369 1204 369 1144 q 411 1306 369 1264 q 513 1349 454 1349 m 513 1280 q 460 1258 481 1280 q 438 1206 438 1236 q 460 1153 438 1175 q 513 1131 481 1131 q 565 1153 543 1131 q 587 1206 587 1175 q 565 1258 587 1236 q 513 1280 543 1280 z "},"Ç":{"ha":1129,"x_min":75,"x_max":1050,"o":"m 1050 812 l 972 752 q 815 881 907 837 q 615 924 724 924 q 394 867 496 924 q 236 713 292 810 q 180 496 180 616 q 306 191 180 313 q 621 69 431 69 q 972 233 831 69 l 1050 174 q 864 27 976 79 q 615 -25 753 -25 q 202 149 353 -25 q 75 505 75 296 q 229 873 75 724 q 614 1023 382 1023 q 866 967 753 1023 q 1050 812 979 912 m 550 0 l 610 0 l 598 -80 q 624 -78 614 -78 q 680 -99 657 -78 q 702 -151 702 -119 q 661 -227 702 -195 q 547 -258 621 -258 q 433 -237 486 -258 l 448 -191 q 530 -204 492 -204 q 601 -192 581 -204 q 621 -160 621 -179 q 610 -140 621 -149 q 579 -131 599 -131 q 532 -137 563 -131 l 550 0 z "},"É":{"ha":745,"x_min":122,"x_max":694,"o":"m 122 998 l 694 998 l 694 899 l 222 899 l 222 587 l 690 587 l 690 490 l 222 490 l 222 98 l 690 98 l 690 0 l 122 0 l 122 998 m 459 1285 l 605 1285 l 405 1076 l 311 1076 l 459 1285 z "},"Ñ":{"ha":1027,"x_min":122,"x_max":905,"o":"m 122 0 l 122 998 l 144 998 l 807 234 l 807 998 l 905 998 l 905 0 l 883 0 l 225 754 l 225 0 l 122 0 m 715 1213 l 762 1147 q 680 1100 713 1112 q 609 1088 646 1088 q 509 1113 560 1088 q 452 1138 465 1135 q 417 1143 436 1143 q 372 1134 393 1143 q 310 1096 351 1126 l 265 1165 q 418 1231 327 1231 q 522 1204 461 1231 q 612 1177 579 1177 q 715 1213 650 1177 z "},"Ö":{"ha":1207,"x_min":78,"x_max":1128,"o":"m 597 1023 q 976 871 823 1023 q 1128 499 1128 720 q 976 127 1128 280 q 605 -25 824 -25 q 231 127 383 -25 q 78 494 78 279 q 148 761 78 638 q 337 953 217 884 q 597 1023 457 1023 m 602 925 q 392 867 491 925 q 237 712 293 810 q 182 494 182 614 q 305 194 182 317 q 602 72 428 72 q 816 128 718 72 q 970 282 915 184 q 1025 499 1025 380 q 970 714 1025 618 q 814 867 915 810 q 602 925 714 925 m 465 1232 q 521 1208 498 1232 q 544 1153 544 1185 q 521 1097 544 1120 q 465 1074 498 1074 q 410 1097 433 1074 q 387 1153 387 1120 q 410 1208 387 1185 q 465 1232 433 1232 m 742 1232 q 798 1208 774 1232 q 821 1153 821 1185 q 798 1097 821 1120 q 742 1074 774 1074 q 686 1097 709 1074 q 663 1153 663 1120 q 686 1208 663 1185 q 742 1232 709 1232 z "},"Ü":{"ha":909,"x_min":125,"x_max":785,"o":"m 125 998 l 224 998 l 224 395 q 229 262 224 288 q 263 163 236 203 q 347 97 290 123 q 460 70 403 70 q 555 91 509 70 q 631 149 600 112 q 675 239 661 186 q 686 395 686 277 l 686 998 l 785 998 l 785 395 q 759 179 785 262 q 655 36 733 97 q 465 -25 576 -25 q 258 33 345 -25 q 143 185 172 90 q 125 395 125 243 l 125 998 m 317 1232 q 372 1208 349 1232 q 395 1153 395 1185 q 372 1097 395 1120 q 317 1074 349 1074 q 261 1097 284 1074 q 238 1153 238 1120 q 261 1208 238 1185 q 317 1232 284 1232 m 593 1232 q 649 1208 626 1232 q 672 1153 672 1185 q 649 1097 672 1120 q 593 1074 626 1074 q 538 1097 561 1074 q 515 1153 515 1120 q 538 1208 515 1185 q 593 1232 561 1232 z "},"á":{"ha":949,"x_min":73,"x_max":841,"o":"m 841 738 l 841 0 l 747 0 l 747 127 q 613 18 688 54 q 451 -19 539 -19 q 183 95 294 -19 q 73 371 73 208 q 184 644 73 530 q 454 757 296 757 q 618 718 545 757 q 747 602 692 680 l 747 738 l 841 738 m 461 665 q 315 626 382 665 q 208 517 248 587 q 168 368 168 446 q 208 218 168 290 q 316 107 248 147 q 460 68 383 68 q 608 107 538 68 q 716 214 678 146 q 753 365 753 281 q 669 579 753 493 q 461 665 585 665 m 520 1084 l 666 1084 l 466 875 l 372 875 l 520 1084 z "},"à":{"ha":949,"x_min":73,"x_max":841,"o":"m 841 738 l 841 0 l 747 0 l 747 127 q 613 18 688 54 q 451 -19 539 -19 q 183 95 294 -19 q 73 371 73 208 q 184 644 73 530 q 454 757 296 757 q 618 718 545 757 q 747 602 692 680 l 747 738 l 841 738 m 461 665 q 315 626 382 665 q 208 517 248 587 q 168 368 168 446 q 208 218 168 290 q 316 107 248 147 q 460 68 383 68 q 608 107 538 68 q 716 214 678 146 q 753 365 753 281 q 669 579 753 493 q 461 665 585 665 m 433 1084 l 581 875 l 488 875 l 288 1084 l 433 1084 z "},"â":{"ha":949,"x_min":73,"x_max":841,"o":"m 841 738 l 841 0 l 747 0 l 747 127 q 613 18 688 54 q 451 -19 539 -19 q 183 95 294 -19 q 73 371 73 208 q 184 644 73 530 q 454 757 296 757 q 618 718 545 757 q 747 602 692 680 l 747 738 l 841 738 m 461 665 q 315 626 382 665 q 208 517 248 587 q 168 368 168 446 q 208 218 168 290 q 316 107 248 147 q 460 68 383 68 q 608 107 538 68 q 716 214 678 146 q 753 365 753 281 q 669 579 753 493 q 461 665 585 665 m 429 1046 l 524 1046 l 720 871 l 598 871 l 479 975 l 354 871 l 228 871 l 429 1046 z "},"ä":{"ha":949,"x_min":73,"x_max":841,"o":"m 841 738 l 841 0 l 747 0 l 747 127 q 613 18 688 54 q 451 -19 539 -19 q 183 95 294 -19 q 73 371 73 208 q 184 644 73 530 q 454 757 296 757 q 618 718 545 757 q 747 602 692 680 l 747 738 l 841 738 m 461 665 q 315 626 382 665 q 208 517 248 587 q 168 368 168 446 q 208 218 168 290 q 316 107 248 147 q 460 68 383 68 q 608 107 538 68 q 716 214 678 146 q 753 365 753 281 q 669 579 753 493 q 461 665 585 665 m 336 1029 q 392 1006 369 1029 q 415 951 415 983 q 392 895 415 918 q 336 872 369 872 q 281 895 304 872 q 258 951 258 918 q 281 1006 258 983 q 336 1029 304 1029 m 613 1029 q 669 1006 646 1029 q 692 951 692 983 q 669 895 692 918 q 613 872 646 872 q 557 895 581 872 q 534 951 534 918 q 557 1006 534 983 q 613 1029 581 1029 z "},"ã":{"ha":949,"x_min":73,"x_max":841,"o":"m 841 738 l 841 0 l 747 0 l 747 127 q 613 18 688 54 q 451 -19 539 -19 q 183 95 294 -19 q 73 371 73 208 q 184 644 73 530 q 454 757 296 757 q 618 718 545 757 q 747 602 692 680 l 747 738 l 841 738 m 461 665 q 315 626 382 665 q 208 517 248 587 q 168 368 168 446 q 208 218 168 290 q 316 107 248 147 q 460 68 383 68 q 608 107 538 68 q 716 214 678 146 q 753 365 753 281 q 669 579 753 493 q 461 665 585 665 m 675 1012 l 723 946 q 641 899 674 911 q 570 886 607 886 q 469 911 521 886 q 413 937 425 933 q 378 941 397 941 q 333 933 354 941 q 271 895 311 924 l 226 964 q 378 1029 288 1029 q 482 1002 422 1029 q 573 976 540 976 q 675 1012 610 976 z "},"å":{"ha":949,"x_min":73,"x_max":841,"o":"m 841 738 l 841 0 l 747 0 l 747 127 q 613 18 688 54 q 451 -19 539 -19 q 183 95 294 -19 q 73 371 73 208 q 184 644 73 530 q 454 757 296 757 q 618 718 545 757 q 747 602 692 680 l 747 738 l 841 738 m 461 665 q 315 626 382 665 q 208 517 248 587 q 168 368 168 446 q 208 218 168 290 q 316 107 248 147 q 460 68 383 68 q 608 107 538 68 q 716 214 678 146 q 753 365 753 281 q 669 579 753 493 q 461 665 585 665 m 474 1147 q 576 1104 534 1147 q 618 1002 618 1062 q 576 900 618 942 q 474 857 534 857 q 372 900 414 857 q 330 1002 330 942 q 372 1104 330 1062 q 474 1147 414 1147 m 473 1078 q 420 1056 442 1078 q 399 1004 399 1034 q 420 951 399 973 q 473 929 442 929 q 526 951 504 929 q 547 1004 547 973 q 526 1056 547 1034 q 473 1078 504 1078 z "},"ç":{"ha":899,"x_min":71,"x_max":822,"o":"m 822 585 l 747 538 q 480 667 649 667 q 256 581 345 667 q 167 370 167 494 q 208 218 167 289 q 320 107 249 146 q 481 68 392 68 q 747 197 644 68 l 822 148 q 680 25 769 68 q 477 -19 591 -19 q 186 92 302 -19 q 71 363 71 203 q 125 562 71 470 q 273 705 179 654 q 484 757 368 757 q 626 734 557 757 q 741 676 694 712 q 822 585 789 640 m 435 0 l 495 0 l 484 -80 q 509 -78 499 -78 q 565 -99 543 -78 q 587 -151 587 -119 q 547 -227 587 -195 q 432 -258 506 -258 q 319 -237 372 -258 l 334 -191 q 415 -204 377 -204 q 486 -192 466 -204 q 507 -160 507 -179 q 495 -140 507 -149 q 465 -131 484 -131 q 417 -137 448 -131 l 435 0 z "},"é":{"ha":903,"x_min":71,"x_max":831,"o":"m 727 245 l 807 203 q 716 78 768 125 q 600 6 665 31 q 454 -19 536 -19 q 172 99 274 -19 q 71 367 71 218 q 157 617 71 507 q 449 757 266 757 q 750 614 637 757 q 831 361 830 513 l 168 361 q 250 150 171 233 q 446 68 330 68 q 556 87 503 68 q 646 140 609 107 q 727 245 684 172 m 727 444 q 672 565 708 519 q 576 638 635 610 q 450 666 516 666 q 264 596 342 666 q 178 444 207 545 l 727 444 m 498 1084 l 644 1084 l 444 875 l 350 875 l 498 1084 z "},"è":{"ha":903,"x_min":71,"x_max":831,"o":"m 727 245 l 807 203 q 716 78 768 125 q 600 6 665 31 q 454 -19 536 -19 q 172 99 274 -19 q 71 367 71 218 q 157 617 71 507 q 449 757 266 757 q 750 614 637 757 q 831 361 830 513 l 168 361 q 250 150 171 233 q 446 68 330 68 q 556 87 503 68 q 646 140 609 107 q 727 245 684 172 m 727 444 q 672 565 708 519 q 576 638 635 610 q 450 666 516 666 q 264 596 342 666 q 178 444 207 545 l 727 444 m 410 1084 l 558 875 l 465 875 l 264 1084 l 410 1084 z "},"ê":{"ha":903,"x_min":71,"x_max":831,"o":"m 727 245 l 807 203 q 716 78 768 125 q 600 6 665 31 q 454 -19 536 -19 q 172 99 274 -19 q 71 367 71 218 q 157 617 71 507 q 449 757 266 757 q 750 614 637 757 q 831 361 830 513 l 168 361 q 250 150 171 233 q 446 68 330 68 q 556 87 503 68 q 646 140 609 107 q 727 245 684 172 m 727 444 q 672 565 708 519 q 576 638 635 610 q 450 666 516 666 q 264 596 342 666 q 178 444 207 545 l 727 444 m 407 1046 l 501 1046 l 698 871 l 576 871 l 456 975 l 332 871 l 205 871 l 407 1046 z "},"ë":{"ha":903,"x_min":71,"x_max":831,"o":"m 727 245 l 807 203 q 716 78 768 125 q 600 6 665 31 q 454 -19 536 -19 q 172 99 274 -19 q 71 367 71 218 q 157 617 71 507 q 449 757 266 757 q 750 614 637 757 q 831 361 830 513 l 168 361 q 250 150 171 233 q 446 68 330 68 q 556 87 503 68 q 646 140 609 107 q 727 245 684 172 m 727 444 q 672 565 708 519 q 576 638 635 610 q 450 666 516 666 q 264 596 342 666 q 178 444 207 545 l 727 444 m 313 1029 q 369 1006 346 1029 q 392 951 392 983 q 369 895 392 918 q 313 872 346 872 q 258 895 281 872 q 235 951 235 918 q 258 1006 235 983 q 313 1029 281 1029 m 590 1029 q 646 1006 623 1029 q 669 951 669 983 q 646 895 669 918 q 590 872 623 872 q 534 895 557 872 q 511 951 511 918 q 534 1006 511 983 q 590 1029 557 1029 z "},"í":{"ha":278,"x_min":37,"x_max":331,"o":"m 92 738 l 187 738 l 187 0 l 92 0 l 92 738 m 185 1084 l 331 1084 l 131 875 l 37 875 l 185 1084 z "},"ì":{"ha":278,"x_min":-48,"x_max":245,"o":"m 92 738 l 187 738 l 187 0 l 92 0 l 92 738 m 98 1084 l 245 875 l 152 875 l -48 1084 l 98 1084 z "},"î":{"ha":278,"x_min":-107,"x_max":385,"o":"m 92 738 l 187 738 l 187 0 l 92 0 l 92 738 m 94 1046 l 189 1046 l 385 871 l 263 871 l 144 975 l 19 871 l -107 871 l 94 1046 z "},"ï":{"ha":278,"x_min":-78,"x_max":356,"o":"m 92 738 l 187 738 l 187 0 l 92 0 l 92 738 m 1 1029 q 56 1006 33 1029 q 79 951 79 983 q 56 895 79 918 q 1 872 33 872 q -55 895 -32 872 q -78 951 -78 918 q -55 1006 -78 983 q 1 1029 -32 1029 m 277 1029 q 333 1006 310 1029 q 356 951 356 983 q 333 895 356 918 q 277 872 310 872 q 222 895 245 872 q 199 951 199 918 q 222 1006 199 983 q 277 1029 245 1029 z "},"ñ":{"ha":847,"x_min":106,"x_max":749,"o":"m 106 738 l 201 738 l 201 606 q 327 719 258 682 q 477 757 396 757 q 624 715 560 757 q 719 602 688 673 q 749 380 749 530 l 749 0 l 655 0 l 655 352 q 644 522 655 479 q 581 632 627 595 q 458 669 534 669 q 304 612 372 669 q 214 471 236 555 q 201 271 201 416 l 201 0 l 106 0 l 106 738 m 625 1012 l 672 946 q 590 899 623 911 q 519 886 556 886 q 418 911 470 886 q 362 937 374 933 q 327 941 346 941 q 282 933 303 941 q 220 895 260 924 l 175 964 q 328 1029 237 1029 q 431 1002 371 1029 q 522 976 489 976 q 625 1012 559 976 z "},"ó":{"ha":909,"x_min":71,"x_max":839,"o":"m 455 757 q 737 633 625 757 q 839 367 839 521 q 731 97 839 212 q 455 -19 624 -19 q 178 97 286 -19 q 71 367 71 212 q 172 633 71 520 q 455 757 284 757 m 455 664 q 252 576 337 664 q 168 365 168 489 q 206 216 168 285 q 311 109 245 146 q 455 71 376 71 q 600 109 534 71 q 704 216 665 146 q 743 365 743 285 q 657 576 743 489 q 455 664 572 664 m 501 1084 l 647 1084 l 447 875 l 353 875 l 501 1084 z "},"ò":{"ha":909,"x_min":71,"x_max":839,"o":"m 455 757 q 737 633 625 757 q 839 367 839 521 q 731 97 839 212 q 455 -19 624 -19 q 178 97 286 -19 q 71 367 71 212 q 172 633 71 520 q 455 757 284 757 m 455 664 q 252 576 337 664 q 168 365 168 489 q 206 216 168 285 q 311 109 245 146 q 455 71 376 71 q 600 109 534 71 q 704 216 665 146 q 743 365 743 285 q 657 576 743 489 q 455 664 572 664 m 414 1084 l 562 875 l 468 875 l 268 1084 l 414 1084 z "},"ô":{"ha":909,"x_min":71,"x_max":839,"o":"m 455 757 q 737 633 625 757 q 839 367 839 521 q 731 97 839 212 q 455 -19 624 -19 q 178 97 286 -19 q 71 367 71 212 q 172 633 71 520 q 455 757 284 757 m 455 664 q 252 576 337 664 q 168 365 168 489 q 206 216 168 285 q 311 109 245 146 q 455 71 376 71 q 600 109 534 71 q 704 216 665 146 q 743 365 743 285 q 657 576 743 489 q 455 664 572 664 m 410 1046 l 505 1046 l 701 871 l 579 871 l 460 975 l 335 871 l 209 871 l 410 1046 z "},"ö":{"ha":909,"x_min":71,"x_max":839,"o":"m 455 757 q 737 633 625 757 q 839 367 839 521 q 731 97 839 212 q 455 -19 624 -19 q 178 97 286 -19 q 71 367 71 212 q 172 633 71 520 q 455 757 284 757 m 455 664 q 252 576 337 664 q 168 365 168 489 q 206 216 168 285 q 311 109 245 146 q 455 71 376 71 q 600 109 534 71 q 704 216 665 146 q 743 365 743 285 q 657 576 743 489 q 455 664 572 664 m 317 1029 q 372 1006 349 1029 q 395 951 395 983 q 372 895 395 918 q 317 872 349 872 q 261 895 284 872 q 238 951 238 918 q 261 1006 238 983 q 317 1029 284 1029 m 593 1029 q 649 1006 626 1029 q 672 951 672 983 q 649 895 672 918 q 593 872 626 872 q 538 895 561 872 q 515 951 515 918 q 538 1006 515 983 q 593 1029 561 1029 z "},"õ":{"ha":909,"x_min":71,"x_max":839,"o":"m 455 757 q 737 633 625 757 q 839 367 839 521 q 731 97 839 212 q 455 -19 624 -19 q 178 97 286 -19 q 71 367 71 212 q 172 633 71 520 q 455 757 284 757 m 455 664 q 252 576 337 664 q 168 365 168 489 q 206 216 168 285 q 311 109 245 146 q 455 71 376 71 q 600 109 534 71 q 704 216 665 146 q 743 365 743 285 q 657 576 743 489 q 455 664 572 664 m 656 1012 l 703 946 q 621 899 654 911 q 550 886 587 886 q 450 911 501 886 q 393 937 406 933 q 358 941 377 941 q 313 933 334 941 q 251 895 292 924 l 206 964 q 359 1029 268 1029 q 463 1002 402 1029 q 553 976 520 976 q 656 1012 591 976 z "},"ú":{"ha":844,"x_min":94,"x_max":739,"o":"m 94 738 l 189 738 l 189 393 q 203 220 189 267 q 280 113 223 152 q 417 73 338 73 q 552 112 496 73 q 628 212 607 150 q 642 393 642 255 l 642 738 l 739 738 l 739 376 q 704 146 739 223 q 596 25 668 68 q 417 -19 525 -19 q 237 25 309 -19 q 129 147 165 68 q 94 382 94 225 l 94 738 m 468 1084 l 614 1084 l 414 875 l 320 875 l 468 1084 z "},"ù":{"ha":844,"x_min":94,"x_max":739,"o":"m 94 738 l 189 738 l 189 393 q 203 220 189 267 q 280 113 223 152 q 417 73 338 73 q 552 112 496 73 q 628 212 607 150 q 642 393 642 255 l 642 738 l 739 738 l 739 376 q 704 146 739 223 q 596 25 668 68 q 417 -19 525 -19 q 237 25 309 -19 q 129 147 165 68 q 94 382 94 225 l 94 738 m 380 1084 l 528 875 l 435 875 l 235 1084 l 380 1084 z "},"û":{"ha":844,"x_min":94,"x_max":739,"o":"m 94 738 l 189 738 l 189 393 q 203 220 189 267 q 280 113 223 152 q 417 73 338 73 q 552 112 496 73 q 628 212 607 150 q 642 393 642 255 l 642 738 l 739 738 l 739 376 q 704 146 739 223 q 596 25 668 68 q 417 -19 525 -19 q 237 25 309 -19 q 129 147 165 68 q 94 382 94 225 l 94 738 m 377 1046 l 471 1046 l 668 871 l 546 871 l 427 975 l 302 871 l 176 871 l 377 1046 z "},"ü":{"ha":844,"x_min":94,"x_max":739,"o":"m 94 738 l 189 738 l 189 393 q 203 220 189 267 q 280 113 223 152 q 417 73 338 73 q 552 112 496 73 q 628 212 607 150 q 642 393 642 255 l 642 738 l 739 738 l 739 376 q 704 146 739 223 q 596 25 668 68 q 417 -19 525 -19 q 237 25 309 -19 q 129 147 165 68 q 94 382 94 225 l 94 738 m 283 1029 q 339 1006 316 1029 q 362 951 362 983 q 339 895 362 918 q 283 872 316 872 q 228 895 251 872 q 205 951 205 918 q 228 1006 205 983 q 283 1029 251 1029 m 560 1029 q 616 1006 593 1029 q 639 951 639 983 q 616 895 639 918 q 560 872 593 872 q 505 895 528 872 q 481 951 481 918 q 505 1006 481 983 q 560 1029 528 1029 z "},"†":{"ha":768,"x_min":106,"x_max":661,"o":"m 332 1023 l 433 1023 l 417 713 l 661 727 l 661 626 l 417 644 l 435 -213 l 332 -213 l 351 644 l 106 626 l 106 727 l 351 713 l 332 1023 z "},"°":{"ha":555,"x_min":44,"x_max":512,"o":"m 512 789 q 444 624 512 691 q 277 556 375 556 q 112 624 180 556 q 44 791 44 692 q 114 955 44 887 q 279 1023 183 1023 q 444 955 376 1023 q 512 789 512 887 m 431 788 q 387 904 431 857 q 280 951 343 951 q 171 904 216 951 q 125 789 125 857 q 171 676 125 724 q 279 628 217 628 q 387 675 342 628 q 431 788 431 722 z "},"¢":{"ha":770,"x_min":70,"x_max":734,"o":"m 652 909 l 734 868 l 644 694 q 723 630 693 663 l 665 559 q 601 610 634 589 l 334 91 q 431 69 385 69 q 639 156 530 69 l 701 84 q 576 9 648 37 q 432 -19 504 -19 q 291 6 367 -19 l 188 -194 l 109 -151 l 211 54 q 104 195 138 119 q 70 363 70 271 q 172 641 70 526 q 439 757 274 757 q 562 734 500 757 l 652 909 m 519 652 q 437 666 475 666 q 243 584 321 666 q 165 368 165 503 q 188 239 165 294 q 256 142 210 183 l 519 652 z "},"£":{"ha":770,"x_min":39,"x_max":730,"o":"m 67 572 l 239 572 q 199 726 203 703 q 191 800 191 765 q 262 957 191 890 q 436 1023 332 1023 q 552 994 504 1023 q 632 910 601 965 q 671 763 663 856 l 578 763 q 538 888 576 845 q 439 932 501 932 q 328 893 370 932 q 286 793 286 855 q 306 682 286 738 l 311 670 l 341 572 l 558 572 l 558 485 l 364 485 q 389 306 389 399 q 374 178 389 233 q 487 100 416 144 q 562 76 528 76 q 633 233 626 76 l 729 233 q 706 90 730 154 q 649 0 683 26 q 573 -25 615 -25 q 475 -1 528 -25 q 341 83 401 31 q 180 -25 285 -25 q 77 9 115 -25 q 39 102 39 43 q 83 214 39 168 q 189 260 128 260 q 287 233 235 260 q 292 305 292 279 q 261 485 292 401 l 67 485 l 67 572 m 261 140 q 184 168 215 168 q 146 153 161 168 q 132 116 132 138 q 145 80 132 94 q 177 65 158 65 q 261 140 228 65 z "},"§":{"ha":854,"x_min":88,"x_max":677,"o":"m 654 810 l 554 810 q 505 910 547 873 q 397 946 464 946 q 284 911 326 946 q 243 824 243 876 q 256 769 243 794 q 313 702 274 735 q 447 612 351 669 q 598 510 559 545 q 658 433 638 475 q 677 353 677 392 q 625 227 677 284 q 484 152 572 169 q 593 47 555 107 q 631 -76 631 -14 q 562 -227 631 -165 q 381 -289 493 -289 q 197 -233 271 -289 q 110 -94 124 -176 l 210 -94 q 256 -161 226 -137 q 375 -200 304 -200 q 489 -164 446 -200 q 531 -77 531 -128 q 497 12 531 -31 q 341 134 463 56 q 199 227 224 208 q 115 319 142 271 q 88 418 88 368 q 109 502 88 460 q 169 573 130 543 q 264 621 207 604 q 171 718 197 669 q 144 827 144 767 q 212 981 144 921 q 396 1042 280 1042 q 575 982 509 1042 q 654 810 642 922 m 344 569 q 228 518 269 557 q 187 422 187 478 q 223 332 187 373 q 404 208 270 279 q 533 259 487 218 q 578 355 578 301 q 547 432 578 397 q 353 563 515 467 l 344 569 z "},"•":{"ha":842,"x_min":212,"x_max":629,"o":"m 420 714 q 568 653 507 714 q 629 506 629 592 q 568 358 629 419 q 420 297 507 297 q 273 358 334 297 q 212 506 212 419 q 273 653 212 592 q 420 714 334 714 z "},"¶":{"ha":783,"x_min":64,"x_max":693,"o":"m 328 -157 l 328 479 q 252 484 277 479 q 157 530 199 496 q 89 622 114 564 q 64 749 64 679 q 142 958 64 878 q 345 1026 208 1026 l 693 1026 l 693 975 l 636 975 l 636 -157 l 555 -157 l 555 975 l 408 975 l 408 -157 l 328 -157 z "},"ß":{"ha":770,"x_min":110,"x_max":699,"o":"m 110 0 l 110 675 q 139 893 110 828 q 236 1000 169 958 q 395 1042 304 1042 q 589 972 515 1042 q 663 796 663 902 q 629 677 663 729 q 534 593 595 625 q 441 568 501 576 q 543 540 507 558 q 657 433 616 501 q 699 277 699 366 q 619 64 699 146 q 416 -19 540 -19 q 275 14 332 -19 l 275 104 q 402 71 346 71 q 546 129 489 71 q 604 279 604 187 q 535 446 604 382 q 336 515 466 511 l 336 621 l 357 621 q 509 671 452 621 q 566 792 566 721 q 518 905 566 859 q 397 950 471 950 q 292 919 340 950 q 222 834 243 887 q 205 666 205 793 l 205 0 l 110 0 z "},"®":{"ha":1038,"x_min":-14,"x_max":1052,"o":"m 1052 515 q 981 249 1052 372 q 785 54 909 125 q 519 -18 661 -18 q 254 53 378 -18 q 58 248 130 125 q -14 513 -14 372 q 58 780 -14 655 q 253 976 130 905 q 519 1047 377 1047 q 785 976 662 1047 q 980 781 908 905 q 1052 515 1052 656 m 978 515 q 916 744 978 637 q 749 913 854 852 q 521 975 643 975 q 291 913 398 975 q 122 744 183 852 q 60 513 60 637 q 122 284 60 391 q 291 116 183 178 q 521 54 399 54 q 749 116 642 54 q 917 284 855 178 q 978 515 978 391 m 298 825 l 553 825 q 682 807 643 825 q 746 749 722 789 q 771 654 771 708 q 753 573 771 607 q 694 518 740 548 q 750 471 736 498 q 764 379 764 444 l 764 310 q 786 229 764 261 l 796 212 l 688 212 q 673 302 677 250 l 669 378 q 655 436 666 419 q 626 460 645 453 q 549 468 606 468 l 395 468 l 395 212 l 298 212 l 298 825 m 395 737 l 395 555 l 545 555 q 638 571 614 555 q 674 647 674 593 q 648 715 674 694 q 551 737 623 737 l 395 737 z "},"©":{"ha":1038,"x_min":-14,"x_max":1052,"o":"m 1052 513 q 981 248 1052 370 q 786 53 909 125 q 519 -18 662 -18 q 253 53 377 -18 q 58 248 129 125 q -14 513 -14 371 q 58 779 -14 656 q 253 973 129 902 q 519 1044 376 1044 q 786 973 662 1044 q 981 779 909 902 q 1052 513 1052 656 m 978 513 q 917 743 978 637 q 749 911 855 849 q 519 972 642 972 q 290 911 396 972 q 122 743 183 849 q 60 513 60 636 q 122 283 60 390 q 290 116 183 177 q 519 54 397 54 q 749 116 642 54 q 917 283 855 177 q 978 513 978 390 m 780 627 l 688 627 q 634 717 673 687 q 528 747 594 747 q 390 687 442 747 q 338 509 338 626 q 388 336 338 395 q 519 276 438 276 q 631 318 587 276 q 688 443 675 359 l 780 443 q 696 266 767 332 q 522 200 625 200 q 317 282 394 200 q 241 511 241 365 q 320 749 241 664 q 523 835 400 835 q 704 778 636 835 q 780 627 772 722 z "},"™":{"ha":1389,"x_min":8,"x_max":1333,"o":"m 1333 1026 l 1333 441 l 1232 441 l 1232 923 l 1014 441 l 947 441 l 736 923 l 736 441 l 635 441 l 635 1026 l 800 1026 l 981 621 l 1172 1026 l 1333 1026 m 522 1026 l 522 933 l 315 933 l 315 441 l 214 441 l 214 933 l 8 933 l 8 1026 l 522 1026 z "},"´":{"ha":521,"x_min":159,"x_max":452,"o":"m 307 1084 l 452 1084 l 252 875 l 159 875 l 307 1084 z "},"¨":{"ha":513,"x_min":39,"x_max":473,"o":"m 118 1029 q 174 1006 151 1029 q 197 951 197 983 q 174 895 197 918 q 118 872 151 872 q 62 895 85 872 q 39 951 39 918 q 62 1006 39 983 q 118 1029 85 1029 m 395 1029 q 450 1006 427 1029 q 473 951 473 983 q 450 895 473 918 q 395 872 427 872 q 339 895 362 872 q 316 951 316 918 q 339 1006 316 983 q 395 1029 362 1029 z "},"≠":{"ha":762,"x_min":38,"x_max":724,"o":"m 503 694 l 724 694 l 724 602 l 467 602 l 388 396 l 724 396 l 724 303 l 352 303 l 225 -25 l 132 -25 l 258 303 l 38 303 l 38 396 l 294 396 l 372 602 l 38 602 l 38 694 l 408 694 l 534 1023 l 630 1023 l 503 694 z "},"Æ":{"ha":1378,"x_min":1,"x_max":1262,"o":"m 1 0 l 645 998 l 1262 998 l 1262 895 l 792 895 l 792 589 l 1262 589 l 1262 490 l 792 490 l 792 98 l 1262 98 l 1262 0 l 691 0 l 691 327 l 328 327 l 117 0 l 1 0 m 392 420 l 691 420 l 691 882 l 392 420 z "},"Ø":{"ha":1206,"x_min":77,"x_max":1128,"o":"m 986 861 q 1091 699 1054 791 q 1128 499 1128 606 q 976 127 1128 280 q 604 -25 823 -25 q 308 62 438 -25 l 197 -70 l 124 -11 l 236 121 q 77 494 77 275 q 147 761 77 638 q 338 954 217 884 q 603 1023 458 1023 q 920 922 777 1023 l 1017 1040 l 1088 981 l 986 861 m 301 197 l 851 844 q 601 925 736 925 q 391 867 490 925 q 237 712 292 810 q 181 494 181 614 q 301 197 181 321 m 920 782 l 374 138 q 601 72 477 72 q 815 128 717 72 q 969 282 914 184 q 1025 499 1025 380 q 920 782 1025 665 z "},"∞":{"ha":990,"x_min":103,"x_max":887,"o":"m 466 551 q 592 679 545 650 q 692 708 639 708 q 827 655 766 708 q 887 490 887 602 q 830 320 887 376 q 692 263 773 263 q 586 296 633 263 q 466 420 538 330 q 270 304 374 304 q 152 357 201 304 q 103 486 103 410 q 152 614 103 562 q 270 667 201 667 q 466 551 374 667 m 513 486 q 616 364 569 399 q 690 338 650 338 q 777 377 743 338 q 812 484 812 415 q 777 593 812 555 q 688 631 741 631 q 617 607 652 631 q 513 486 583 582 m 419 486 q 334 572 367 551 q 270 592 301 592 q 204 564 230 592 q 178 488 178 536 q 205 411 178 440 q 271 382 232 382 q 419 486 340 382 z "},"±":{"ha":762,"x_min":38,"x_max":724,"o":"m 334 619 l 334 913 l 427 913 l 427 619 l 724 619 l 724 526 l 427 526 l 427 232 l 334 232 l 334 526 l 38 526 l 38 619 l 334 619 m 724 109 l 724 16 l 38 16 l 38 109 l 724 109 z "},"≤":{"ha":762,"x_min":31,"x_max":732,"o":"m 732 326 l 732 227 l 31 545 l 31 633 l 732 953 l 732 853 l 163 589 l 732 326 m 732 157 l 732 64 l 31 64 l 31 157 l 732 157 z "},"≥":{"ha":762,"x_min":31,"x_max":732,"o":"m 31 326 l 600 589 l 31 853 l 31 953 l 732 633 l 732 545 l 31 227 l 31 326 m 732 157 l 732 64 l 31 64 l 31 157 l 732 157 z "},"¥":{"ha":770,"x_min":42,"x_max":727,"o":"m 614 998 l 727 998 l 444 499 l 686 499 l 686 420 l 432 420 l 432 315 l 686 315 l 686 235 l 432 235 l 432 0 l 334 0 l 334 235 l 83 235 l 83 315 l 334 315 l 334 420 l 83 420 l 83 499 l 323 499 l 42 998 l 155 998 l 384 589 l 614 998 z "},"µ":{"ha":800,"x_min":100,"x_max":701,"o":"m 100 -270 l 100 738 l 195 738 l 195 331 q 218 193 195 239 q 292 117 241 148 q 401 86 342 86 q 508 116 460 86 q 580 197 555 145 q 606 340 606 249 l 606 738 l 701 738 l 701 0 l 606 0 l 606 80 q 515 6 566 30 q 401 -17 465 -17 q 286 6 337 -17 q 195 78 235 30 l 195 -270 l 100 -270 z "},"∂":{"ha":686,"x_min":38,"x_max":660,"o":"m 289 772 l 197 812 q 308 962 243 913 q 441 1011 374 1011 q 551 973 501 1011 q 631 850 602 935 q 660 628 660 765 q 601 279 660 428 q 444 57 541 130 q 247 -17 346 -17 q 96 45 153 -17 q 38 218 38 108 q 149 488 38 378 q 582 627 284 621 q 562 814 579 756 q 513 898 545 872 q 443 924 481 924 q 289 772 346 924 m 579 540 q 336 493 411 530 q 210 374 260 456 q 160 205 160 292 q 195 113 160 149 q 275 76 229 76 q 401 125 334 76 q 516 277 469 175 q 579 540 563 380 z "},"∑":{"ha":990,"x_min":83,"x_max":940,"o":"m 94 1042 l 933 1042 l 933 930 l 263 930 l 675 391 l 237 -180 l 940 -180 l 940 -289 l 83 -289 l 83 -162 l 503 386 l 94 922 l 94 1042 z "},"∏":{"ha":1143,"x_min":110,"x_max":1034,"o":"m 110 1042 l 1034 1042 l 1034 -289 l 904 -289 l 904 924 l 241 924 l 241 -289 l 110 -289 l 110 1042 z "},"":{"ha":762,"x_min":0,"x_max":762,"o":"m 0 721 l 762 721 l 762 614 l 652 614 l 652 0 l 524 0 l 524 614 l 235 614 l 235 0 l 108 0 l 108 614 l 0 614 l 0 721 z "},"∫":{"ha":380,"x_min":0,"x_max":380,"o":"m 136 643 q 147 981 136 785 q 184 1179 154 1106 q 232 1242 201 1220 q 295 1263 264 1263 q 354 1241 328 1263 q 380 1191 380 1219 q 362 1140 380 1160 q 317 1120 344 1120 q 266 1145 294 1120 q 239 1158 250 1158 q 219 1148 227 1158 q 212 1115 212 1139 q 218 1017 212 1086 q 243 566 243 739 q 233 181 243 520 q 176 -97 227 -26 q 80 -149 138 -149 q 22 -126 45 -149 q 0 -67 0 -103 q 17 -19 0 -37 q 61 0 35 0 q 109 -22 88 0 q 141 -43 127 -43 q 160 -34 153 -43 q 168 -2 168 -24 q 161 79 168 26 q 136 643 136 294 z "},"ª":{"ha":513,"x_min":39,"x_max":450,"o":"m 450 1011 l 450 549 l 373 549 l 373 613 q 310 557 345 576 q 233 538 275 538 q 97 607 155 538 q 39 781 39 676 q 98 954 39 885 q 234 1023 157 1023 q 310 1003 275 1023 q 373 944 345 983 l 373 1011 l 450 1011 m 248 949 q 156 901 195 949 q 117 780 117 854 q 157 657 117 705 q 247 609 196 609 q 338 655 299 609 q 377 779 377 701 q 338 902 377 854 q 248 949 300 949 z "},"º":{"ha":513,"x_min":37,"x_max":475,"o":"m 256 1023 q 410 953 346 1023 q 475 779 475 883 q 411 607 475 676 q 256 538 347 538 q 101 607 165 538 q 37 779 37 676 q 102 953 37 884 q 256 1023 166 1023 m 256 948 q 159 899 201 948 q 117 778 117 850 q 158 658 117 705 q 256 611 199 611 q 354 658 313 611 q 395 778 395 705 q 353 899 395 850 q 256 948 311 948 z "},"Ω":{"ha":1067,"x_min":86,"x_max":1000,"o":"m 336 109 q 203 222 251 162 q 129 364 155 282 q 102 544 102 446 q 159 795 102 686 q 316 962 216 904 q 548 1019 416 1019 q 888 859 767 1019 q 987 543 987 730 q 960 369 987 450 q 884 226 933 289 q 753 109 836 163 l 1000 113 l 1000 0 l 610 0 l 610 120 q 708 184 671 151 q 808 333 770 244 q 846 527 846 422 q 805 734 846 643 q 699 867 764 825 q 545 909 635 909 q 329 809 413 909 q 245 529 245 709 q 308 275 245 380 q 477 122 370 170 l 477 0 l 86 0 l 86 114 l 336 109 z "},"æ":{"ha":1607,"x_min":81,"x_max":1525,"o":"m 844 738 l 844 604 q 983 724 916 690 q 1141 757 1050 757 q 1416 645 1308 757 q 1525 359 1525 534 l 861 359 q 903 211 863 281 q 1007 104 942 141 q 1150 68 1072 68 q 1302 110 1235 68 q 1419 242 1369 151 l 1501 201 q 1356 39 1451 96 q 1143 -19 1262 -19 q 957 28 1039 -19 q 844 132 898 61 l 844 0 l 758 0 l 758 136 q 640 28 697 61 q 462 -19 559 -19 q 193 95 305 -19 q 81 372 81 208 q 132 565 81 477 q 271 705 182 653 q 459 757 359 757 q 638 710 555 757 q 758 604 697 676 l 758 738 l 844 738 m 1419 441 q 1364 564 1400 519 q 1269 638 1329 610 q 1146 666 1209 666 q 1021 637 1082 666 q 922 561 960 608 q 866 441 883 513 l 1419 441 m 466 665 q 321 627 389 665 q 216 520 254 588 q 178 369 178 452 q 262 156 178 241 q 469 71 347 71 q 676 156 592 71 q 760 368 760 240 q 723 522 760 456 q 617 627 687 588 q 466 665 548 665 z "},"ø":{"ha":907,"x_min":69,"x_max":838,"o":"m 747 619 q 838 367 838 510 q 730 97 838 212 q 454 -19 623 -19 q 251 37 342 -19 l 172 -56 l 112 -6 l 189 85 q 69 367 69 201 q 176 639 69 522 q 453 757 283 757 q 691 675 589 757 l 770 768 l 832 718 l 747 619 m 249 155 l 629 602 q 454 664 549 664 q 312 624 378 664 q 205 514 245 585 q 166 365 166 444 q 188 251 166 307 q 249 155 210 195 m 683 544 l 311 107 q 453 71 381 71 q 598 109 532 71 q 703 216 664 146 q 741 364 741 285 q 683 544 741 462 z "},"¿":{"ha":821,"x_min":124,"x_max":706,"o":"m 410 753 q 469 728 444 753 q 493 669 493 704 q 469 609 493 633 q 410 585 444 585 q 351 609 375 585 q 326 669 326 633 q 351 728 326 703 q 410 753 375 753 m 608 7 l 706 7 q 624 -209 705 -130 q 409 -289 544 -289 q 200 -222 276 -289 q 124 -55 124 -155 q 145 33 124 -7 q 208 105 166 73 q 355 179 250 138 q 515 258 487 232 q 543 321 543 285 q 505 392 543 361 q 406 423 467 423 q 302 389 338 423 q 258 279 267 355 l 159 279 q 230 456 164 393 q 406 519 295 519 q 581 462 515 519 q 646 321 646 405 q 628 244 646 280 q 577 183 610 208 q 453 121 544 159 q 266 32 307 62 q 224 -53 224 2 q 274 -153 224 -112 q 408 -194 324 -194 q 566 -127 510 -194 q 608 7 606 -80 z "},"¡":{"ha":410,"x_min":121,"x_max":288,"o":"m 205 753 q 264 728 239 753 q 288 669 288 704 q 264 609 288 633 q 205 585 239 585 q 146 609 170 585 q 121 669 121 633 q 146 728 121 703 q 205 753 170 753 m 157 -289 l 157 484 l 255 484 l 255 -289 l 157 -289 z "},"¬":{"ha":842,"x_min":78,"x_max":764,"o":"m 764 694 l 764 303 l 671 303 l 671 602 l 78 602 l 78 694 l 764 694 z "},"√":{"ha":762,"x_min":55,"x_max":760,"o":"m 710 1267 l 760 1267 l 549 -53 l 212 640 l 78 578 l 55 621 l 259 724 l 534 165 l 710 1267 z "},"ƒ":{"ha":770,"x_min":22,"x_max":639,"o":"m 421 598 l 578 598 l 566 515 l 408 515 l 336 34 q 286 -163 316 -99 q 211 -258 255 -228 q 118 -289 166 -289 q 22 -256 72 -289 l 34 -172 q 109 -202 71 -202 q 192 -153 157 -202 q 249 48 227 -103 l 317 515 l 222 515 l 233 598 l 329 598 l 362 814 q 406 977 381 939 q 519 1042 451 1042 q 639 998 575 1042 l 627 907 q 532 957 574 957 q 481 926 499 957 q 450 798 463 895 l 421 598 z "},"≈":{"ha":762,"x_min":37,"x_max":726,"o":"m 726 694 l 726 584 q 617 530 650 541 q 555 519 584 519 q 375 571 490 519 q 261 620 286 612 q 214 627 236 627 q 149 614 184 627 q 37 556 113 602 l 37 665 q 144 719 111 707 q 209 730 178 730 q 391 675 275 730 q 500 628 471 637 q 553 618 530 618 q 611 630 582 618 q 726 694 640 641 m 726 441 l 726 332 q 617 278 650 289 q 555 267 584 267 q 375 319 490 267 q 261 367 286 359 q 214 375 236 375 q 149 362 184 375 q 37 304 113 349 l 37 412 q 144 466 111 454 q 209 477 178 477 q 391 422 275 477 q 500 375 471 385 q 553 366 530 366 q 611 377 582 366 q 726 441 640 389 z "},"∆":{"ha":850,"x_min":18,"x_max":831,"o":"m 831 0 l 18 0 l 444 941 l 831 0 m 671 56 l 401 711 l 102 56 l 671 56 z "},"«":{"ha":590,"x_min":14,"x_max":576,"o":"m 265 738 l 114 368 l 265 0 l 165 0 l 14 368 l 165 738 l 265 738 m 576 738 l 424 368 l 576 0 l 475 0 l 325 368 l 475 738 l 576 738 z "},"»":{"ha":590,"x_min":14,"x_max":576,"o":"m 325 0 l 476 370 l 325 738 l 425 738 l 576 370 l 425 0 l 325 0 m 14 0 l 165 370 l 14 738 l 115 738 l 265 370 l 115 0 l 14 0 z "},"…":{"ha":1389,"x_min":148,"x_max":1241,"o":"m 694 149 q 753 125 729 149 q 778 65 778 100 q 753 6 778 31 q 694 -19 729 -19 q 635 6 660 -19 q 611 65 611 31 q 635 125 611 100 q 694 149 660 149 m 231 149 q 290 125 266 149 q 315 65 315 100 q 290 6 315 31 q 231 -19 266 -19 q 172 6 197 -19 q 148 65 148 31 q 172 125 148 100 q 231 149 197 149 m 1158 149 q 1216 125 1192 149 q 1241 65 1241 100 q 1216 6 1241 31 q 1158 -19 1192 -19 q 1099 6 1123 -19 q 1074 65 1074 31 q 1099 125 1074 100 q 1158 149 1123 149 z "}," ":{"ha":389,"x_min":0,"x_max":0,"o":""},"À":{"ha":1027,"x_min":33,"x_max":994,"o":"m 529 998 l 994 0 l 887 0 l 730 328 l 300 328 l 144 0 l 33 0 l 505 998 l 529 998 m 517 786 l 345 425 l 686 425 l 517 786 m 473 1285 l 621 1076 l 527 1076 l 327 1285 l 473 1285 z "},"Ã":{"ha":1027,"x_min":33,"x_max":994,"o":"m 529 998 l 994 0 l 887 0 l 730 328 l 300 328 l 144 0 l 33 0 l 505 998 l 529 998 m 517 786 l 345 425 l 686 425 l 517 786 m 715 1213 l 762 1147 q 680 1100 713 1112 q 609 1088 646 1088 q 509 1113 560 1088 q 452 1138 465 1135 q 417 1143 436 1143 q 372 1134 393 1143 q 310 1096 351 1126 l 265 1165 q 418 1231 327 1231 q 522 1204 461 1231 q 612 1177 579 1177 q 715 1213 650 1177 z "},"Õ":{"ha":1207,"x_min":78,"x_max":1128,"o":"m 597 1023 q 976 871 823 1023 q 1128 499 1128 720 q 976 127 1128 280 q 605 -25 824 -25 q 231 127 383 -25 q 78 494 78 279 q 148 761 78 638 q 337 953 217 884 q 597 1023 457 1023 m 602 925 q 392 867 491 925 q 237 712 293 810 q 182 494 182 614 q 305 194 182 317 q 602 72 428 72 q 816 128 718 72 q 970 282 915 184 q 1025 499 1025 380 q 970 714 1025 618 q 814 867 915 810 q 602 925 714 925 m 804 1213 l 852 1147 q 769 1100 803 1112 q 699 1088 736 1088 q 598 1113 650 1088 q 542 1138 554 1135 q 507 1143 526 1143 q 461 1134 483 1143 q 399 1096 440 1126 l 355 1165 q 507 1231 416 1231 q 611 1204 551 1231 q 702 1177 669 1177 q 804 1213 739 1177 z "},"Œ":{"ha":1658,"x_min":77,"x_max":1600,"o":"m 1032 998 l 1600 998 l 1600 899 l 1133 899 l 1133 589 l 1600 589 l 1600 491 l 1133 491 l 1133 98 l 1600 98 l 1600 0 l 1032 0 l 1032 193 q 905 64 965 108 q 770 -2 844 21 q 606 -25 695 -25 q 201 160 356 -25 q 77 494 77 307 q 147 758 77 635 q 342 952 216 882 q 608 1023 467 1023 q 864 953 742 1023 q 1032 804 961 897 l 1032 998 m 604 926 q 311 800 437 926 q 185 502 185 673 q 309 197 185 322 q 612 72 433 72 q 908 197 785 72 q 1031 500 1031 322 q 975 713 1031 616 q 817 868 918 810 q 604 926 715 926 z "},"œ":{"ha":1579,"x_min":76,"x_max":1502,"o":"m 1501 360 l 840 360 q 934 139 849 209 q 1128 68 1019 68 q 1287 114 1216 68 q 1398 245 1358 159 l 1478 203 q 1328 34 1415 86 q 1122 -19 1242 -19 q 994 2 1055 -19 q 889 56 932 22 q 791 168 846 90 q 646 28 729 75 q 459 -19 563 -19 q 188 95 300 -19 q 76 373 76 209 q 216 669 76 556 q 460 757 323 757 q 663 697 570 757 q 791 562 730 654 q 911 694 848 652 q 1124 757 1004 757 q 1392 647 1282 757 q 1502 385 1502 538 l 1501 360 m 456 665 q 314 626 380 665 q 209 517 248 587 q 170 368 170 446 q 209 218 170 288 q 317 109 247 149 q 462 68 387 68 q 604 108 536 68 q 709 215 672 148 q 745 364 745 281 q 661 578 745 492 q 456 665 577 665 m 1398 441 q 1297 607 1370 549 q 1124 665 1223 665 q 938 597 1018 665 q 848 441 876 545 l 1398 441 z "},"–":{"ha":694,"x_min":-8,"x_max":703,"o":"m -8 432 l 703 432 l 703 345 l -8 345 l -8 432 z "},"—":{"ha":1389,"x_min":-8,"x_max":1397,"o":"m -8 432 l 1397 432 l 1397 345 l -8 345 l -8 432 z "},"“":{"ha":697,"x_min":138,"x_max":563,"o":"m 196 1023 l 249 993 q 214 912 223 941 q 201 837 205 883 l 261 837 l 261 650 l 138 650 l 138 767 q 150 904 138 854 q 196 1023 162 954 m 498 1023 l 551 993 q 516 912 525 941 q 503 837 507 883 l 563 837 l 563 650 l 440 650 l 440 767 q 452 904 440 854 q 498 1023 463 954 z "},"”":{"ha":672,"x_min":123,"x_max":547,"o":"m 489 650 l 437 680 q 471 761 463 732 q 484 836 480 790 l 425 836 l 425 1023 l 547 1023 l 547 906 q 535 769 547 819 q 489 650 524 719 m 187 650 l 135 680 q 170 761 161 732 q 182 836 178 790 l 123 836 l 123 1023 l 245 1023 l 245 906 q 234 769 245 819 q 187 650 222 719 z "},"‘":{"ha":488,"x_min":194,"x_max":317,"o":"m 252 1023 l 304 993 q 270 912 279 941 q 256 837 261 883 l 317 837 l 317 650 l 194 650 l 194 767 q 206 904 194 854 q 252 1023 218 954 z "},"’":{"ha":488,"x_min":171,"x_max":294,"o":"m 235 650 l 183 680 q 218 761 209 732 q 231 836 227 790 l 171 836 l 171 1023 l 294 1023 l 294 906 q 282 769 294 819 q 235 650 270 719 z "},"÷":{"ha":762,"x_min":38,"x_max":724,"o":"m 313 819 l 449 819 l 449 682 l 313 682 l 313 819 m 38 545 l 724 545 l 724 452 l 38 452 l 38 545 m 313 316 l 449 316 l 449 177 l 313 177 l 313 316 z "},"◊":{"ha":686,"x_min":32,"x_max":656,"o":"m 372 964 l 656 481 l 372 0 l 297 0 l 32 481 l 297 964 l 372 964 m 336 899 l 105 481 l 336 64 l 579 481 l 336 899 z "},"ÿ":{"ha":745,"x_min":26,"x_max":728,"o":"m 26 738 l 127 738 l 380 170 l 627 738 l 728 738 l 288 -270 l 187 -270 l 330 56 l 26 738 m 241 1029 q 296 1006 273 1029 q 319 951 319 983 q 296 895 319 918 q 241 872 273 872 q 185 895 208 872 q 162 951 162 918 q 185 1006 162 983 q 241 1029 208 1029 m 517 1029 q 573 1006 550 1029 q 596 951 596 983 q 573 895 596 918 q 517 872 550 872 q 462 895 485 872 q 439 951 439 918 q 462 1006 439 983 q 517 1029 485 1029 z "},"Ÿ":{"ha":822,"x_min":43,"x_max":779,"o":"m 43 998 l 158 998 l 413 587 l 664 998 l 779 998 l 463 477 l 463 0 l 365 0 l 365 477 l 43 998 m 273 1232 q 328 1208 305 1232 q 351 1153 351 1185 q 328 1097 351 1120 q 273 1074 305 1074 q 217 1097 240 1074 q 194 1153 194 1120 q 217 1208 194 1185 q 273 1232 240 1232 m 549 1232 q 605 1208 582 1232 q 628 1153 628 1185 q 605 1097 628 1120 q 549 1074 582 1074 q 494 1097 517 1074 q 471 1153 471 1120 q 494 1208 471 1185 q 549 1232 517 1232 z "},"⁄":{"ha":231,"x_min":-235,"x_max":467,"o":"m -235 -25 l 391 1023 l 467 1023 l -161 -25 l -235 -25 z "},"¤":{"ha":770,"x_min":28,"x_max":743,"o":"m 28 130 l 107 208 q 50 312 66 263 q 34 416 34 360 q 53 532 34 477 q 109 627 67 575 l 28 707 l 89 768 l 170 688 q 276 746 222 728 q 388 764 331 764 q 494 747 443 764 q 600 692 545 731 l 679 768 l 739 707 l 660 631 q 721 527 703 577 q 738 417 738 477 q 721 310 738 359 q 664 208 705 260 l 743 130 l 682 69 l 604 147 q 497 87 550 105 q 386 69 445 69 q 276 87 328 69 q 168 147 224 104 l 89 69 l 28 130 m 131 415 q 206 237 131 311 q 386 163 281 163 q 566 237 492 163 q 641 417 641 312 q 567 596 641 522 q 387 671 492 671 q 206 596 281 671 q 131 415 131 521 z "},"‹":{"ha":349,"x_min":51,"x_max":302,"o":"m 302 738 l 151 368 l 302 0 l 201 0 l 51 368 l 201 738 l 302 738 z "},"›":{"ha":349,"x_min":47,"x_max":298,"o":"m 47 0 l 199 370 l 47 738 l 148 738 l 298 370 l 148 0 l 47 0 z "},"":{"ha":676,"x_min":57,"x_max":582,"o":"m 582 857 l 486 857 q 372 951 466 951 q 302 932 330 951 q 262 883 274 913 q 250 770 250 852 l 250 738 l 403 738 l 403 654 l 250 654 l 250 0 l 153 0 l 153 654 l 57 654 l 57 738 l 153 738 l 153 770 q 177 928 153 877 q 252 1010 201 979 q 374 1042 302 1042 q 520 990 463 1042 q 582 857 576 939 m 486 738 l 582 738 l 582 0 l 486 0 l 486 738 z "},"":{"ha":673,"x_min":62,"x_max":587,"o":"m 409 738 l 409 654 l 257 654 l 257 0 l 159 0 l 159 654 l 62 654 l 62 738 l 159 738 l 159 762 q 182 927 159 877 q 256 1009 205 977 q 374 1042 307 1042 q 493 1008 442 1042 q 566 926 545 975 q 587 751 587 876 l 587 0 l 490 0 l 490 756 q 479 882 490 850 q 440 934 469 914 q 373 954 411 954 q 306 933 335 954 q 265 875 277 912 q 257 738 257 848 l 409 738 z "},"‡":{"ha":768,"x_min":108,"x_max":661,"o":"m 334 1023 l 433 1023 l 418 783 l 661 798 l 661 698 l 418 716 l 433 405 l 418 98 l 661 112 l 661 12 l 418 31 l 433 -213 l 334 -213 l 350 31 l 108 12 l 108 112 l 350 98 l 334 405 l 350 716 l 108 698 l 108 798 l 350 783 l 334 1023 z "},"∙":{"ha":385,"x_min":109,"x_max":276,"o":"m 193 583 q 252 558 227 583 q 276 498 276 534 q 252 439 276 464 q 193 414 227 414 q 134 439 158 414 q 109 498 109 464 q 134 558 109 534 q 193 583 158 583 z "},"‚":{"ha":492,"x_min":173,"x_max":296,"o":"m 237 -186 l 185 -157 q 220 -76 211 -105 q 233 0 229 -46 l 173 0 l 173 186 l 296 186 l 296 70 q 284 -67 296 -18 q 237 -186 272 -117 z "},"„":{"ha":697,"x_min":134,"x_max":559,"o":"m 500 -186 l 448 -156 q 483 -75 474 -104 q 496 0 492 -46 l 436 0 l 436 186 l 559 186 l 559 70 q 547 -67 559 -18 q 500 -186 535 -117 m 199 -186 l 146 -156 q 181 -75 172 -104 q 194 0 190 -46 l 134 0 l 134 186 l 257 186 l 257 70 q 245 -67 257 -18 q 199 -186 233 -117 z "},"‰":{"ha":1630,"x_min":33,"x_max":1588,"o":"m 939 1042 l 212 -69 l 122 -69 l 783 943 q 497 914 666 914 l 460 915 q 503 791 503 857 q 438 625 503 699 q 266 552 373 552 q 100 620 168 552 q 33 786 33 688 q 64 904 33 851 q 151 990 94 958 q 266 1023 207 1023 q 349 1010 291 1023 q 540 991 437 991 q 683 1001 616 991 q 859 1042 751 1011 l 939 1042 m 268 937 q 163 893 206 937 q 119 787 119 849 q 163 682 119 726 q 268 639 206 639 q 373 682 330 639 q 417 787 417 726 q 373 893 417 849 q 268 937 330 937 m 812 440 q 978 371 909 440 q 1047 205 1047 302 q 978 40 1047 109 q 812 -29 909 -29 q 647 40 715 -29 q 578 205 578 109 q 647 371 578 302 q 812 440 715 440 m 812 354 q 707 311 751 354 q 664 205 664 267 q 707 100 664 144 q 812 57 751 57 q 918 100 874 57 q 962 205 962 144 q 918 311 962 267 q 812 354 874 354 m 1354 440 q 1519 371 1451 440 q 1588 205 1588 302 q 1519 40 1588 109 q 1354 -29 1451 -29 q 1187 40 1256 -29 q 1119 205 1119 109 q 1187 371 1119 302 q 1354 440 1256 440 m 1354 354 q 1248 311 1292 354 q 1204 205 1204 267 q 1248 100 1204 144 q 1354 57 1292 57 q 1459 100 1415 57 q 1502 205 1502 144 q 1459 311 1502 267 q 1354 354 1415 354 z "},"Â":{"ha":1027,"x_min":33,"x_max":994,"o":"m 529 998 l 994 0 l 887 0 l 730 328 l 300 328 l 144 0 l 33 0 l 505 998 l 529 998 m 517 786 l 345 425 l 686 425 l 517 786 m 469 1248 l 563 1248 l 760 1074 l 637 1074 l 518 1177 l 393 1074 l 267 1074 l 469 1248 z "},"Ê":{"ha":745,"x_min":122,"x_max":694,"o":"m 122 998 l 694 998 l 694 899 l 222 899 l 222 587 l 690 587 l 690 490 l 222 490 l 222 98 l 690 98 l 690 0 l 122 0 l 122 998 m 368 1248 l 463 1248 l 659 1074 l 537 1074 l 418 1177 l 293 1074 l 167 1074 l 368 1248 z "},"Á":{"ha":1027,"x_min":33,"x_max":994,"o":"m 529 998 l 994 0 l 887 0 l 730 328 l 300 328 l 144 0 l 33 0 l 505 998 l 529 998 m 517 786 l 345 425 l 686 425 l 517 786 m 559 1285 l 705 1285 l 505 1076 l 412 1076 l 559 1285 z "},"Ë":{"ha":745,"x_min":122,"x_max":694,"o":"m 122 998 l 694 998 l 694 899 l 222 899 l 222 587 l 690 587 l 690 490 l 222 490 l 222 98 l 690 98 l 690 0 l 122 0 l 122 998 m 275 1232 q 331 1208 308 1232 q 354 1153 354 1185 q 331 1097 354 1120 q 275 1074 308 1074 q 220 1097 243 1074 q 197 1153 197 1120 q 220 1208 197 1185 q 275 1232 243 1232 m 552 1232 q 608 1208 585 1232 q 631 1153 631 1185 q 608 1097 631 1120 q 552 1074 585 1074 q 496 1097 519 1074 q 473 1153 473 1120 q 496 1208 473 1185 q 552 1232 519 1232 z "},"È":{"ha":745,"x_min":122,"x_max":694,"o":"m 122 998 l 694 998 l 694 899 l 222 899 l 222 587 l 690 587 l 690 490 l 222 490 l 222 98 l 690 98 l 690 0 l 122 0 l 122 998 m 372 1285 l 520 1076 l 427 1076 l 227 1285 l 372 1285 z "},"Í":{"ha":314,"x_min":55,"x_max":349,"o":"m 107 998 l 207 998 l 207 0 l 107 0 l 107 998 m 203 1285 l 349 1285 l 149 1076 l 55 1076 l 203 1285 z "},"Î":{"ha":314,"x_min":-90,"x_max":403,"o":"m 107 998 l 207 998 l 207 0 l 107 0 l 107 998 m 112 1248 l 206 1248 l 403 1074 l 281 1074 l 161 1177 l 37 1074 l -90 1074 l 112 1248 z "},"Ï":{"ha":314,"x_min":-60,"x_max":374,"o":"m 107 998 l 207 998 l 207 0 l 107 0 l 107 998 m 19 1232 q 75 1208 52 1232 q 98 1153 98 1185 q 75 1097 98 1120 q 19 1074 52 1074 q -37 1097 -14 1074 q -60 1153 -60 1120 q -37 1208 -60 1185 q 19 1232 -14 1232 m 296 1232 q 351 1208 328 1232 q 374 1153 374 1185 q 351 1097 374 1120 q 296 1074 328 1074 q 240 1097 263 1074 q 217 1153 217 1120 q 240 1208 217 1185 q 296 1232 263 1232 z "},"Ì":{"ha":314,"x_min":-30,"x_max":264,"o":"m 107 998 l 207 998 l 207 0 l 107 0 l 107 998 m 116 1285 l 264 1076 l 170 1076 l -30 1285 l 116 1285 z "},"Ó":{"ha":1207,"x_min":78,"x_max":1128,"o":"m 597 1023 q 976 871 823 1023 q 1128 499 1128 720 q 976 127 1128 280 q 605 -25 824 -25 q 231 127 383 -25 q 78 494 78 279 q 148 761 78 638 q 337 953 217 884 q 597 1023 457 1023 m 602 925 q 392 867 491 925 q 237 712 293 810 q 182 494 182 614 q 305 194 182 317 q 602 72 428 72 q 816 128 718 72 q 970 282 915 184 q 1025 499 1025 380 q 970 714 1025 618 q 814 867 915 810 q 602 925 714 925 m 650 1285 l 795 1285 l 595 1076 l 502 1076 l 650 1285 z "},"Ô":{"ha":1207,"x_min":78,"x_max":1128,"o":"m 597 1023 q 976 871 823 1023 q 1128 499 1128 720 q 976 127 1128 280 q 605 -25 824 -25 q 231 127 383 -25 q 78 494 78 279 q 148 761 78 638 q 337 953 217 884 q 597 1023 457 1023 m 602 925 q 392 867 491 925 q 237 712 293 810 q 182 494 182 614 q 305 194 182 317 q 602 72 428 72 q 816 128 718 72 q 970 282 915 184 q 1025 499 1025 380 q 970 714 1025 618 q 814 867 915 810 q 602 925 714 925 m 559 1248 l 653 1248 l 850 1074 l 728 1074 l 608 1177 l 484 1074 l 357 1074 l 559 1248 z "},"":{"ha":1097,"x_min":0,"x_max":0,"o":""},"Ò":{"ha":1207,"x_min":78,"x_max":1128,"o":"m 597 1023 q 976 871 823 1023 q 1128 499 1128 720 q 976 127 1128 280 q 605 -25 824 -25 q 231 127 383 -25 q 78 494 78 279 q 148 761 78 638 q 337 953 217 884 q 597 1023 457 1023 m 602 925 q 392 867 491 925 q 237 712 293 810 q 182 494 182 614 q 305 194 182 317 q 602 72 428 72 q 816 128 718 72 q 970 282 915 184 q 1025 499 1025 380 q 970 714 1025 618 q 814 867 915 810 q 602 925 714 925 m 562 1285 l 710 1076 l 616 1076 l 416 1285 l 562 1285 z "},"Ú":{"ha":909,"x_min":125,"x_max":785,"o":"m 125 998 l 224 998 l 224 395 q 229 262 224 288 q 263 163 236 203 q 347 97 290 123 q 460 70 403 70 q 555 91 509 70 q 631 149 600 112 q 675 239 661 186 q 686 395 686 277 l 686 998 l 785 998 l 785 395 q 759 179 785 262 q 655 36 733 97 q 465 -25 576 -25 q 258 33 345 -25 q 143 185 172 90 q 125 395 125 243 l 125 998 m 501 1285 l 647 1285 l 447 1076 l 353 1076 l 501 1285 z "},"Û":{"ha":909,"x_min":125,"x_max":785,"o":"m 125 998 l 224 998 l 224 395 q 229 262 224 288 q 263 163 236 203 q 347 97 290 123 q 460 70 403 70 q 555 91 509 70 q 631 149 600 112 q 675 239 661 186 q 686 395 686 277 l 686 998 l 785 998 l 785 395 q 759 179 785 262 q 655 36 733 97 q 465 -25 576 -25 q 258 33 345 -25 q 143 185 172 90 q 125 395 125 243 l 125 998 m 410 1248 l 505 1248 l 701 1074 l 579 1074 l 460 1177 l 335 1074 l 209 1074 l 410 1248 z "},"Ù":{"ha":909,"x_min":125,"x_max":785,"o":"m 125 998 l 224 998 l 224 395 q 229 262 224 288 q 263 163 236 203 q 347 97 290 123 q 460 70 403 70 q 555 91 509 70 q 631 149 600 112 q 675 239 661 186 q 686 395 686 277 l 686 998 l 785 998 l 785 395 q 759 179 785 262 q 655 36 733 97 q 465 -25 576 -25 q 258 33 345 -25 q 143 185 172 90 q 125 395 125 243 l 125 998 m 414 1285 l 562 1076 l 468 1076 l 268 1285 l 414 1285 z "},"ı":{"ha":278,"x_min":92,"x_max":187,"o":"m 92 738 l 187 738 l 187 0 l 92 0 l 92 738 z "},"ˆ":{"ha":697,"x_min":102,"x_max":595,"o":"m 304 1046 l 398 1046 l 595 871 l 473 871 l 353 975 l 229 871 l 102 871 l 304 1046 z "},"˜":{"ha":610,"x_min":56,"x_max":553,"o":"m 506 1012 l 553 946 q 471 899 505 911 q 400 886 437 886 q 300 911 351 886 q 243 937 256 933 q 208 941 227 941 q 163 933 184 941 q 101 895 142 924 l 56 964 q 209 1029 118 1029 q 313 1002 252 1029 q 404 976 370 976 q 506 1012 441 976 z "},"ˉ":{"ha":673,"x_min":103,"x_max":571,"o":"m 103 1003 l 571 1003 l 571 922 l 103 922 l 103 1003 z "},"˘":{"ha":629,"x_min":75,"x_max":555,"o":"m 75 1034 l 164 1034 q 226 981 187 999 q 318 964 264 964 q 406 979 372 964 q 469 1034 439 995 l 555 1034 q 479 932 541 973 q 317 891 418 891 q 155 931 218 891 q 75 1034 92 972 z "},"˙":{"ha":309,"x_min":76,"x_max":233,"o":"m 155 1029 q 210 1006 187 1029 q 233 951 233 983 q 210 895 233 918 q 155 872 187 872 q 99 895 122 872 q 76 951 76 918 q 99 1006 76 983 q 155 1029 122 1029 z "},"˚":{"ha":461,"x_min":86,"x_max":375,"o":"m 231 1147 q 333 1104 290 1147 q 375 1002 375 1062 q 333 900 375 942 q 231 857 291 857 q 129 900 171 857 q 86 1002 86 942 q 129 1104 86 1062 q 231 1147 171 1147 m 230 1078 q 177 1056 199 1078 q 155 1004 155 1034 q 177 951 155 973 q 230 929 199 929 q 282 951 260 929 q 304 1004 304 973 q 282 1056 304 1034 q 230 1078 260 1078 z "},"¸":{"ha":450,"x_min":94,"x_max":363,"o":"m 211 0 l 271 0 l 259 -80 q 285 -78 275 -78 q 340 -99 318 -78 q 363 -151 363 -119 q 322 -227 363 -195 q 208 -258 281 -258 q 94 -237 147 -258 l 109 -191 q 191 -204 153 -204 q 262 -192 241 -204 q 282 -160 282 -179 q 271 -140 282 -149 q 240 -131 260 -131 q 193 -137 224 -131 l 211 0 z "},"˝":{"ha":766,"x_min":174,"x_max":682,"o":"m 322 1084 l 468 1084 l 268 875 l 174 875 l 322 1084 m 536 1084 l 682 1084 l 482 875 l 389 875 l 536 1084 z "},"˛":{"ha":419,"x_min":129,"x_max":347,"o":"m 210 0 l 283 0 q 201 -131 201 -70 q 227 -184 201 -162 q 300 -205 252 -205 q 347 -202 320 -205 l 341 -260 q 283 -267 313 -267 q 169 -231 208 -267 q 129 -144 129 -195 q 210 0 129 -56 z "},"ˇ":{"ha":697,"x_min":102,"x_max":595,"o":"m 393 871 l 299 871 l 102 1046 l 224 1046 l 345 943 l 469 1046 l 595 1046 l 393 871 z "},"Ł":{"ha":718,"x_min":60,"x_max":681,"o":"m 297 581 l 477 731 l 477 613 l 297 463 l 297 96 l 681 96 l 681 0 l 197 0 l 197 379 l 60 265 l 60 384 l 197 498 l 197 998 l 297 998 l 297 581 z "},"ł":{"ha":416,"x_min":36,"x_max":391,"o":"m 256 659 l 391 746 l 391 651 l 256 564 l 256 0 l 161 0 l 161 503 l 36 422 l 36 517 l 161 597 l 161 1023 l 256 1023 l 256 659 z "},"Š":{"ha":692,"x_min":18,"x_max":602,"o":"m 18 186 l 103 237 q 310 72 193 72 q 404 95 360 72 q 471 158 448 119 q 494 241 494 197 q 460 340 494 292 q 290 500 414 406 q 134 636 165 594 q 81 789 81 707 q 113 907 81 854 q 200 992 144 961 q 323 1023 257 1023 q 455 988 394 1023 q 585 859 517 953 l 504 798 q 408 896 448 872 q 321 920 368 920 q 223 883 261 920 q 184 793 184 846 q 198 730 184 760 q 248 663 212 699 q 376 564 267 644 q 554 393 506 468 q 602 243 602 319 q 520 55 602 135 q 319 -25 437 -25 q 155 23 229 -25 q 18 186 81 72 m 391 1074 l 296 1074 l 100 1248 l 222 1248 l 342 1145 l 466 1248 l 592 1248 l 391 1074 z "},"š":{"ha":539,"x_min":23,"x_max":515,"o":"m 477 657 l 416 594 q 267 668 340 668 q 188 637 221 668 q 155 566 155 607 q 182 498 155 530 q 296 420 210 465 q 440 314 402 365 q 477 198 477 262 q 414 44 477 107 q 254 -19 350 -19 q 133 9 191 -19 q 37 85 75 37 l 96 153 q 250 71 169 71 q 347 108 307 71 q 387 194 387 144 q 361 267 387 235 q 241 345 334 298 q 106 447 142 397 q 70 562 70 497 q 127 701 70 646 q 272 757 184 757 q 477 657 374 757 m 314 871 l 220 871 l 23 1046 l 145 1046 l 265 943 l 389 1046 l 515 1046 l 314 871 z "},"Ž":{"ha":667,"x_min":38,"x_max":609,"o":"m 83 901 l 83 998 l 609 998 l 192 97 l 588 97 l 588 0 l 38 0 l 458 901 l 83 901 m 378 1074 l 284 1074 l 87 1248 l 210 1248 l 330 1145 l 454 1248 l 580 1248 l 378 1074 z "},"ž":{"ha":590,"x_min":6,"x_max":587,"o":"m 45 738 l 587 738 l 170 84 l 574 84 l 574 0 l 6 0 l 424 654 l 45 654 l 45 738 m 340 871 l 245 871 l 49 1046 l 171 1046 l 291 943 l 415 1046 l 541 1046 l 340 871 z "},"¦":{"ha":933,"x_min":418,"x_max":515,"o":"m 418 465 l 418 1023 l 515 1023 l 515 503 l 418 465 m 418 -270 l 418 379 l 515 416 l 515 -270 l 418 -270 z "},"Ð":{"ha":1097,"x_min":23,"x_max":1025,"o":"m 144 452 l 23 452 l 23 545 l 144 545 l 144 998 l 393 998 q 718 962 616 998 q 944 785 862 911 q 1025 486 1025 660 q 961 222 1025 336 q 792 54 896 109 q 503 0 689 0 l 144 0 l 144 452 m 240 452 l 240 94 l 396 94 q 683 120 603 94 q 860 252 795 157 q 925 485 925 347 q 855 732 925 629 q 660 872 785 834 q 351 901 566 901 l 240 901 l 240 545 l 503 545 l 503 452 l 240 452 z "},"ð":{"ha":909,"x_min":71,"x_max":840,"o":"m 292 1023 l 425 1023 q 494 970 460 998 l 606 1016 l 641 943 l 562 911 q 774 636 709 770 q 840 385 840 502 q 790 178 840 272 q 650 33 739 85 q 452 -19 560 -19 q 183 94 294 -19 q 71 371 71 208 q 181 645 71 532 q 443 757 292 757 q 613 713 522 757 q 469 872 549 799 l 321 811 l 286 883 l 404 932 q 292 1023 339 987 m 461 666 q 271 600 355 666 q 167 373 167 517 q 251 158 167 245 q 455 72 336 72 q 600 111 532 72 q 705 218 667 150 q 743 372 743 287 q 706 524 743 456 q 605 629 670 592 q 461 666 539 666 z "},"Ý":{"ha":822,"x_min":43,"x_max":779,"o":"m 43 998 l 158 998 l 413 587 l 664 998 l 779 998 l 463 477 l 463 0 l 365 0 l 365 477 l 43 998 m 457 1285 l 603 1285 l 403 1076 l 309 1076 l 457 1285 z "},"ý":{"ha":745,"x_min":26,"x_max":728,"o":"m 26 738 l 127 738 l 380 170 l 627 738 l 728 738 l 288 -270 l 187 -270 l 330 56 l 26 738 m 418 1084 l 564 1084 l 364 875 l 271 875 l 418 1084 z "},"Þ":{"ha":822,"x_min":121,"x_max":744,"o":"m 121 998 l 220 998 l 220 764 l 319 764 q 549 749 490 764 q 689 663 635 728 q 744 498 744 597 q 691 335 744 399 q 545 247 638 270 q 292 231 477 231 l 220 231 l 220 0 l 121 0 l 121 998 m 220 667 l 220 328 l 389 326 q 539 345 492 326 q 614 406 587 364 q 641 498 641 447 q 614 591 641 549 q 542 650 587 632 q 397 667 498 667 l 220 667 z "},"þ":{"ha":947,"x_min":107,"x_max":876,"o":"m 107 1023 l 201 1023 l 201 602 q 331 718 258 680 q 494 757 404 757 q 764 644 652 757 q 876 371 876 530 q 765 95 876 208 q 497 -19 654 -19 q 335 18 409 -19 q 201 127 261 54 l 201 -270 l 107 -270 l 107 1023 m 487 665 q 279 579 363 665 q 195 365 195 493 q 232 214 195 281 q 340 107 270 146 q 488 68 410 68 q 632 107 565 68 q 740 218 700 147 q 780 368 780 290 q 740 517 780 446 q 633 626 701 587 q 487 665 566 665 z "},"−":{"ha":842,"x_min":78,"x_max":764,"o":"m 78 545 l 764 545 l 764 452 l 78 452 l 78 545 z "},"×":{"ha":842,"x_min":134,"x_max":708,"o":"m 483 498 l 708 274 l 646 212 l 421 436 l 196 212 l 134 274 l 358 498 l 134 724 l 196 786 l 421 561 l 646 786 l 708 724 l 483 498 z "},"¹":{"ha":461,"x_min":102,"x_max":279,"o":"m 152 1010 l 279 1010 l 279 497 l 204 497 l 204 943 l 102 943 l 152 1010 z "},"²":{"ha":461,"x_min":4,"x_max":435,"o":"m 105 837 l 33 837 q 91 970 35 918 q 238 1023 148 1023 q 375 976 322 1023 q 428 865 428 930 q 406 787 428 825 q 309 681 383 749 l 180 564 l 435 564 l 435 497 l 4 497 l 247 718 q 336 810 319 783 q 354 864 354 838 q 320 928 354 901 q 235 956 287 956 q 144 925 178 956 q 105 837 110 894 z "},"³":{"ha":478,"x_min":30,"x_max":442,"o":"m 125 877 l 49 877 q 115 986 67 949 q 232 1023 162 1023 q 360 982 311 1023 q 410 885 410 941 q 349 786 410 826 q 418 729 394 764 q 442 654 442 694 q 385 535 442 586 q 234 485 328 485 q 97 527 149 485 q 30 648 45 568 l 104 648 q 150 575 117 599 q 234 552 182 552 q 331 582 295 552 q 368 650 368 611 q 327 720 368 695 q 195 749 286 745 l 195 812 q 298 834 264 812 q 332 886 332 857 q 305 934 332 913 q 232 956 277 956 q 170 938 195 956 q 125 877 144 920 z "},"½":{"ha":1154,"x_min":71,"x_max":1068,"o":"m 120 1010 l 247 1010 l 247 497 l 172 497 l 172 943 l 71 943 l 120 1010 m 188 -25 l 814 1023 l 890 1023 l 262 -25 l 188 -25 m 738 334 l 666 334 q 724 467 667 414 q 871 519 781 519 q 1008 473 955 519 q 1061 362 1061 427 q 1038 283 1061 321 q 941 178 1016 245 l 812 61 l 1068 61 l 1068 -6 l 637 -6 l 880 214 q 969 307 951 279 q 987 361 987 334 q 953 425 987 397 q 868 453 920 453 q 777 422 810 453 q 738 334 743 391 z "},"¼":{"ha":1154,"x_min":78,"x_max":1125,"o":"m 127 1010 l 254 1010 l 254 497 l 180 497 l 180 943 l 78 943 l 127 1010 m 263 -25 l 889 1023 l 965 1023 l 338 -25 l 263 -25 m 1054 533 l 1054 175 l 1125 175 l 1125 109 l 1054 109 l 1054 -6 l 979 -6 l 979 109 l 686 109 l 1054 533 m 979 175 l 979 343 l 833 175 l 979 175 z "},"¾":{"ha":1154,"x_min":47,"x_max":1120,"o":"m 142 877 l 66 877 q 132 986 84 949 q 249 1023 179 1023 q 377 982 328 1023 q 427 885 427 941 q 366 786 427 826 q 435 729 411 764 q 459 654 459 694 q 402 535 459 586 q 251 485 345 485 q 114 527 166 485 q 47 648 62 568 l 121 648 q 166 575 134 599 q 251 552 199 552 q 348 582 312 552 q 385 650 385 611 q 344 720 385 695 q 212 749 303 745 l 212 812 q 315 834 281 812 q 349 886 349 857 q 322 934 349 913 q 249 956 294 956 q 186 938 212 956 q 142 877 161 920 m 292 -25 l 918 1023 l 994 1023 l 367 -25 l 292 -25 m 1049 533 l 1049 175 l 1120 175 l 1120 109 l 1049 109 l 1049 -6 l 974 -6 l 974 109 l 681 109 l 1049 533 m 974 175 l 974 343 l 829 175 l 974 175 z "},"₣":{"ha":673,"x_min":0,"x_max":621,"o":"m 220 281 l 411 281 l 411 188 l 220 188 l 220 0 l 121 0 l 121 188 l 0 188 l 0 281 l 121 281 l 121 998 l 621 998 l 621 899 l 220 899 l 220 587 l 621 587 l 621 489 l 220 489 l 220 281 z "},"Ğ":{"ha":1211,"x_min":79,"x_max":1143,"o":"m 1084 830 l 1006 757 q 824 881 923 839 q 630 924 724 924 q 407 866 513 924 q 242 710 300 808 q 184 501 184 611 q 244 287 184 389 q 411 128 304 186 q 644 70 517 70 q 905 157 798 70 q 1031 382 1011 243 l 713 382 l 713 478 l 1143 478 q 1005 111 1141 247 q 642 -25 869 -25 q 203 163 365 -25 q 79 499 79 309 q 151 763 79 641 q 346 954 222 885 q 627 1023 470 1023 q 865 977 753 1023 q 1084 830 977 931 m 365 1233 l 454 1233 q 516 1180 477 1198 q 608 1162 555 1162 q 696 1178 663 1162 q 759 1233 729 1194 l 846 1233 q 769 1131 831 1172 q 608 1090 708 1090 q 445 1130 508 1090 q 365 1233 382 1171 z "},"ğ":{"ha":935,"x_min":68,"x_max":837,"o":"m 741 738 l 837 738 l 837 150 q 810 -77 837 -5 q 680 -234 772 -179 q 458 -289 588 -289 q 288 -262 363 -289 q 165 -190 212 -235 q 77 -58 117 -145 l 180 -58 q 289 -167 222 -132 q 454 -202 355 -202 q 617 -166 551 -202 q 713 -75 684 -130 q 741 102 741 -20 l 741 140 q 610 36 688 73 q 446 0 533 0 q 255 51 345 0 q 117 186 165 101 q 68 374 68 272 q 119 565 68 477 q 259 705 170 654 q 449 757 349 757 q 603 723 532 757 q 741 610 675 688 l 741 738 m 461 665 q 311 626 380 665 q 203 518 242 587 q 163 370 163 450 q 245 169 163 248 q 456 90 326 90 q 666 168 587 90 q 746 375 746 247 q 709 524 746 458 q 606 627 673 589 q 461 665 538 665 m 227 1034 l 317 1034 q 378 981 340 999 q 471 964 417 964 q 558 979 525 964 q 621 1034 591 995 l 708 1034 q 632 932 693 973 q 470 891 570 891 q 307 931 370 891 q 227 1034 244 972 z "},"İ":{"ha":314,"x_min":79,"x_max":236,"o":"m 107 998 l 207 998 l 207 0 l 107 0 l 107 998 m 157 1228 q 213 1205 190 1228 q 236 1149 236 1182 q 213 1094 236 1117 q 157 1071 190 1071 q 102 1094 125 1071 q 79 1149 79 1117 q 102 1205 79 1182 q 157 1228 125 1228 z "},"Ş":{"ha":692,"x_min":18,"x_max":602,"o":"m 18 186 l 103 237 q 310 72 193 72 q 404 95 360 72 q 471 158 448 119 q 494 241 494 197 q 460 340 494 292 q 290 500 414 406 q 134 636 165 594 q 81 789 81 707 q 113 907 81 854 q 200 992 144 961 q 323 1023 257 1023 q 455 988 394 1023 q 585 859 517 953 l 504 798 q 408 896 448 872 q 321 920 368 920 q 223 883 261 920 q 184 793 184 846 q 198 730 184 760 q 248 663 212 699 q 376 564 267 644 q 554 393 506 468 q 602 243 602 319 q 520 55 602 135 q 319 -25 437 -25 q 155 23 229 -25 q 18 186 81 72 m 291 0 l 351 0 l 339 -80 q 365 -78 355 -78 q 420 -99 398 -78 q 443 -151 443 -119 q 402 -227 443 -195 q 288 -258 361 -258 q 174 -237 227 -258 l 189 -191 q 271 -204 233 -204 q 342 -192 321 -204 q 362 -160 362 -179 q 351 -140 362 -149 q 320 -131 340 -131 q 273 -137 304 -131 l 291 0 z "},"ş":{"ha":539,"x_min":37,"x_max":477,"o":"m 477 657 l 416 594 q 267 668 340 668 q 188 637 221 668 q 155 566 155 607 q 182 498 155 530 q 296 420 210 465 q 440 314 402 365 q 477 198 477 262 q 414 44 477 107 q 254 -19 350 -19 q 133 9 191 -19 q 37 85 75 37 l 96 153 q 250 71 169 71 q 347 108 307 71 q 387 194 387 144 q 361 267 387 235 q 241 345 334 298 q 106 447 142 397 q 70 562 70 497 q 127 701 70 646 q 272 757 184 757 q 477 657 374 757 m 231 0 l 290 0 l 279 -80 q 304 -78 294 -78 q 360 -99 338 -78 q 382 -151 382 -119 q 342 -227 382 -195 q 227 -258 301 -258 q 114 -237 167 -258 l 129 -191 q 210 -204 172 -204 q 281 -192 261 -204 q 302 -160 302 -179 q 291 -140 302 -149 q 260 -131 279 -131 q 212 -137 243 -131 l 231 0 z "},"Ć":{"ha":1129,"x_min":75,"x_max":1050,"o":"m 1050 812 l 972 752 q 815 881 907 837 q 615 924 724 924 q 394 867 496 924 q 236 713 292 810 q 180 496 180 616 q 306 191 180 313 q 621 69 431 69 q 972 233 831 69 l 1050 174 q 864 27 976 79 q 615 -25 753 -25 q 202 149 353 -25 q 75 505 75 296 q 229 873 75 724 q 614 1023 382 1023 q 866 967 753 1023 q 1050 812 979 912 m 668 1282 l 814 1282 l 614 1074 l 520 1074 l 668 1282 z "},"ć":{"ha":899,"x_min":71,"x_max":822,"o":"m 822 585 l 747 538 q 480 667 649 667 q 256 581 345 667 q 167 370 167 494 q 208 218 167 289 q 320 107 249 146 q 481 68 392 68 q 747 197 644 68 l 822 148 q 680 25 769 68 q 477 -19 591 -19 q 186 92 302 -19 q 71 363 71 203 q 125 562 71 470 q 273 705 179 654 q 484 757 368 757 q 626 734 557 757 q 741 676 694 712 q 822 585 789 640 m 520 1084 l 666 1084 l 466 875 l 372 875 l 520 1084 z "},"Č":{"ha":1129,"x_min":75,"x_max":1050,"o":"m 1050 812 l 972 752 q 815 881 907 837 q 615 924 724 924 q 394 867 496 924 q 236 713 292 810 q 180 496 180 616 q 306 191 180 313 q 621 69 431 69 q 972 233 831 69 l 1050 174 q 864 27 976 79 q 615 -25 753 -25 q 202 149 353 -25 q 75 505 75 296 q 229 873 75 724 q 614 1023 382 1023 q 866 967 753 1023 q 1050 812 979 912 m 659 1070 l 564 1070 l 368 1244 l 490 1244 l 610 1141 l 734 1244 l 860 1244 l 659 1070 z "},"č":{"ha":899,"x_min":71,"x_max":822,"o":"m 822 585 l 747 538 q 480 667 649 667 q 256 581 345 667 q 167 370 167 494 q 208 218 167 289 q 320 107 249 146 q 481 68 392 68 q 747 197 644 68 l 822 148 q 680 25 769 68 q 477 -19 591 -19 q 186 92 302 -19 q 71 363 71 203 q 125 562 71 470 q 273 705 179 654 q 484 757 368 757 q 626 734 557 757 q 741 676 694 712 q 822 585 789 640 m 527 871 l 433 871 l 236 1046 l 358 1046 l 478 943 l 602 1046 l 728 1046 l 527 871 z "},"đ":{"ha":951,"x_min":74,"x_max":951,"o":"m 842 903 l 951 903 l 951 825 l 842 825 l 842 0 l 749 0 l 749 127 q 615 18 689 54 q 452 -19 541 -19 q 185 95 296 -19 q 74 371 74 208 q 186 644 74 530 q 455 757 298 757 q 620 718 546 757 q 749 602 693 680 l 749 825 l 541 825 l 541 903 l 749 903 l 749 1023 l 842 1023 l 842 903 m 463 665 q 316 626 383 665 q 209 517 249 587 q 170 368 170 446 q 210 218 170 290 q 317 107 250 147 q 462 68 385 68 q 610 107 540 68 q 717 214 680 146 q 755 365 755 281 q 670 579 755 493 q 463 665 586 665 z "},"¯":{"ha":694,"x_min":-8,"x_max":703,"o":"m -8 1171 l 703 1171 l 703 1101 l -8 1101 l -8 1171 z "},"·":{"ha":463,"x_min":330,"x_max":487,"o":"m 408 590 q 464 567 441 590 q 487 511 487 544 q 464 456 487 479 q 408 433 441 433 q 353 456 376 433 q 330 511 330 479 q 353 567 330 544 q 408 590 376 590 z "},"":{"ha":478,"x_min":13,"x_max":452,"o":"m 381 1036 l 381 678 l 452 678 l 452 612 l 381 612 l 381 497 l 306 497 l 306 612 l 13 612 l 381 1036 m 306 678 l 306 846 l 161 678 l 306 678 z "},"Ă":{"ha":1027,"x_min":33,"x_max":994,"o":"m 529 998 l 994 0 l 887 0 l 730 328 l 300 328 l 144 0 l 33 0 l 505 998 l 529 998 m 517 786 l 345 425 l 686 425 l 517 786 m 278 1236 l 368 1236 q 429 1183 391 1200 q 522 1165 468 1165 q 609 1181 576 1165 q 672 1236 642 1196 l 759 1236 q 683 1134 744 1175 q 521 1093 621 1093 q 358 1133 421 1093 q 278 1236 295 1173 z "},"ă":{"ha":949,"x_min":73,"x_max":841,"o":"m 841 738 l 841 0 l 747 0 l 747 127 q 613 18 688 54 q 451 -19 539 -19 q 183 95 294 -19 q 73 371 73 208 q 184 644 73 530 q 454 757 296 757 q 618 718 545 757 q 747 602 692 680 l 747 738 l 841 738 m 461 665 q 315 626 382 665 q 208 517 248 587 q 168 368 168 446 q 208 218 168 290 q 316 107 248 147 q 460 68 383 68 q 608 107 538 68 q 716 214 678 146 q 753 365 753 281 q 669 579 753 493 q 461 665 585 665 m 210 1034 l 300 1034 q 361 981 323 999 q 454 964 400 964 q 541 979 508 964 q 604 1034 574 995 l 691 1034 q 615 932 676 973 q 453 891 553 891 q 290 931 353 891 q 210 1034 227 972 z "},"Ą":{"ha":1027,"x_min":33,"x_max":1030,"o":"m 529 998 l 994 0 l 887 0 l 730 328 l 300 328 l 144 0 l 33 0 l 505 998 l 529 998 m 517 786 l 345 425 l 686 425 l 517 786 m 892 0 l 966 0 q 884 -131 884 -70 q 910 -184 884 -162 q 983 -205 935 -205 q 1030 -202 1003 -205 l 1024 -260 q 966 -267 996 -267 q 851 -231 891 -267 q 812 -144 812 -195 q 892 0 812 -56 z "},"ą":{"ha":949,"x_min":73,"x_max":894,"o":"m 841 738 l 841 0 l 747 0 l 747 127 q 613 18 688 54 q 451 -19 539 -19 q 183 95 294 -19 q 73 371 73 208 q 184 644 73 530 q 454 757 296 757 q 618 718 545 757 q 747 602 692 680 l 747 738 l 841 738 m 461 665 q 315 626 382 665 q 208 517 248 587 q 168 368 168 446 q 208 218 168 290 q 316 107 248 147 q 460 68 383 68 q 608 107 538 68 q 716 214 678 146 q 753 365 753 281 q 669 579 753 493 q 461 665 585 665 m 756 0 l 830 0 q 748 -131 748 -70 q 773 -184 748 -162 q 847 -205 799 -205 q 894 -202 867 -205 l 888 -260 q 830 -267 859 -267 q 715 -231 755 -267 q 675 -144 675 -195 q 756 0 675 -56 z "},"Ď":{"ha":1034,"x_min":121,"x_max":962,"o":"m 121 0 l 121 998 l 328 998 q 653 962 552 998 q 880 785 798 911 q 962 486 962 660 q 897 222 962 336 q 729 54 832 109 q 439 0 625 0 l 121 0 m 217 94 l 332 94 q 619 120 539 94 q 796 252 732 157 q 861 485 861 347 q 791 732 861 629 q 596 872 721 834 q 288 901 503 901 l 217 901 l 217 94 m 496 1070 l 401 1070 l 205 1244 l 327 1244 l 447 1141 l 571 1244 l 697 1244 l 496 1070 z "},"ď":{"ha":951,"x_min":74,"x_max":998,"o":"m 842 1023 l 842 0 l 749 0 l 749 127 q 452 -19 629 -19 q 180 99 287 -19 q 74 371 74 217 q 185 642 74 527 q 455 757 296 757 q 749 602 637 757 l 749 1023 l 842 1023 m 463 665 q 253 576 336 665 q 170 368 170 487 q 255 157 170 247 q 462 68 340 68 q 665 147 575 68 q 755 365 755 227 q 668 583 755 500 q 463 665 581 665 m 948 706 l 904 732 q 944 864 940 802 l 893 864 l 893 1023 l 998 1023 l 998 924 q 988 809 998 852 q 948 706 979 766 z "},"Đ":{"ha":1097,"x_min":23,"x_max":1025,"o":"m 144 452 l 23 452 l 23 545 l 144 545 l 144 998 l 393 998 q 718 962 616 998 q 944 785 862 911 q 1025 486 1025 660 q 961 222 1025 336 q 792 54 896 109 q 503 0 689 0 l 144 0 l 144 452 m 240 452 l 240 94 l 396 94 q 683 120 603 94 q 860 252 795 157 q 925 485 925 347 q 855 732 925 629 q 660 872 785 834 q 351 901 566 901 l 240 901 l 240 545 l 503 545 l 503 452 l 240 452 z "},"Ę":{"ha":745,"x_min":122,"x_max":694,"o":"m 122 998 l 694 998 l 694 899 l 222 899 l 222 587 l 690 587 l 690 490 l 222 490 l 222 98 l 690 98 l 690 0 l 122 0 l 122 998 m 553 0 l 627 0 q 545 -131 545 -70 q 571 -184 545 -162 q 644 -205 596 -205 q 691 -202 664 -205 l 685 -260 q 627 -267 656 -267 q 512 -231 552 -267 q 473 -144 473 -195 q 553 0 473 -56 z "},"ę":{"ha":903,"x_min":71,"x_max":831,"o":"m 727 245 l 807 203 q 716 78 768 125 q 600 6 665 31 q 454 -19 536 -19 q 172 99 274 -19 q 71 367 71 218 q 157 617 71 507 q 449 757 266 757 q 750 614 637 757 q 831 361 830 513 l 168 361 q 250 150 171 233 q 446 68 330 68 q 556 87 503 68 q 646 140 609 107 q 727 245 684 172 m 727 444 q 672 565 708 519 q 576 638 635 610 q 450 666 516 666 q 264 596 342 666 q 178 444 207 545 l 727 444 m 467 0 l 541 0 q 459 -131 459 -70 q 485 -184 459 -162 q 558 -205 510 -205 q 605 -202 578 -205 l 599 -260 q 541 -267 570 -267 q 426 -231 466 -267 q 387 -144 387 -195 q 467 0 387 -56 z "},"Ě":{"ha":745,"x_min":122,"x_max":694,"o":"m 122 998 l 694 998 l 694 899 l 222 899 l 222 587 l 690 587 l 690 490 l 222 490 l 222 98 l 690 98 l 690 0 l 122 0 l 122 998 m 458 1074 l 363 1074 l 167 1248 l 289 1248 l 409 1145 l 533 1248 l 659 1248 l 458 1074 z "},"ě":{"ha":903,"x_min":71,"x_max":831,"o":"m 727 245 l 807 203 q 716 78 768 125 q 600 6 665 31 q 454 -19 536 -19 q 172 99 274 -19 q 71 367 71 218 q 157 617 71 507 q 449 757 266 757 q 750 614 637 757 q 831 361 830 513 l 168 361 q 250 150 171 233 q 446 68 330 68 q 556 87 503 68 q 646 140 609 107 q 727 245 684 172 m 727 444 q 672 565 708 519 q 576 638 635 610 q 450 666 516 666 q 264 596 342 666 q 178 444 207 545 l 727 444 m 496 871 l 402 871 l 205 1046 l 328 1046 l 448 943 l 572 1046 l 698 1046 l 496 871 z "},"Ĳ":{"ha":983,"x_min":107,"x_max":862,"o":"m 107 998 l 207 998 l 207 0 l 107 0 l 107 998 m 762 998 l 862 998 l 862 324 q 845 126 862 191 q 768 18 827 60 q 621 -25 708 -25 q 372 81 497 -25 l 426 160 q 621 68 554 68 q 707 100 671 68 q 753 179 744 133 q 762 328 762 224 l 762 998 z "},"ĳ":{"ha":559,"x_min":61,"x_max":497,"o":"m 139 1042 q 195 1019 172 1042 q 218 964 218 996 q 195 908 218 931 q 139 885 172 885 q 84 908 107 885 q 61 964 61 931 q 84 1019 61 997 q 139 1042 108 1042 m 419 1042 q 474 1019 451 1042 q 497 964 497 997 q 474 908 497 931 q 419 885 451 885 q 364 908 387 885 q 341 964 341 931 q 364 1019 341 997 q 419 1042 387 1042 m 92 738 l 187 738 l 187 0 l 92 0 l 92 738 m 372 738 l 469 738 l 469 -111 q 343 -289 469 -289 q 235 -266 293 -289 l 235 -180 q 303 -200 271 -200 q 346 -186 330 -200 q 368 -153 363 -172 q 372 -83 372 -134 l 372 738 z "},"Ĺ":{"ha":642,"x_min":121,"x_max":605,"o":"m 121 998 l 222 998 l 222 96 l 605 96 l 605 0 l 121 0 l 121 998 m 371 1286 l 517 1286 l 317 1077 l 223 1077 l 371 1286 z "},"ĺ":{"ha":278,"x_min":54,"x_max":347,"o":"m 92 1023 l 186 1023 l 186 0 l 92 0 l 92 1023 m 201 1285 l 347 1285 l 147 1076 l 54 1076 l 201 1285 z "},"Ľ":{"ha":642,"x_min":121,"x_max":605,"o":"m 121 998 l 222 998 l 222 96 l 605 96 l 605 0 l 121 0 l 121 998 m 378 625 l 326 655 q 361 736 352 707 q 374 811 370 765 l 314 811 l 314 998 l 437 998 l 437 881 q 425 744 437 793 q 378 625 413 694 z "},"ľ":{"ha":286,"x_min":91,"x_max":340,"o":"m 91 1023 l 186 1023 l 186 0 l 91 0 l 91 1023 m 292 706 l 247 732 q 288 864 283 802 l 237 864 l 237 1023 l 340 1023 l 340 924 q 331 809 340 852 q 292 706 322 766 z "},"Ŀ":{"ha":642,"x_min":121,"x_max":605,"o":"m 121 998 l 222 998 l 222 96 l 605 96 l 605 0 l 121 0 l 121 998 m 415 590 q 471 567 448 590 q 494 511 494 544 q 471 456 494 479 q 415 433 448 433 q 359 456 382 433 q 336 511 336 479 q 359 567 336 544 q 415 590 382 590 z "},"ŀ":{"ha":366,"x_min":92,"x_max":399,"o":"m 92 1023 l 186 1023 l 186 0 l 92 0 l 92 1023 m 320 590 q 376 567 353 590 q 399 511 399 544 q 376 456 399 479 q 320 433 353 433 q 264 456 288 433 q 241 511 241 479 q 264 567 241 544 q 320 590 288 590 z "},"Ń":{"ha":1027,"x_min":122,"x_max":905,"o":"m 122 0 l 122 998 l 144 998 l 807 234 l 807 998 l 905 998 l 905 0 l 883 0 l 225 754 l 225 0 l 122 0 m 583 1285 l 729 1285 l 529 1076 l 435 1076 l 583 1285 z "},"ń":{"ha":847,"x_min":106,"x_max":749,"o":"m 106 738 l 201 738 l 201 606 q 327 719 258 682 q 477 757 396 757 q 624 715 560 757 q 719 602 688 673 q 749 380 749 530 l 749 0 l 655 0 l 655 352 q 644 522 655 479 q 581 632 627 595 q 458 669 534 669 q 304 612 372 669 q 214 471 236 555 q 201 271 201 416 l 201 0 l 106 0 l 106 738 m 452 1084 l 598 1084 l 398 875 l 304 875 l 452 1084 z "},"Ň":{"ha":1027,"x_min":122,"x_max":905,"o":"m 122 0 l 122 998 l 144 998 l 807 234 l 807 998 l 905 998 l 905 0 l 883 0 l 225 754 l 225 0 l 122 0 m 563 1073 l 469 1073 l 272 1247 l 394 1247 l 514 1144 l 638 1247 l 764 1247 l 563 1073 z "},"ň":{"ha":847,"x_min":106,"x_max":749,"o":"m 106 738 l 201 738 l 201 606 q 327 719 258 682 q 477 757 396 757 q 624 715 560 757 q 719 602 688 673 q 749 380 749 530 l 749 0 l 655 0 l 655 352 q 644 522 655 479 q 581 632 627 595 q 458 669 534 669 q 304 612 372 669 q 214 471 236 555 q 201 271 201 416 l 201 0 l 106 0 l 106 738 m 512 871 l 418 871 l 221 1046 l 343 1046 l 463 943 l 587 1046 l 713 1046 l 512 871 z "},"ŉ":{"ha":850,"x_min":-47,"x_max":753,"o":"m 109 738 l 204 738 l 204 606 q 330 719 261 682 q 481 757 399 757 q 628 715 564 757 q 722 602 692 673 q 753 380 753 530 l 753 0 l 659 0 l 659 352 q 648 522 659 479 q 584 632 631 595 q 462 669 537 669 q 308 612 376 669 q 218 471 239 555 q 204 271 204 416 l 204 0 l 109 0 l 109 738 m 18 650 l -35 680 q 0 761 -9 732 q 13 836 9 790 l -47 836 l -47 1023 l 76 1023 l 76 906 q 64 769 76 819 q 18 650 52 719 z "},"Ő":{"ha":1207,"x_min":78,"x_max":1128,"o":"m 597 1023 q 976 871 823 1023 q 1128 499 1128 720 q 976 127 1128 280 q 605 -25 824 -25 q 231 127 383 -25 q 78 494 78 279 q 148 761 78 638 q 337 953 217 884 q 597 1023 457 1023 m 602 925 q 392 867 491 925 q 237 712 293 810 q 182 494 182 614 q 305 194 182 317 q 602 72 428 72 q 816 128 718 72 q 970 282 915 184 q 1025 499 1025 380 q 970 714 1025 618 q 814 867 915 810 q 602 925 714 925 m 576 1286 l 722 1286 l 522 1077 l 429 1077 l 576 1286 m 791 1286 l 937 1286 l 736 1077 l 643 1077 l 791 1286 z "},"ő":{"ha":909,"x_min":71,"x_max":839,"o":"m 455 757 q 737 633 625 757 q 839 367 839 521 q 731 97 839 212 q 455 -19 624 -19 q 178 97 286 -19 q 71 367 71 212 q 172 633 71 520 q 455 757 284 757 m 455 664 q 252 576 337 664 q 168 365 168 489 q 206 216 168 285 q 311 109 245 146 q 455 71 376 71 q 600 109 534 71 q 704 216 665 146 q 743 365 743 285 q 657 576 743 489 q 455 664 572 664 m 439 1084 l 585 1084 l 385 875 l 292 875 l 439 1084 m 654 1084 l 800 1084 l 600 875 l 506 875 l 654 1084 z "},"Ŕ":{"ha":843,"x_min":127,"x_max":765,"o":"m 127 998 l 326 998 q 551 984 492 998 q 695 897 640 964 q 751 732 751 830 q 712 589 751 651 q 603 496 674 528 q 406 464 532 465 l 765 0 l 642 0 l 283 464 l 227 464 l 227 0 l 127 0 l 127 998 m 227 900 l 227 561 l 398 559 q 546 578 498 559 q 620 639 593 597 q 647 732 647 681 q 620 824 647 783 q 549 882 593 865 q 402 900 505 900 l 227 900 m 492 1285 l 637 1285 l 437 1076 l 344 1076 l 492 1285 z "},"ŕ":{"ha":418,"x_min":70,"x_max":443,"o":"m 70 738 l 167 738 l 167 630 q 258 725 210 694 q 359 757 307 757 q 443 732 398 757 l 393 652 q 343 665 363 665 q 252 626 296 665 q 184 505 208 587 q 167 250 167 441 l 167 0 l 70 0 l 70 738 m 286 1084 l 432 1084 l 232 875 l 138 875 l 286 1084 z "},"Ř":{"ha":843,"x_min":127,"x_max":765,"o":"m 127 998 l 326 998 q 551 984 492 998 q 695 897 640 964 q 751 732 751 830 q 712 589 751 651 q 603 496 674 528 q 406 464 532 465 l 765 0 l 642 0 l 283 464 l 227 464 l 227 0 l 127 0 l 127 998 m 227 900 l 227 561 l 398 559 q 546 578 498 559 q 620 639 593 597 q 647 732 647 681 q 620 824 647 783 q 549 882 593 865 q 402 900 505 900 l 227 900 m 443 1073 l 349 1073 l 152 1247 l 274 1247 l 394 1144 l 518 1247 l 644 1247 l 443 1073 z "},"ř":{"ha":418,"x_min":-21,"x_max":471,"o":"m 70 738 l 167 738 l 167 630 q 258 725 210 694 q 359 757 307 757 q 443 732 398 757 l 393 652 q 343 665 363 665 q 252 626 296 665 q 184 505 208 587 q 167 250 167 441 l 167 0 l 70 0 l 70 738 m 270 871 l 176 871 l -21 1046 l 101 1046 l 221 943 l 345 1046 l 471 1046 l 270 871 z "},"Ś":{"ha":692,"x_min":18,"x_max":602,"o":"m 18 186 l 103 237 q 310 72 193 72 q 404 95 360 72 q 471 158 448 119 q 494 241 494 197 q 460 340 494 292 q 290 500 414 406 q 134 636 165 594 q 81 789 81 707 q 113 907 81 854 q 200 992 144 961 q 323 1023 257 1023 q 455 988 394 1023 q 585 859 517 953 l 504 798 q 408 896 448 872 q 321 920 368 920 q 223 883 261 920 q 184 793 184 846 q 198 730 184 760 q 248 663 212 699 q 376 564 267 644 q 554 393 506 468 q 602 243 602 319 q 520 55 602 135 q 319 -25 437 -25 q 155 23 229 -25 q 18 186 81 72 m 374 1285 l 520 1285 l 320 1076 l 227 1076 l 374 1285 z "},"ś":{"ha":539,"x_min":37,"x_max":477,"o":"m 477 657 l 416 594 q 267 668 340 668 q 188 637 221 668 q 155 566 155 607 q 182 498 155 530 q 296 420 210 465 q 440 314 402 365 q 477 198 477 262 q 414 44 477 107 q 254 -19 350 -19 q 133 9 191 -19 q 37 85 75 37 l 96 153 q 250 71 169 71 q 347 108 307 71 q 387 194 387 144 q 361 267 387 235 q 241 345 334 298 q 106 447 142 397 q 70 562 70 497 q 127 701 70 646 q 272 757 184 757 q 477 657 374 757 m 273 1084 l 418 1084 l 218 875 l 125 875 l 273 1084 z "},"Ţ":{"ha":591,"x_min":22,"x_max":570,"o":"m 22 901 l 22 998 l 570 998 l 570 901 l 347 901 l 347 0 l 245 0 l 245 901 l 22 901 m 319 -290 l 275 -271 q 299 -186 297 -222 l 243 -186 l 243 -82 l 349 -82 l 349 -117 q 319 -290 349 -230 z "},"ţ":{"ha":471,"x_min":59,"x_max":435,"o":"m 189 1012 l 284 1012 l 284 738 l 435 738 l 435 656 l 284 656 l 284 0 l 189 0 l 189 656 l 59 656 l 59 738 l 189 738 l 189 1012 m 259 -290 l 215 -271 q 238 -186 237 -222 l 182 -186 l 182 -82 l 288 -82 l 288 -117 q 259 -290 288 -230 z "},"Ť":{"ha":591,"x_min":22,"x_max":570,"o":"m 22 901 l 22 998 l 570 998 l 570 901 l 347 901 l 347 0 l 245 0 l 245 901 l 22 901 m 353 1070 l 258 1070 l 62 1244 l 184 1244 l 304 1141 l 428 1244 l 554 1244 l 353 1070 z "},"ť":{"ha":471,"x_min":59,"x_max":447,"o":"m 401 789 l 361 806 q 399 911 397 863 l 353 911 l 353 1023 l 447 1023 l 447 953 q 439 865 447 895 q 401 789 432 835 m 189 1012 l 284 1012 l 284 738 l 435 738 l 435 656 l 284 656 l 284 0 l 189 0 l 189 656 l 59 656 l 59 738 l 189 738 l 189 1012 z "},"Ů":{"ha":909,"x_min":125,"x_max":785,"o":"m 125 998 l 224 998 l 224 395 q 229 262 224 288 q 263 163 236 203 q 347 97 290 123 q 460 70 403 70 q 555 91 509 70 q 631 149 600 112 q 675 239 661 186 q 686 395 686 277 l 686 998 l 785 998 l 785 395 q 759 179 785 262 q 655 36 733 97 q 465 -25 576 -25 q 258 33 345 -25 q 143 185 172 90 q 125 395 125 243 l 125 998 m 429 1349 q 531 1306 489 1349 q 574 1204 574 1264 q 532 1102 574 1144 q 429 1059 490 1059 q 327 1102 370 1059 q 285 1204 285 1144 q 327 1306 285 1264 q 429 1349 370 1349 m 429 1280 q 376 1258 397 1280 q 354 1206 354 1236 q 376 1153 354 1175 q 429 1131 397 1131 q 481 1153 459 1131 q 503 1206 503 1175 q 481 1258 503 1236 q 429 1280 459 1280 z "},"ů":{"ha":844,"x_min":94,"x_max":739,"o":"m 94 738 l 189 738 l 189 393 q 203 220 189 267 q 280 113 223 152 q 417 73 338 73 q 552 112 496 73 q 628 212 607 150 q 642 393 642 255 l 642 738 l 739 738 l 739 376 q 704 146 739 223 q 596 25 668 68 q 417 -19 525 -19 q 237 25 309 -19 q 129 147 165 68 q 94 382 94 225 l 94 738 m 396 1147 q 498 1104 456 1147 q 541 1002 541 1062 q 498 900 541 942 q 396 857 456 857 q 294 900 336 857 q 252 1002 252 942 q 294 1104 252 1062 q 396 1147 336 1147 m 395 1078 q 342 1056 364 1078 q 321 1004 321 1034 q 342 951 321 973 q 395 929 364 929 q 448 951 426 929 q 469 1004 469 973 q 448 1056 469 1034 q 395 1078 426 1078 z "},"Ű":{"ha":909,"x_min":125,"x_max":800,"o":"m 125 998 l 224 998 l 224 395 q 229 262 224 288 q 263 163 236 203 q 347 97 290 123 q 460 70 403 70 q 555 91 509 70 q 631 149 600 112 q 675 239 661 186 q 686 395 686 277 l 686 998 l 785 998 l 785 395 q 759 179 785 262 q 655 36 733 97 q 465 -25 576 -25 q 258 33 345 -25 q 143 185 172 90 q 125 395 125 243 l 125 998 m 439 1286 l 585 1286 l 385 1077 l 292 1077 l 439 1286 m 654 1286 l 800 1286 l 600 1077 l 506 1077 l 654 1286 z "},"ű":{"ha":844,"x_min":94,"x_max":766,"o":"m 94 738 l 189 738 l 189 393 q 203 220 189 267 q 280 113 223 152 q 417 73 338 73 q 552 112 496 73 q 628 212 607 150 q 642 393 642 255 l 642 738 l 739 738 l 739 376 q 704 146 739 223 q 596 25 668 68 q 417 -19 525 -19 q 237 25 309 -19 q 129 147 165 68 q 94 382 94 225 l 94 738 m 406 1084 l 552 1084 l 352 875 l 258 875 l 406 1084 m 621 1084 l 766 1084 l 566 875 l 473 875 l 621 1084 z "},"Ź":{"ha":667,"x_min":38,"x_max":609,"o":"m 83 901 l 83 998 l 609 998 l 192 97 l 588 97 l 588 0 l 38 0 l 458 901 l 83 901 m 357 1285 l 503 1285 l 303 1076 l 210 1076 l 357 1285 z "},"ź":{"ha":590,"x_min":6,"x_max":587,"o":"m 45 738 l 587 738 l 170 84 l 574 84 l 574 0 l 6 0 l 424 654 l 45 654 l 45 738 m 361 1084 l 507 1084 l 307 875 l 213 875 l 361 1084 z "},"Ż":{"ha":667,"x_min":38,"x_max":609,"o":"m 83 901 l 83 998 l 609 998 l 192 97 l 588 97 l 588 0 l 38 0 l 458 901 l 83 901 m 307 1231 q 363 1208 340 1231 q 386 1152 386 1185 q 363 1097 386 1120 q 307 1074 340 1074 q 252 1097 275 1074 q 229 1152 229 1120 q 252 1208 229 1185 q 307 1231 275 1231 z "},"ż":{"ha":590,"x_min":6,"x_max":587,"o":"m 45 738 l 587 738 l 170 84 l 574 84 l 574 0 l 6 0 l 424 654 l 45 654 l 45 738 m 273 1029 q 329 1006 306 1029 q 352 951 352 983 q 329 895 352 918 q 273 872 306 872 q 218 895 241 872 q 195 951 195 918 q 218 1006 195 983 q 273 1029 241 1029 z "},"":{"ha":753,"x_min":120,"x_max":723,"o":"m 120 995 l 723 995 l 723 877 l 252 877 l 252 0 l 120 0 l 120 995 z "},"":{"ha":1038,"x_min":78,"x_max":960,"o":"m 524 1019 q 843 881 727 1019 q 960 496 960 743 q 910 222 960 343 q 760 37 860 100 q 526 -27 659 -27 q 287 32 383 -27 q 135 209 191 90 q 78 498 78 327 q 192 877 78 734 q 524 1019 305 1019 m 524 912 q 298 810 379 912 q 218 500 218 709 q 254 261 218 349 q 356 127 291 174 q 516 80 421 80 q 740 181 659 80 q 821 505 821 283 q 742 805 821 697 q 524 912 664 912 m 334 562 l 705 562 l 705 449 l 334 449 l 334 562 z "},"":{"ha":1162,"x_min":78,"x_max":1084,"o":"m 516 1019 l 648 1019 l 648 888 q 1084 491 1084 872 q 648 93 1084 108 l 648 -119 l 516 -119 l 516 93 q 78 491 78 109 q 180 774 78 670 q 516 888 282 878 l 516 1019 m 516 783 q 220 490 220 781 q 516 196 220 213 l 516 783 m 648 783 l 648 196 q 943 491 943 201 q 648 783 943 778 z "},"":{"ha":873,"x_min":71,"x_max":813,"o":"m 646 130 q 393 -19 553 -19 q 155 85 239 -19 q 71 344 71 190 q 159 627 71 522 q 397 732 247 732 q 642 599 563 732 l 672 721 l 804 721 q 756 372 756 545 q 813 0 756 176 l 676 0 q 646 130 655 77 m 420 639 q 267 565 321 639 q 213 353 213 491 q 267 151 213 228 q 420 75 320 75 q 574 145 519 75 q 629 360 629 216 q 578 563 629 486 q 420 639 528 639 z "},"":{"ha":861,"x_min":71,"x_max":791,"o":"m 442 639 q 301 776 334 722 q 267 886 267 829 q 334 1010 267 965 q 519 1055 401 1055 q 676 1034 604 1055 l 676 945 q 549 958 593 958 q 444 934 482 958 q 406 873 406 910 q 427 816 406 844 q 505 743 448 788 q 731 522 671 613 q 791 326 791 431 q 695 80 791 180 q 429 -19 600 -19 q 169 79 267 -19 q 71 329 71 176 q 116 499 71 431 q 229 606 161 568 q 380 644 297 644 q 442 639 405 644 m 435 570 q 270 504 328 570 q 212 323 212 437 q 271 140 212 208 q 432 73 330 73 q 587 137 526 73 q 648 322 648 200 q 596 498 648 427 q 435 570 543 570 z "},"":{"ha":710,"x_min":71,"x_max":640,"o":"m 640 -8 q 506 -19 570 -19 q 186 78 302 -19 q 71 355 71 174 q 175 626 71 519 q 484 732 279 732 q 631 723 552 732 l 631 623 l 613 625 q 491 631 526 631 q 215 414 243 631 l 625 414 l 625 318 l 214 318 q 291 149 216 215 q 524 83 366 83 q 640 94 589 83 l 640 -8 z "},"":{"ha":948,"x_min":71,"x_max":922,"o":"m 691 618 q 787 359 787 526 q 694 84 787 187 q 431 -19 600 -19 q 167 82 264 -19 q 71 358 71 182 q 166 633 71 533 q 412 732 262 732 q 518 727 441 732 q 608 722 548 724 l 922 722 l 922 618 l 691 618 m 434 648 q 210 347 210 648 q 265 149 210 225 q 427 73 320 73 q 593 150 539 73 q 647 364 647 227 q 596 567 647 487 q 434 648 545 648 z "},"":{"ha":665,"x_min":28,"x_max":638,"o":"m 28 721 l 638 721 l 638 612 l 399 612 l 399 0 l 267 0 l 267 612 l 28 612 l 28 721 z "},"":{"ha":1072,"x_min":71,"x_max":1001,"o":"m 473 903 l 601 903 l 601 729 q 892 636 783 726 q 1001 370 1001 546 q 964 174 1001 252 q 831 45 926 97 q 600 -10 736 -7 l 600 -262 l 471 -262 l 471 -9 q 187 79 304 -8 q 71 364 71 166 q 179 635 71 547 q 473 730 288 724 l 473 903 m 472 638 q 327 605 382 635 q 242 513 271 575 q 214 362 214 451 q 472 83 214 84 l 472 638 m 601 638 l 601 83 q 859 363 859 85 q 601 638 859 635 z "},"‗":{"ha":694,"x_min":-8,"x_max":703,"o":"m -8 -99 l 703 -99 l 703 -169 l -8 -169 l -8 -99 m -8 -219 l 703 -219 l 703 -289 l -8 -289 l -8 -219 z "},"′":{"ha":275,"x_min":87,"x_max":217,"o":"m 157 709 l 87 709 l 117 1023 l 217 1023 l 157 709 z "},"″":{"ha":429,"x_min":33,"x_max":426,"o":"m 366 709 l 296 709 l 326 1023 l 426 1023 l 366 709 m 103 709 l 33 709 l 62 1023 l 162 1023 l 103 709 z "},"‼":{"ha":737,"x_min":121,"x_max":616,"o":"m 253 1023 l 253 250 l 155 250 l 155 1023 l 253 1023 m 580 1023 l 580 250 l 482 250 l 482 1023 l 580 1023 m 205 149 q 263 125 238 149 q 288 65 288 102 q 263 5 288 30 q 205 -19 239 -19 q 146 6 171 -19 q 121 65 121 31 q 146 125 121 102 q 205 149 172 149 m 532 149 q 591 125 566 149 q 616 65 616 100 q 591 5 616 30 q 532 -19 566 -19 q 473 6 498 -19 q 449 65 449 31 q 473 125 449 100 q 532 149 498 149 z "},"ⁿ":{"ha":494,"x_min":52,"x_max":443,"o":"m 52 852 l 130 852 l 130 786 q 280 863 193 863 q 376 831 336 863 q 429 753 416 798 q 443 627 443 708 l 443 390 l 365 390 l 365 611 q 358 716 365 683 q 327 771 351 750 q 264 791 302 791 q 183 759 219 791 q 139 687 148 727 q 130 562 130 647 l 130 390 l 52 390 l 52 852 z "},"₧":{"ha":1505,"x_min":121,"x_max":1443,"o":"m 744 738 l 795 738 l 795 1012 l 890 1012 l 890 738 l 1148 738 q 1238 757 1190 757 q 1442 657 1342 757 l 1381 594 q 1233 668 1308 668 q 1156 640 1192 668 q 1121 566 1121 611 q 1147 499 1121 532 q 1262 420 1173 466 q 1400 321 1358 370 q 1443 198 1443 272 q 1382 47 1443 113 q 1219 -19 1321 -19 q 1095 11 1152 -19 q 1002 85 1038 40 l 1062 153 q 1216 71 1135 71 q 1310 106 1268 71 q 1352 194 1352 140 q 1324 269 1352 237 q 1207 345 1295 300 q 1076 440 1116 393 q 1036 562 1036 488 q 1059 656 1036 612 l 890 656 l 890 0 l 795 0 l 795 656 l 734 656 q 661 535 711 578 q 535 478 610 492 q 292 464 460 464 l 220 464 l 220 0 l 121 0 l 121 998 l 319 998 q 557 981 484 998 q 687 900 631 964 q 744 738 743 836 m 220 901 l 220 562 q 387 559 370 559 q 548 582 500 559 q 618 646 596 604 q 641 732 641 688 q 614 824 641 781 q 541 884 587 867 q 397 901 494 901 l 220 901 z "},"℅":{"ha":1209,"x_min":31,"x_max":1178,"o":"m 468 906 l 404 870 q 266 950 355 950 q 152 898 195 950 q 110 781 110 846 q 154 660 110 711 q 266 609 197 609 q 405 689 352 609 l 468 651 q 264 538 399 538 q 91 614 151 538 q 31 777 31 689 q 98 951 31 880 q 269 1023 165 1023 q 468 906 403 1023 m 253 -25 l 880 1023 l 955 1023 l 328 -25 l 253 -25 m 959 473 q 1116 400 1054 473 q 1178 230 1178 328 q 1117 61 1178 133 q 959 -12 1055 -12 q 803 60 865 -12 q 741 230 741 131 q 803 401 741 328 q 959 473 865 473 m 959 398 q 861 348 903 398 q 820 229 820 298 q 860 110 820 159 q 959 62 900 62 q 1059 110 1019 62 q 1099 229 1099 159 q 1057 348 1099 298 q 959 398 1016 398 z "},"ℓ":{"ha":498,"x_min":28,"x_max":456,"o":"m 28 286 l 148 446 l 148 754 q 189 958 148 905 q 304 1011 229 1011 q 416 964 377 1011 q 456 852 456 916 q 414 696 456 787 q 262 451 373 605 l 262 170 q 271 97 262 113 q 300 80 280 80 q 435 153 336 80 l 435 43 q 283 -16 365 -16 q 182 24 217 -16 q 148 147 148 64 l 148 300 l 94 233 l 28 286 m 262 610 q 342 761 324 716 q 361 848 361 806 q 346 909 361 889 q 309 930 330 930 q 272 896 281 930 q 262 764 262 861 l 262 610 z "},"←":{"ha":1389,"x_min":54,"x_max":1335,"o":"m 334 594 l 385 594 q 253 385 330 479 l 1335 385 l 1335 316 l 253 316 q 387 106 322 247 l 334 106 q 54 338 183 278 l 54 368 q 334 594 174 416 z "},"↑":{"ha":694,"x_min":104,"x_max":591,"o":"m 104 712 q 330 992 281 872 l 361 992 q 591 711 420 862 l 591 659 q 382 792 451 724 l 382 -291 l 313 -291 l 313 792 q 104 660 219 715 l 104 712 z "},"→":{"ha":1389,"x_min":54,"x_max":1335,"o":"m 1055 594 q 1335 368 1215 416 l 1335 338 q 1054 106 1205 278 l 1002 106 q 1135 316 1066 247 l 54 316 l 54 385 l 1135 385 q 1003 594 1058 479 l 1055 594 z "},"↓":{"ha":694,"x_min":104,"x_max":591,"o":"m 104 -11 l 104 41 q 313 -92 219 -14 l 313 992 l 382 992 l 382 -92 q 591 42 451 -22 l 591 -10 q 361 -291 420 -161 l 330 -291 q 104 -11 281 -172 z "},"↔":{"ha":1389,"x_min":54,"x_max":1335,"o":"m 1335 366 l 1335 336 q 1059 107 1212 282 l 1005 107 q 1137 318 1052 224 l 252 318 q 383 107 336 224 l 329 107 q 54 336 177 282 l 54 366 q 329 595 177 420 l 383 595 q 252 385 336 479 l 1137 385 q 1005 595 1052 479 l 1059 595 q 1335 366 1212 420 z "},"↕":{"ha":694,"x_min":103,"x_max":591,"o":"m 332 992 l 362 992 q 591 716 416 869 l 591 662 q 380 794 475 709 l 380 -92 q 591 40 475 -6 l 591 -14 q 362 -290 416 -166 l 332 -290 q 103 -14 278 -166 l 103 40 q 314 -92 219 -6 l 314 794 q 103 662 219 709 l 103 716 q 332 992 278 869 z "},"↨":{"ha":694,"x_min":103,"x_max":591,"o":"m 332 992 l 362 992 q 591 716 416 869 l 591 662 q 380 794 475 709 l 380 -92 q 591 40 475 -6 l 591 -14 q 362 -290 416 -166 l 332 -290 q 103 -14 278 -166 l 103 40 q 314 -92 219 -6 l 314 794 q 103 662 219 709 l 103 716 q 332 992 278 869 m 104 -354 l 591 -354 l 591 -420 l 104 -420 l 104 -354 z "},"∟":{"ha":1360,"x_min":245,"x_max":1114,"o":"m 245 867 l 313 867 l 313 68 l 1114 68 l 1114 0 l 245 0 l 245 867 z "},"∩":{"ha":818,"x_min":87,"x_max":731,"o":"m 162 0 l 87 0 l 87 421 l 89 583 q 101 724 90 661 q 141 839 113 787 q 213 931 169 890 q 308 991 257 971 q 409 1012 358 1012 q 562 965 489 1012 q 673 847 634 919 q 722 695 713 776 q 731 421 731 615 l 731 0 l 656 0 l 656 426 q 650 662 656 591 q 614 791 643 734 q 528 886 586 848 q 409 923 470 923 q 291 886 348 923 q 205 793 233 848 q 170 664 177 737 q 162 426 162 591 l 162 0 z "},"≡":{"ha":842,"x_min":78,"x_max":764,"o":"m 764 817 l 764 724 l 78 724 l 78 817 l 764 817 m 78 545 l 764 545 l 764 452 l 78 452 l 78 545 m 764 273 l 764 180 l 78 180 l 78 273 l 764 273 z "},"□":{"ha":839,"x_min":99,"x_max":739,"o":"m 99 640 l 739 640 l 739 0 l 99 0 l 99 640 m 151 589 l 151 52 l 688 52 l 688 589 l 151 589 z "},"▪":{"ha":492,"x_min":89,"x_max":403,"o":"m 403 616 l 403 302 l 89 302 l 89 616 l 403 616 z "},"▫":{"ha":492,"x_min":89,"x_max":403,"o":"m 403 616 l 403 302 l 89 302 l 89 616 l 403 616 m 351 565 l 140 564 l 140 353 l 351 353 l 351 565 z "},"●":{"ha":839,"x_min":121,"x_max":718,"o":"m 420 690 q 630 603 543 690 q 718 392 718 515 q 631 181 718 269 q 420 93 543 93 q 209 181 296 93 q 121 392 121 269 q 210 605 121 520 q 420 690 299 690 z "},"◦":{"ha":492,"x_min":76,"x_max":416,"o":"m 246 629 q 366 581 315 629 q 416 459 416 532 q 367 339 416 389 q 246 289 317 289 q 126 339 176 289 q 76 459 76 389 q 126 579 76 530 q 246 629 176 629 m 246 578 q 163 544 198 578 q 127 459 127 510 q 162 375 127 410 q 246 340 197 340 q 330 375 295 340 q 365 459 365 410 q 330 544 365 509 q 246 578 294 578 z "},"":{"ha":463,"x_min":119,"x_max":304,"o":"m 221 -82 l 304 -121 l 180 -351 l 119 -326 l 221 -82 z "},"Ā":{"ha":1027,"x_min":33,"x_max":994,"o":"m 529 998 l 994 0 l 887 0 l 730 328 l 300 328 l 144 0 l 33 0 l 505 998 l 529 998 m 517 786 l 345 425 l 686 425 l 517 786 m 279 1204 l 747 1204 l 747 1124 l 279 1124 l 279 1204 z "},"ā":{"ha":949,"x_min":73,"x_max":841,"o":"m 841 738 l 841 0 l 747 0 l 747 127 q 613 18 688 54 q 451 -19 539 -19 q 183 95 294 -19 q 73 371 73 208 q 184 644 73 530 q 454 757 296 757 q 618 718 545 757 q 747 602 692 680 l 747 738 l 841 738 m 461 665 q 315 626 382 665 q 208 517 248 587 q 168 368 168 446 q 208 218 168 290 q 316 107 248 147 q 460 68 383 68 q 608 107 538 68 q 716 214 678 146 q 753 365 753 281 q 669 579 753 493 q 461 665 585 665 m 241 1003 l 709 1003 l 709 922 l 241 922 l 241 1003 z "},"Ĉ":{"ha":1129,"x_min":75,"x_max":1050,"o":"m 1050 812 l 972 752 q 815 881 907 837 q 615 924 724 924 q 394 867 496 924 q 236 713 292 810 q 180 496 180 616 q 306 191 180 313 q 621 69 431 69 q 972 233 831 69 l 1050 174 q 864 27 976 79 q 615 -25 753 -25 q 202 149 353 -25 q 75 505 75 296 q 229 873 75 724 q 614 1023 382 1023 q 866 967 753 1023 q 1050 812 979 912 m 547 1248 l 641 1248 l 838 1074 l 715 1074 l 596 1177 l 471 1074 l 345 1074 l 547 1248 z "},"ĉ":{"ha":899,"x_min":71,"x_max":822,"o":"m 822 585 l 747 538 q 480 667 649 667 q 256 581 345 667 q 167 370 167 494 q 208 218 167 289 q 320 107 249 146 q 481 68 392 68 q 747 197 644 68 l 822 148 q 680 25 769 68 q 477 -19 591 -19 q 186 92 302 -19 q 71 363 71 203 q 125 562 71 470 q 273 705 179 654 q 484 757 368 757 q 626 734 557 757 q 741 676 694 712 q 822 585 789 640 m 406 1046 l 500 1046 l 696 871 l 574 871 l 455 975 l 330 871 l 204 871 l 406 1046 z "},"Ċ":{"ha":1129,"x_min":75,"x_max":1050,"o":"m 1050 812 l 972 752 q 815 881 907 837 q 615 924 724 924 q 394 867 496 924 q 236 713 292 810 q 180 496 180 616 q 306 191 180 313 q 621 69 431 69 q 972 233 831 69 l 1050 174 q 864 27 976 79 q 615 -25 753 -25 q 202 149 353 -25 q 75 505 75 296 q 229 873 75 724 q 614 1023 382 1023 q 866 967 753 1023 q 1050 812 979 912 m 595 1232 q 651 1208 628 1232 q 674 1153 674 1185 q 651 1097 674 1120 q 595 1074 628 1074 q 540 1097 563 1074 q 517 1153 517 1120 q 540 1208 517 1185 q 595 1232 563 1232 z "},"ċ":{"ha":899,"x_min":71,"x_max":822,"o":"m 822 585 l 747 538 q 480 667 649 667 q 256 581 345 667 q 167 370 167 494 q 208 218 167 289 q 320 107 249 146 q 481 68 392 68 q 747 197 644 68 l 822 148 q 680 25 769 68 q 477 -19 591 -19 q 186 92 302 -19 q 71 363 71 203 q 125 562 71 470 q 273 705 179 654 q 484 757 368 757 q 626 734 557 757 q 741 676 694 712 q 822 585 789 640 m 463 1029 q 519 1006 496 1029 q 542 951 542 983 q 519 895 542 918 q 463 872 496 872 q 408 895 431 872 q 385 951 385 918 q 408 1006 385 983 q 463 1029 431 1029 z "},"Ē":{"ha":745,"x_min":122,"x_max":694,"o":"m 122 998 l 694 998 l 694 899 l 222 899 l 222 587 l 690 587 l 690 490 l 222 490 l 222 98 l 690 98 l 690 0 l 122 0 l 122 998 m 171 1204 l 639 1204 l 639 1124 l 171 1124 l 171 1204 z "},"ē":{"ha":903,"x_min":71,"x_max":831,"o":"m 727 245 l 807 203 q 716 78 768 125 q 600 6 665 31 q 454 -19 536 -19 q 172 99 274 -19 q 71 367 71 218 q 157 617 71 507 q 449 757 266 757 q 750 614 637 757 q 831 361 830 513 l 168 361 q 250 150 171 233 q 446 68 330 68 q 556 87 503 68 q 646 140 609 107 q 727 245 684 172 m 727 444 q 672 565 708 519 q 576 638 635 610 q 450 666 516 666 q 264 596 342 666 q 178 444 207 545 l 727 444 m 217 1003 l 685 1003 l 685 922 l 217 922 l 217 1003 z "},"Ĕ":{"ha":745,"x_min":122,"x_max":694,"o":"m 122 998 l 694 998 l 694 899 l 222 899 l 222 587 l 690 587 l 690 490 l 222 490 l 222 98 l 690 98 l 690 0 l 122 0 l 122 998 m 132 1236 l 222 1236 q 283 1183 245 1201 q 376 1166 322 1166 q 463 1181 430 1166 q 526 1236 496 1197 l 613 1236 q 537 1134 598 1175 q 375 1093 475 1093 q 212 1134 275 1093 q 132 1236 149 1174 z "},"ĕ":{"ha":903,"x_min":71,"x_max":831,"o":"m 727 245 l 807 203 q 716 78 768 125 q 600 6 665 31 q 454 -19 536 -19 q 172 99 274 -19 q 71 367 71 218 q 157 617 71 507 q 449 757 266 757 q 750 614 637 757 q 831 361 830 513 l 168 361 q 250 150 171 233 q 446 68 330 68 q 556 87 503 68 q 646 140 609 107 q 727 245 684 172 m 727 444 q 672 565 708 519 q 576 638 635 610 q 450 666 516 666 q 264 596 342 666 q 178 444 207 545 l 727 444 m 211 1034 l 300 1034 q 362 981 323 999 q 454 964 401 964 q 542 979 509 964 q 605 1034 575 995 l 692 1034 q 615 932 677 973 q 454 891 554 891 q 291 931 354 891 q 211 1034 228 972 z "},"Ė":{"ha":745,"x_min":122,"x_max":694,"o":"m 122 998 l 694 998 l 694 899 l 222 899 l 222 587 l 690 587 l 690 490 l 222 490 l 222 98 l 690 98 l 690 0 l 122 0 l 122 998 m 408 1232 q 464 1208 441 1232 q 487 1153 487 1185 q 464 1097 487 1120 q 408 1074 441 1074 q 353 1097 376 1074 q 330 1153 330 1120 q 353 1208 330 1185 q 408 1232 376 1232 z "},"ė":{"ha":903,"x_min":71,"x_max":831,"o":"m 727 245 l 807 203 q 716 78 768 125 q 600 6 665 31 q 454 -19 536 -19 q 172 99 274 -19 q 71 367 71 218 q 157 617 71 507 q 449 757 266 757 q 750 614 637 757 q 831 361 830 513 l 168 361 q 250 150 171 233 q 446 68 330 68 q 556 87 503 68 q 646 140 609 107 q 727 245 684 172 m 727 444 q 672 565 708 519 q 576 638 635 610 q 450 666 516 666 q 264 596 342 666 q 178 444 207 545 l 727 444 m 451 1029 q 507 1006 484 1029 q 530 951 530 983 q 507 895 530 918 q 451 872 484 872 q 395 895 418 872 q 372 951 372 918 q 395 1006 372 983 q 451 1029 418 1029 z "},"Ĝ":{"ha":1211,"x_min":79,"x_max":1143,"o":"m 1084 830 l 1006 757 q 824 881 923 839 q 630 924 724 924 q 407 866 513 924 q 242 710 300 808 q 184 501 184 611 q 244 287 184 389 q 411 128 304 186 q 644 70 517 70 q 905 157 798 70 q 1031 382 1011 243 l 713 382 l 713 478 l 1143 478 q 1005 111 1141 247 q 642 -25 869 -25 q 203 163 365 -25 q 79 499 79 309 q 151 763 79 641 q 346 954 222 885 q 627 1023 470 1023 q 865 977 753 1023 q 1084 830 977 931 m 566 1248 l 661 1248 l 857 1074 l 735 1074 l 616 1177 l 491 1074 l 365 1074 l 566 1248 z "},"ĝ":{"ha":935,"x_min":68,"x_max":837,"o":"m 741 738 l 837 738 l 837 150 q 810 -77 837 -5 q 680 -234 772 -179 q 458 -289 588 -289 q 288 -262 363 -289 q 165 -190 212 -235 q 77 -58 117 -145 l 180 -58 q 289 -167 222 -132 q 454 -202 355 -202 q 617 -166 551 -202 q 713 -75 684 -130 q 741 102 741 -20 l 741 140 q 610 36 688 73 q 446 0 533 0 q 255 51 345 0 q 117 186 165 101 q 68 374 68 272 q 119 565 68 477 q 259 705 170 654 q 449 757 349 757 q 603 723 532 757 q 741 610 675 688 l 741 738 m 461 665 q 311 626 380 665 q 203 518 242 587 q 163 370 163 450 q 245 169 163 248 q 456 90 326 90 q 666 168 587 90 q 746 375 746 247 q 709 524 746 458 q 606 627 673 589 q 461 665 538 665 m 407 1046 l 501 1046 l 698 871 l 576 871 l 456 975 l 332 871 l 205 871 l 407 1046 z "},"Ġ":{"ha":1211,"x_min":79,"x_max":1143,"o":"m 1084 830 l 1006 757 q 824 881 923 839 q 630 924 724 924 q 407 866 513 924 q 242 710 300 808 q 184 501 184 611 q 244 287 184 389 q 411 128 304 186 q 644 70 517 70 q 905 157 798 70 q 1031 382 1011 243 l 713 382 l 713 478 l 1143 478 q 1005 111 1141 247 q 642 -25 869 -25 q 203 163 365 -25 q 79 499 79 309 q 151 763 79 641 q 346 954 222 885 q 627 1023 470 1023 q 865 977 753 1023 q 1084 830 977 931 m 619 1232 q 675 1208 652 1232 q 698 1153 698 1185 q 675 1097 698 1120 q 619 1074 652 1074 q 564 1097 587 1074 q 541 1153 541 1120 q 564 1208 541 1185 q 619 1232 587 1232 z "},"ġ":{"ha":935,"x_min":68,"x_max":837,"o":"m 741 738 l 837 738 l 837 150 q 810 -77 837 -5 q 680 -234 772 -179 q 458 -289 588 -289 q 288 -262 363 -289 q 165 -190 212 -235 q 77 -58 117 -145 l 180 -58 q 289 -167 222 -132 q 454 -202 355 -202 q 617 -166 551 -202 q 713 -75 684 -130 q 741 102 741 -20 l 741 140 q 610 36 688 73 q 446 0 533 0 q 255 51 345 0 q 117 186 165 101 q 68 374 68 272 q 119 565 68 477 q 259 705 170 654 q 449 757 349 757 q 603 723 532 757 q 741 610 675 688 l 741 738 m 461 665 q 311 626 380 665 q 203 518 242 587 q 163 370 163 450 q 245 169 163 248 q 456 90 326 90 q 666 168 587 90 q 746 375 746 247 q 709 524 746 458 q 606 627 673 589 q 461 665 538 665 m 469 1029 q 525 1006 502 1029 q 548 951 548 983 q 525 895 548 918 q 469 872 502 872 q 414 895 437 872 q 391 951 391 918 q 414 1006 391 983 q 469 1029 437 1029 z "},"Ģ":{"ha":1211,"x_min":79,"x_max":1143,"o":"m 1084 830 l 1006 757 q 824 881 923 839 q 630 924 724 924 q 407 866 513 924 q 242 710 300 808 q 184 501 184 611 q 244 287 184 389 q 411 128 304 186 q 644 70 517 70 q 905 157 798 70 q 1031 382 1011 243 l 713 382 l 713 478 l 1143 478 q 1005 111 1141 247 q 642 -25 869 -25 q 203 163 365 -25 q 79 499 79 309 q 151 763 79 641 q 346 954 222 885 q 627 1023 470 1023 q 865 977 753 1023 q 1084 830 977 931 m 591 0 l 651 0 l 640 -80 q 665 -78 655 -78 q 721 -99 699 -78 q 743 -151 743 -119 q 703 -227 743 -195 q 588 -258 662 -258 q 475 -237 528 -258 l 490 -191 q 571 -204 533 -204 q 642 -192 622 -204 q 663 -160 663 -179 q 651 -140 663 -149 q 621 -131 640 -131 q 573 -137 604 -131 l 591 0 z "},"ģ":{"ha":935,"x_min":68,"x_max":837,"o":"m 741 738 l 837 738 l 837 150 q 810 -77 837 -5 q 680 -234 772 -179 q 458 -289 588 -289 q 288 -262 363 -289 q 165 -190 212 -235 q 77 -58 117 -145 l 180 -58 q 289 -167 222 -132 q 454 -202 355 -202 q 617 -166 551 -202 q 713 -75 684 -130 q 741 102 741 -20 l 741 140 q 610 36 688 73 q 446 0 533 0 q 255 51 345 0 q 117 186 165 101 q 68 374 68 272 q 119 565 68 477 q 259 705 170 654 q 449 757 349 757 q 603 723 532 757 q 741 610 675 688 l 741 738 m 461 665 q 311 626 380 665 q 203 518 242 587 q 163 370 163 450 q 245 169 163 248 q 456 90 326 90 q 666 168 587 90 q 746 375 746 247 q 709 524 746 458 q 606 627 673 589 q 461 665 538 665 m 460 1233 l 513 1203 q 479 1122 488 1152 q 465 1047 470 1093 l 526 1047 l 526 861 l 403 861 l 403 977 q 415 1115 403 1065 q 460 1233 427 1164 z "},"Ĥ":{"ha":949,"x_min":120,"x_max":828,"o":"m 120 998 l 220 998 l 220 579 l 728 579 l 728 998 l 828 998 l 828 0 l 728 0 l 728 481 l 220 481 l 220 0 l 120 0 l 120 998 m 429 1248 l 524 1248 l 720 1074 l 598 1074 l 479 1177 l 354 1074 l 228 1074 l 429 1248 z "},"ĥ":{"ha":847,"x_min":106,"x_max":749,"o":"m 106 1023 l 201 1023 l 201 606 q 328 719 258 682 q 477 757 397 757 q 624 715 560 757 q 719 602 688 673 q 749 380 749 531 l 749 0 l 654 0 l 654 352 q 644 522 654 479 q 580 632 627 595 q 458 669 534 669 q 304 612 372 669 q 214 471 236 555 q 201 271 201 417 l 201 0 l 106 0 l 106 1023 m 378 1248 l 473 1248 l 669 1074 l 547 1074 l 428 1177 l 303 1074 l 177 1074 l 378 1248 z "},"Ħ":{"ha":949,"x_min":31,"x_max":918,"o":"m 221 840 l 728 840 l 728 998 l 828 998 l 828 840 l 918 840 l 918 747 l 828 747 l 828 0 l 728 0 l 728 481 l 221 481 l 221 0 l 121 0 l 121 747 l 31 747 l 31 840 l 121 840 l 121 998 l 221 998 l 221 840 m 221 747 l 221 579 l 728 579 l 728 747 l 221 747 z "},"ħ":{"ha":847,"x_min":3,"x_max":749,"o":"m 201 920 l 454 920 l 454 841 l 201 841 l 201 606 q 477 757 315 757 q 640 704 573 757 q 728 579 707 650 q 749 380 749 507 l 749 0 l 654 0 l 654 352 q 641 538 654 480 q 580 632 627 595 q 458 669 534 669 q 342 640 393 669 q 256 559 290 610 q 211 456 222 509 q 201 271 201 403 l 201 0 l 106 0 l 106 841 l 3 841 l 3 920 l 106 920 l 106 1023 l 201 1023 l 201 920 z "},"Ĩ":{"ha":314,"x_min":-92,"x_max":406,"o":"m 107 998 l 207 998 l 207 0 l 107 0 l 107 998 m 358 1214 l 406 1148 q 323 1101 357 1113 q 252 1088 290 1088 q 152 1114 203 1088 q 96 1139 108 1135 q 60 1143 79 1143 q 15 1135 37 1143 q -47 1097 -6 1126 l -92 1166 q 61 1232 -30 1232 q 165 1204 104 1232 q 256 1178 222 1178 q 358 1214 293 1178 z "},"ĩ":{"ha":278,"x_min":-110,"x_max":387,"o":"m 92 738 l 187 738 l 187 0 l 92 0 l 92 738 m 340 1012 l 387 946 q 305 899 338 911 q 234 886 271 886 q 134 911 185 886 q 77 937 90 933 q 42 941 61 941 q -3 933 18 941 q -65 895 -24 924 l -110 964 q 43 1029 -48 1029 q 146 1002 86 1029 q 237 976 204 976 q 340 1012 275 976 z "},"Ī":{"ha":314,"x_min":-77,"x_max":391,"o":"m 107 998 l 207 998 l 207 0 l 107 0 l 107 998 m -77 1204 l 391 1204 l 391 1124 l -77 1124 l -77 1204 z "},"ī":{"ha":278,"x_min":-95,"x_max":373,"o":"m 92 738 l 187 738 l 187 0 l 92 0 l 92 738 m -95 1003 l 373 1003 l 373 922 l -95 922 l -95 1003 z "},"Ĭ":{"ha":314,"x_min":-83,"x_max":397,"o":"m 107 998 l 207 998 l 207 0 l 107 0 l 107 998 m -83 1236 l 6 1236 q 68 1183 29 1201 q 160 1166 106 1166 q 248 1181 214 1166 q 311 1236 281 1197 l 397 1236 q 321 1134 382 1175 q 159 1093 260 1093 q -3 1134 60 1093 q -83 1236 -66 1174 z "},"ĭ":{"ha":278,"x_min":-101,"x_max":380,"o":"m 92 738 l 187 738 l 187 0 l 92 0 l 92 738 m -101 1034 l -12 1034 q 50 981 12 999 q 142 964 89 964 q 230 979 197 964 q 293 1034 263 995 l 380 1034 q 303 932 365 973 q 142 891 242 891 q -21 931 42 891 q -101 1034 -84 972 z "},"Į":{"ha":314,"x_min":52,"x_max":271,"o":"m 107 998 l 207 998 l 207 0 l 107 0 l 107 998 m 133 0 l 207 0 q 125 -131 125 -70 q 150 -184 125 -162 q 224 -205 176 -205 q 271 -202 243 -205 l 264 -260 q 207 -267 236 -267 q 92 -231 132 -267 q 52 -144 52 -195 q 133 0 52 -56 z "},"į":{"ha":278,"x_min":33,"x_max":251,"o":"m 139 1042 q 195 1019 172 1042 q 218 963 218 996 q 195 908 218 931 q 139 885 172 885 q 84 908 107 885 q 61 963 61 931 q 84 1019 61 996 q 139 1042 107 1042 m 92 738 l 187 738 l 187 0 l 92 0 l 92 738 m 113 0 l 187 0 q 105 -131 105 -70 q 131 -184 105 -162 q 204 -205 156 -205 q 251 -202 224 -205 l 245 -260 q 187 -267 216 -267 q 72 -231 112 -267 q 33 -144 33 -195 q 113 0 33 -56 z "},"Ĵ":{"ha":669,"x_min":58,"x_max":670,"o":"m 448 998 l 548 998 l 548 324 q 524 108 548 169 q 444 11 500 47 q 307 -25 387 -25 q 188 -2 247 -25 q 58 81 130 22 l 111 160 q 241 83 189 105 q 307 68 275 68 q 385 94 350 68 q 434 162 420 119 q 448 328 448 205 l 448 998 m 379 1248 l 473 1248 l 670 1074 l 548 1074 l 429 1177 l 304 1074 l 178 1074 l 379 1248 z "},"ĵ":{"ha":282,"x_min":-105,"x_max":387,"o":"m 96 1046 l 191 1046 l 387 871 l 265 871 l 146 975 l 21 871 l -105 871 l 96 1046 m 94 738 l 191 738 l 191 -111 q 65 -289 191 -289 q -43 -266 15 -289 l -43 -180 q 26 -200 -7 -200 q 68 -186 52 -200 q 90 -153 85 -172 q 94 -83 94 -134 l 94 738 z "},"Ķ":{"ha":821,"x_min":121,"x_max":793,"o":"m 121 998 l 223 998 l 223 623 l 621 998 l 756 998 l 277 550 l 793 0 l 661 0 l 223 465 l 223 0 l 121 0 l 121 998 m 335 -86 q 399 -76 366 -76 q 506 -151 506 -76 q 464 -228 506 -197 q 350 -258 421 -258 q 252 -243 308 -258 l 267 -195 q 337 -204 313 -204 q 425 -160 425 -204 q 376 -131 425 -131 q 327 -140 357 -131 l 335 -86 z "},"ķ":{"ha":697,"x_min":105,"x_max":705,"o":"m 105 1023 l 201 1023 l 201 441 l 542 738 l 682 738 l 277 386 l 705 0 l 571 0 l 201 332 l 201 0 l 105 0 l 105 1023 m 284 -86 q 349 -76 315 -76 q 455 -151 455 -76 q 413 -228 455 -197 q 299 -258 370 -258 q 201 -243 257 -258 l 216 -195 q 286 -204 262 -204 q 374 -160 374 -204 q 325 -131 374 -131 q 276 -140 307 -131 l 284 -86 z "},"ĸ":{"ha":697,"x_min":105,"x_max":705,"o":"m 105 738 l 201 738 l 201 441 l 542 738 l 682 738 l 277 386 l 705 0 l 571 0 l 201 332 l 201 0 l 105 0 l 105 738 z "},"Ļ":{"ha":642,"x_min":121,"x_max":605,"o":"m 121 998 l 222 998 l 222 96 l 605 96 l 605 0 l 121 0 l 121 998 m 277 -86 q 341 -76 308 -76 q 448 -151 448 -76 q 405 -228 448 -197 q 292 -258 363 -258 q 193 -243 250 -258 l 208 -195 q 279 -204 254 -204 q 367 -160 367 -204 q 317 -131 367 -131 q 269 -140 299 -131 l 277 -86 z "},"ļ":{"ha":278,"x_min":-12,"x_max":243,"o":"m 92 1023 l 186 1023 l 186 0 l 92 0 l 92 1023 m 72 -86 q 136 -76 103 -76 q 243 -151 243 -76 q 200 -228 243 -197 q 87 -258 158 -258 q -12 -243 45 -258 l 3 -195 q 74 -204 50 -204 q 162 -160 162 -204 q 113 -131 162 -131 q 64 -140 94 -131 l 72 -86 z "},"Ņ":{"ha":1027,"x_min":122,"x_max":905,"o":"m 122 0 l 122 998 l 144 998 l 807 234 l 807 998 l 905 998 l 905 0 l 883 0 l 225 754 l 225 0 l 122 0 m 446 -86 q 511 -76 477 -76 q 617 -151 617 -76 q 575 -228 617 -197 q 461 -258 532 -258 q 363 -243 419 -258 l 378 -195 q 448 -204 424 -204 q 536 -160 536 -204 q 487 -131 536 -131 q 438 -140 469 -131 l 446 -86 z "},"ņ":{"ha":847,"x_min":106,"x_max":749,"o":"m 106 738 l 201 738 l 201 606 q 327 719 258 682 q 477 757 396 757 q 624 715 560 757 q 719 602 688 673 q 749 380 749 530 l 749 0 l 655 0 l 655 352 q 644 522 655 479 q 581 632 627 595 q 458 669 534 669 q 304 612 372 669 q 214 471 236 555 q 201 271 201 416 l 201 0 l 106 0 l 106 738 m 357 -86 q 421 -76 388 -76 q 528 -151 528 -76 q 485 -228 528 -197 q 372 -258 443 -258 q 273 -243 330 -258 l 288 -195 q 359 -204 334 -204 q 447 -160 447 -204 q 397 -131 447 -131 q 349 -140 379 -131 l 357 -86 z "},"Ŋ":{"ha":1079,"x_min":121,"x_max":1001,"o":"m 359 102 l 430 164 q 608 69 500 69 q 815 194 733 69 q 897 501 897 319 q 791 808 897 687 q 532 928 686 928 q 357 881 439 928 q 221 759 275 833 l 221 0 l 121 0 l 121 998 l 221 998 l 221 877 q 546 1023 355 1023 q 874 870 747 1023 q 1001 493 1001 718 q 888 120 1001 265 q 604 -25 774 -25 q 359 102 456 -25 z "},"ŋ":{"ha":847,"x_min":106,"x_max":749,"o":"m 749 380 l 749 -111 q 623 -289 749 -289 q 516 -266 574 -289 l 516 -180 q 585 -200 552 -200 q 628 -186 612 -200 q 650 -153 645 -172 q 655 -83 655 -134 l 655 352 q 641 538 655 480 q 580 632 627 595 q 458 669 534 669 q 342 640 393 669 q 256 559 290 610 q 211 456 222 509 q 201 271 201 403 l 201 0 l 106 0 l 106 738 l 201 738 l 201 606 q 477 757 315 757 q 639 704 572 757 q 728 580 706 652 q 749 380 749 508 z "},"Ō":{"ha":1207,"x_min":78,"x_max":1128,"o":"m 597 1023 q 976 871 823 1023 q 1128 499 1128 720 q 976 127 1128 280 q 605 -25 824 -25 q 231 127 383 -25 q 78 494 78 279 q 148 761 78 638 q 337 953 217 884 q 597 1023 457 1023 m 602 925 q 392 867 491 925 q 237 712 293 810 q 182 494 182 614 q 305 194 182 317 q 602 72 428 72 q 816 128 718 72 q 970 282 915 184 q 1025 499 1025 380 q 970 714 1025 618 q 814 867 915 810 q 602 925 714 925 m 370 1205 l 838 1205 l 838 1124 l 370 1124 l 370 1205 z "},"ō":{"ha":909,"x_min":71,"x_max":839,"o":"m 455 757 q 737 633 625 757 q 839 367 839 521 q 731 97 839 212 q 455 -19 624 -19 q 178 97 286 -19 q 71 367 71 212 q 172 633 71 520 q 455 757 284 757 m 455 664 q 252 576 337 664 q 168 365 168 489 q 206 216 168 285 q 311 109 245 146 q 455 71 376 71 q 600 109 534 71 q 704 216 665 146 q 743 365 743 285 q 657 576 743 489 q 455 664 572 664 m 221 1003 l 689 1003 l 689 922 l 221 922 l 221 1003 z "},"Ŏ":{"ha":1207,"x_min":78,"x_max":1128,"o":"m 597 1023 q 976 871 823 1023 q 1128 499 1128 720 q 976 127 1128 280 q 605 -25 824 -25 q 231 127 383 -25 q 78 494 78 279 q 148 761 78 638 q 337 953 217 884 q 597 1023 457 1023 m 602 925 q 392 867 491 925 q 237 712 293 810 q 182 494 182 614 q 305 194 182 317 q 602 72 428 72 q 816 128 718 72 q 970 282 915 184 q 1025 499 1025 380 q 970 714 1025 618 q 814 867 915 810 q 602 925 714 925 m 363 1236 l 452 1236 q 514 1183 475 1201 q 606 1166 553 1166 q 694 1181 661 1166 q 757 1236 727 1197 l 844 1236 q 767 1134 829 1175 q 606 1093 706 1093 q 443 1134 506 1093 q 363 1236 380 1174 z "},"ŏ":{"ha":909,"x_min":71,"x_max":839,"o":"m 455 757 q 737 633 625 757 q 839 367 839 521 q 731 97 839 212 q 455 -19 624 -19 q 178 97 286 -19 q 71 367 71 212 q 172 633 71 520 q 455 757 284 757 m 455 664 q 252 576 337 664 q 168 365 168 489 q 206 216 168 285 q 311 109 245 146 q 455 71 376 71 q 600 109 534 71 q 704 216 665 146 q 743 365 743 285 q 657 576 743 489 q 455 664 572 664 m 214 1034 l 304 1034 q 366 981 327 999 q 458 964 404 964 q 545 979 512 964 q 608 1034 578 995 l 695 1034 q 619 932 680 973 q 457 891 557 891 q 294 931 357 891 q 214 1034 231 972 z "},"Ŗ":{"ha":843,"x_min":127,"x_max":765,"o":"m 127 998 l 326 998 q 551 984 492 998 q 695 897 640 964 q 751 732 751 830 q 712 589 751 651 q 603 496 674 528 q 406 464 532 465 l 765 0 l 642 0 l 283 464 l 227 464 l 227 0 l 127 0 l 127 998 m 227 900 l 227 561 l 398 559 q 546 578 498 559 q 620 639 593 597 q 647 732 647 681 q 620 824 647 783 q 549 882 593 865 q 402 900 505 900 l 227 900 m 342 -86 q 406 -76 373 -76 q 513 -151 513 -76 q 470 -228 513 -197 q 357 -258 428 -258 q 258 -243 315 -258 l 273 -195 q 344 -204 319 -204 q 432 -160 432 -204 q 382 -131 432 -131 q 334 -140 364 -131 l 342 -86 z "},"ŗ":{"ha":418,"x_min":50,"x_max":443,"o":"m 70 738 l 167 738 l 167 630 q 258 725 210 694 q 359 757 307 757 q 443 732 398 757 l 393 652 q 343 665 363 665 q 252 626 296 665 q 184 505 208 587 q 167 250 167 441 l 167 0 l 70 0 l 70 738 m 133 -86 q 197 -76 164 -76 q 304 -151 304 -76 q 261 -228 304 -197 q 148 -258 219 -258 q 50 -243 106 -258 l 64 -195 q 135 -204 111 -204 q 223 -160 223 -204 q 174 -131 223 -131 q 125 -140 155 -131 l 133 -86 z "},"Ŝ":{"ha":692,"x_min":18,"x_max":602,"o":"m 18 186 l 103 237 q 310 72 193 72 q 404 95 360 72 q 471 158 448 119 q 494 241 494 197 q 460 340 494 292 q 290 500 414 406 q 134 636 165 594 q 81 789 81 707 q 113 907 81 854 q 200 992 144 961 q 323 1023 257 1023 q 455 988 394 1023 q 585 859 517 953 l 504 798 q 408 896 448 872 q 321 920 368 920 q 223 883 261 920 q 184 793 184 846 q 198 730 184 760 q 248 663 212 699 q 376 564 267 644 q 554 393 506 468 q 602 243 602 319 q 520 55 602 135 q 319 -25 437 -25 q 155 23 229 -25 q 18 186 81 72 m 301 1248 l 395 1248 l 592 1074 l 470 1074 l 351 1177 l 226 1074 l 100 1074 l 301 1248 z "},"ŝ":{"ha":539,"x_min":24,"x_max":516,"o":"m 477 657 l 416 594 q 267 668 340 668 q 188 637 221 668 q 155 566 155 607 q 182 498 155 530 q 296 420 210 465 q 440 314 402 365 q 477 198 477 262 q 414 44 477 107 q 254 -19 350 -19 q 133 9 191 -19 q 37 85 75 37 l 96 153 q 250 71 169 71 q 347 108 307 71 q 387 194 387 144 q 361 267 387 235 q 241 345 334 298 q 106 447 142 397 q 70 562 70 497 q 127 701 70 646 q 272 757 184 757 q 477 657 374 757 m 225 1046 l 319 1046 l 516 871 l 394 871 l 275 975 l 150 871 l 24 871 l 225 1046 z "},"Ŧ":{"ha":591,"x_min":22,"x_max":570,"o":"m 347 527 l 537 527 l 537 433 l 347 433 l 347 0 l 245 0 l 245 433 l 55 433 l 55 527 l 245 527 l 245 901 l 22 901 l 22 998 l 570 998 l 570 901 l 347 901 l 347 527 z "},"ŧ":{"ha":471,"x_min":43,"x_max":451,"o":"m 284 412 l 451 412 l 451 333 l 284 333 l 284 0 l 189 0 l 189 333 l 43 333 l 43 412 l 189 412 l 189 656 l 59 656 l 59 738 l 189 738 l 189 1012 l 284 1012 l 284 738 l 435 738 l 435 656 l 284 656 l 284 412 z "},"Ũ":{"ha":909,"x_min":125,"x_max":785,"o":"m 125 998 l 224 998 l 224 395 q 229 262 224 288 q 263 163 236 203 q 347 97 290 123 q 460 70 403 70 q 555 91 509 70 q 631 149 600 112 q 675 239 661 186 q 686 395 686 277 l 686 998 l 785 998 l 785 395 q 759 179 785 262 q 655 36 733 97 q 465 -25 576 -25 q 258 33 345 -25 q 143 185 172 90 q 125 395 125 243 l 125 998 m 661 1213 l 709 1147 q 626 1100 660 1112 q 555 1088 593 1088 q 455 1113 507 1088 q 399 1138 411 1135 q 363 1143 382 1143 q 318 1134 340 1143 q 256 1096 297 1126 l 212 1165 q 364 1231 273 1231 q 468 1204 408 1231 q 559 1177 526 1177 q 661 1213 596 1177 z "},"ũ":{"ha":844,"x_min":94,"x_max":739,"o":"m 94 738 l 189 738 l 189 393 q 203 220 189 267 q 280 113 223 152 q 417 73 338 73 q 552 112 496 73 q 628 212 607 150 q 642 393 642 255 l 642 738 l 739 738 l 739 376 q 704 146 739 223 q 596 25 668 68 q 417 -19 525 -19 q 237 25 309 -19 q 129 147 165 68 q 94 382 94 225 l 94 738 m 623 1012 l 671 946 q 588 899 622 911 q 517 886 555 886 q 417 911 469 886 q 361 937 373 933 q 326 941 345 941 q 280 933 302 941 q 218 895 259 924 l 174 964 q 326 1029 235 1029 q 430 1002 370 1029 q 521 976 488 976 q 623 1012 558 976 z "},"Ū":{"ha":909,"x_min":125,"x_max":785,"o":"m 125 998 l 224 998 l 224 395 q 229 262 224 288 q 263 163 236 203 q 347 97 290 123 q 460 70 403 70 q 555 91 509 70 q 631 149 600 112 q 675 239 661 186 q 686 395 686 277 l 686 998 l 785 998 l 785 395 q 759 179 785 262 q 655 36 733 97 q 465 -25 576 -25 q 258 33 345 -25 q 143 185 172 90 q 125 395 125 243 l 125 998 m 220 1205 l 688 1205 l 688 1124 l 220 1124 l 220 1205 z "},"ū":{"ha":844,"x_min":94,"x_max":739,"o":"m 94 738 l 189 738 l 189 393 q 203 220 189 267 q 280 113 223 152 q 417 73 338 73 q 552 112 496 73 q 628 212 607 150 q 642 393 642 255 l 642 738 l 739 738 l 739 376 q 704 146 739 223 q 596 25 668 68 q 417 -19 525 -19 q 237 25 309 -19 q 129 147 165 68 q 94 382 94 225 l 94 738 m 188 1003 l 656 1003 l 656 922 l 188 922 l 188 1003 z "},"Ŭ":{"ha":909,"x_min":125,"x_max":785,"o":"m 125 998 l 224 998 l 224 395 q 229 262 224 288 q 263 163 236 203 q 347 97 290 123 q 460 70 403 70 q 555 91 509 70 q 631 149 600 112 q 675 239 661 186 q 686 395 686 277 l 686 998 l 785 998 l 785 395 q 759 179 785 262 q 655 36 733 97 q 465 -25 576 -25 q 258 33 345 -25 q 143 185 172 90 q 125 395 125 243 l 125 998 m 214 1236 l 304 1236 q 366 1183 327 1201 q 458 1166 404 1166 q 545 1181 512 1166 q 608 1236 578 1197 l 695 1236 q 619 1134 680 1175 q 457 1093 557 1093 q 294 1134 357 1093 q 214 1236 231 1174 z "},"ŭ":{"ha":844,"x_min":94,"x_max":739,"o":"m 94 738 l 189 738 l 189 393 q 203 220 189 267 q 280 113 223 152 q 417 73 338 73 q 552 112 496 73 q 628 212 607 150 q 642 393 642 255 l 642 738 l 739 738 l 739 376 q 704 146 739 223 q 596 25 668 68 q 417 -19 525 -19 q 237 25 309 -19 q 129 147 165 68 q 94 382 94 225 l 94 738 m 182 1034 l 271 1034 q 333 981 294 999 q 425 964 372 964 q 513 979 479 964 q 576 1034 546 995 l 663 1034 q 586 932 648 973 q 425 891 525 891 q 262 931 325 891 q 182 1034 199 972 z "},"Ų":{"ha":909,"x_min":125,"x_max":785,"o":"m 125 998 l 224 998 l 224 395 q 229 262 224 288 q 263 163 236 203 q 347 97 290 123 q 460 70 403 70 q 555 91 509 70 q 631 149 600 112 q 675 239 661 186 q 686 395 686 277 l 686 998 l 785 998 l 785 395 q 759 179 785 262 q 655 36 733 97 q 465 -25 576 -25 q 258 33 345 -25 q 143 185 172 90 q 125 395 125 243 l 125 998 m 461 0 l 535 0 q 453 -131 453 -70 q 478 -184 453 -162 q 552 -205 504 -205 q 599 -202 572 -205 l 593 -260 q 535 -267 564 -267 q 420 -231 460 -267 q 380 -144 380 -195 q 461 0 380 -56 z "},"ų":{"ha":844,"x_min":94,"x_max":739,"o":"m 94 738 l 189 738 l 189 393 q 203 220 189 267 q 280 113 223 152 q 417 73 338 73 q 552 112 496 73 q 628 212 607 150 q 642 393 642 255 l 642 738 l 739 738 l 739 376 q 704 146 739 223 q 596 25 668 68 q 417 -19 525 -19 q 237 25 309 -19 q 129 147 165 68 q 94 382 94 225 l 94 738 m 408 0 l 481 0 q 399 -131 399 -70 q 425 -184 399 -162 q 498 -205 450 -205 q 545 -202 518 -205 l 539 -260 q 481 -267 511 -267 q 367 -231 406 -267 q 327 -144 327 -195 q 408 0 327 -56 z "},"Ŵ":{"ha":1333,"x_min":65,"x_max":1268,"o":"m 65 998 l 168 998 l 370 279 l 656 998 l 677 998 l 960 279 l 1166 998 l 1268 998 l 982 0 l 963 0 l 667 755 l 366 0 l 347 0 l 65 998 m 622 1248 l 716 1248 l 913 1074 l 791 1074 l 671 1177 l 547 1074 l 420 1074 l 622 1248 z "},"ŵ":{"ha":1154,"x_min":6,"x_max":1148,"o":"m 6 738 l 104 738 l 330 202 l 566 738 l 583 738 l 819 202 l 1049 738 l 1148 738 l 828 0 l 810 0 l 575 528 l 338 0 l 321 0 l 6 738 m 532 1046 l 627 1046 l 823 871 l 701 871 l 582 975 l 457 871 l 331 871 l 532 1046 z "},"Ŷ":{"ha":822,"x_min":43,"x_max":779,"o":"m 43 998 l 158 998 l 413 587 l 664 998 l 779 998 l 463 477 l 463 0 l 365 0 l 365 477 l 43 998 m 366 1248 l 460 1248 l 657 1074 l 535 1074 l 416 1177 l 291 1074 l 165 1074 l 366 1248 z "},"ŷ":{"ha":745,"x_min":26,"x_max":728,"o":"m 26 738 l 127 738 l 380 170 l 627 738 l 728 738 l 288 -270 l 187 -270 l 330 56 l 26 738 m 328 1046 l 422 1046 l 618 871 l 496 871 l 377 975 l 252 871 l 126 871 l 328 1046 z "},"ſ":{"ha":278,"x_min":92,"x_max":351,"o":"m 351 1023 l 351 930 q 261 952 300 952 q 211 939 231 952 q 189 904 191 925 q 186 838 186 884 l 186 0 l 92 0 l 92 812 q 101 951 92 915 q 146 1015 110 987 q 240 1042 182 1042 q 351 1023 289 1042 z "},"Ǻ":{"ha":1027,"x_min":33,"x_max":994,"o":"m 529 998 l 994 0 l 887 0 l 730 328 l 300 328 l 144 0 l 33 0 l 505 998 l 529 998 m 517 786 l 345 425 l 686 425 l 517 786 m 517 1236 q 619 1193 576 1236 q 661 1090 661 1151 q 619 988 661 1031 q 517 946 577 946 q 415 988 457 946 q 372 1090 372 1031 q 415 1193 372 1151 q 517 1236 457 1236 m 516 1167 q 463 1145 485 1167 q 441 1093 441 1123 q 463 1040 441 1062 q 516 1018 485 1018 q 568 1040 547 1018 q 590 1093 590 1062 q 568 1145 590 1123 q 516 1167 547 1167 m 543 1472 l 688 1472 l 488 1263 l 395 1263 l 543 1472 z "},"ǻ":{"ha":949,"x_min":73,"x_max":841,"o":"m 841 738 l 841 0 l 747 0 l 747 127 q 613 18 688 54 q 451 -19 539 -19 q 183 95 294 -19 q 73 371 73 208 q 184 644 73 530 q 454 757 296 757 q 618 718 545 757 q 747 602 692 680 l 747 738 l 841 738 m 461 665 q 315 626 382 665 q 208 517 248 587 q 168 368 168 446 q 208 218 168 290 q 316 107 248 147 q 460 68 383 68 q 608 107 538 68 q 716 214 678 146 q 753 365 753 281 q 669 579 753 493 q 461 665 585 665 m 475 1119 q 577 1077 535 1119 q 620 974 620 1034 q 578 872 620 914 q 475 829 536 829 q 373 872 416 829 q 331 974 331 914 q 373 1077 331 1034 q 475 1119 416 1119 m 475 1050 q 422 1028 444 1050 q 400 976 400 1006 q 422 923 400 945 q 475 901 444 901 q 527 923 505 901 q 549 976 549 945 q 527 1028 549 1006 q 475 1050 505 1050 m 505 1355 l 651 1355 l 451 1146 l 357 1146 l 505 1355 z "},"Ǽ":{"ha":1378,"x_min":1,"x_max":1262,"o":"m 1 0 l 645 998 l 1262 998 l 1262 895 l 792 895 l 792 589 l 1262 589 l 1262 490 l 792 490 l 792 98 l 1262 98 l 1262 0 l 691 0 l 691 327 l 328 327 l 117 0 l 1 0 m 392 420 l 691 420 l 691 882 l 392 420 m 881 1285 l 1027 1285 l 827 1076 l 733 1076 l 881 1285 z "},"ǽ":{"ha":1607,"x_min":81,"x_max":1525,"o":"m 844 738 l 844 604 q 983 724 916 690 q 1141 757 1050 757 q 1416 645 1308 757 q 1525 359 1525 534 l 861 359 q 903 211 863 281 q 1007 104 942 141 q 1150 68 1072 68 q 1302 110 1235 68 q 1419 242 1369 151 l 1501 201 q 1356 39 1451 96 q 1143 -19 1262 -19 q 957 28 1039 -19 q 844 132 898 61 l 844 0 l 758 0 l 758 136 q 640 28 697 61 q 462 -19 559 -19 q 193 95 305 -19 q 81 372 81 208 q 132 565 81 477 q 271 705 182 653 q 459 757 359 757 q 638 710 555 757 q 758 604 697 676 l 758 738 l 844 738 m 1419 441 q 1364 564 1400 519 q 1269 638 1329 610 q 1146 666 1209 666 q 1021 637 1082 666 q 922 561 960 608 q 866 441 883 513 l 1419 441 m 466 665 q 321 627 389 665 q 216 520 254 588 q 178 369 178 452 q 262 156 178 241 q 469 71 347 71 q 676 156 592 71 q 760 368 760 240 q 723 522 760 456 q 617 627 687 588 q 466 665 548 665 m 849 1084 l 995 1084 l 795 875 l 701 875 l 849 1084 z "},"Ǿ":{"ha":1206,"x_min":77,"x_max":1128,"o":"m 986 861 q 1091 699 1054 791 q 1128 499 1128 606 q 976 127 1128 280 q 604 -25 823 -25 q 308 62 438 -25 l 197 -70 l 124 -11 l 236 121 q 77 494 77 275 q 147 761 77 638 q 338 954 217 884 q 603 1023 458 1023 q 920 922 777 1023 l 1017 1040 l 1088 981 l 986 861 m 301 197 l 851 844 q 601 925 736 925 q 391 867 490 925 q 237 712 292 810 q 181 494 181 614 q 301 197 181 321 m 920 782 l 374 138 q 601 72 477 72 q 815 128 717 72 q 969 282 914 184 q 1025 499 1025 380 q 920 782 1025 665 m 649 1286 l 795 1286 l 595 1077 l 501 1077 l 649 1286 z "},"ǿ":{"ha":907,"x_min":69,"x_max":838,"o":"m 747 619 q 838 367 838 510 q 730 97 838 212 q 454 -19 623 -19 q 251 37 342 -19 l 172 -56 l 112 -6 l 189 85 q 69 367 69 201 q 176 639 69 522 q 453 757 283 757 q 691 675 589 757 l 770 768 l 832 718 l 747 619 m 249 155 l 629 602 q 454 664 549 664 q 312 624 378 664 q 205 514 245 585 q 166 365 166 444 q 188 251 166 307 q 249 155 210 195 m 683 544 l 311 107 q 453 71 381 71 q 598 109 532 71 q 703 216 664 146 q 741 364 741 285 q 683 544 741 462 m 495 1084 l 641 1084 l 441 875 l 347 875 l 495 1084 z "},"΄":{"ha":525,"x_min":203,"x_max":321,"o":"m 321 1084 l 302 854 l 222 854 l 203 1084 l 321 1084 z "},"΅":{"ha":525,"x_min":35,"x_max":489,"o":"m 321 1084 l 302 854 l 222 854 l 203 1084 l 321 1084 m 429 876 q 387 893 404 876 q 369 936 369 911 q 387 979 369 962 q 429 996 404 996 q 472 979 454 996 q 489 936 489 961 q 472 893 489 911 q 429 876 454 876 m 96 876 q 53 893 71 876 q 35 936 35 911 q 53 979 35 961 q 96 996 71 996 q 138 979 121 996 q 156 936 156 962 q 138 893 156 911 q 96 876 121 876 z "},"Ά":{"ha":1027,"x_min":33,"x_max":994,"o":"m 529 998 l 994 0 l 887 0 l 730 328 l 300 328 l 144 0 l 33 0 l 505 998 l 529 998 m 517 786 l 345 425 l 686 425 l 517 786 m 288 1023 l 269 793 l 189 793 l 169 1023 l 288 1023 z "},"·":{"ha":385,"x_min":127,"x_max":294,"o":"m 294 673 q 270 613 294 637 q 210 589 245 589 q 151 613 175 589 q 127 673 127 637 q 151 732 127 708 q 210 757 175 757 q 270 732 245 757 q 294 673 294 708 z "},"Έ":{"ha":806,"x_min":-68,"x_max":755,"o":"m 183 998 l 755 998 l 755 899 l 283 899 l 283 587 l 751 587 l 751 490 l 283 490 l 283 98 l 751 98 l 751 0 l 183 0 l 183 998 m 51 1023 l 32 793 l -48 793 l -68 1023 l 51 1023 z "},"Ή":{"ha":1010,"x_min":-68,"x_max":889,"o":"m 181 998 l 281 998 l 281 579 l 789 579 l 789 998 l 889 998 l 889 0 l 789 0 l 789 481 l 281 481 l 281 0 l 181 0 l 181 998 m 51 1023 l 32 793 l -48 793 l -68 1023 l 51 1023 z "},"Ί":{"ha":375,"x_min":-68,"x_max":268,"o":"m 168 998 l 268 998 l 268 0 l 168 0 l 168 998 m 51 1023 l 32 793 l -48 793 l -68 1023 l 51 1023 z "},"Ό":{"ha":1207,"x_min":-68,"x_max":1128,"o":"m 597 1023 q 976 871 823 1023 q 1128 499 1128 720 q 976 127 1128 280 q 605 -25 824 -25 q 231 127 383 -25 q 78 494 78 279 q 148 761 78 638 q 337 953 217 884 q 597 1023 457 1023 m 602 925 q 392 867 491 925 q 237 712 293 810 q 182 494 182 614 q 305 194 182 317 q 602 72 428 72 q 816 128 718 72 q 970 282 915 184 q 1025 499 1025 380 q 970 714 1025 618 q 814 867 915 810 q 602 925 714 925 m 51 1023 l 32 793 l -48 793 l -68 1023 l 51 1023 z "},"Ύ":{"ha":897,"x_min":-68,"x_max":854,"o":"m 117 998 l 233 998 l 488 587 l 739 998 l 854 998 l 538 477 l 538 0 l 439 0 l 439 477 l 117 998 m 51 1023 l 32 793 l -48 793 l -68 1023 l 51 1023 z "},"Ώ":{"ha":1162,"x_min":-68,"x_max":1074,"o":"m 748 94 l 1042 94 l 1042 0 l 661 0 l 661 133 q 917 359 863 264 q 970 557 970 453 q 863 825 970 725 q 581 924 755 924 q 299 824 408 924 q 191 557 191 724 q 242 361 191 454 q 500 133 293 269 l 500 0 l 120 0 l 120 94 l 414 94 q 152 323 216 216 q 88 558 88 429 q 227 893 88 765 q 581 1022 366 1022 q 935 893 796 1022 q 1074 558 1074 765 q 1009 323 1074 429 q 748 94 945 216 m 51 1023 l 32 793 l -48 793 l -68 1023 l 51 1023 z "},"ΐ":{"ha":278,"x_min":-87,"x_max":366,"o":"m 92 738 l 187 738 l 187 0 l 92 0 l 92 738 m 199 1084 l 180 854 l 100 854 l 80 1084 l 199 1084 m 307 876 q 264 893 281 876 q 246 936 246 911 q 264 979 246 962 q 307 996 281 996 q 349 979 332 996 q 366 936 366 961 q 349 893 366 911 q 307 876 332 876 m -27 876 q -70 893 -52 876 q -87 936 -87 911 q -70 979 -87 961 q -27 996 -52 996 q 16 979 -2 996 q 33 936 33 962 q 16 893 33 911 q -27 876 -2 876 z "},"Α":{"ha":1027,"x_min":33,"x_max":994,"o":"m 529 998 l 994 0 l 887 0 l 730 328 l 300 328 l 144 0 l 33 0 l 505 998 l 529 998 m 517 786 l 345 425 l 686 425 l 517 786 z "},"Β":{"ha":798,"x_min":124,"x_max":722,"o":"m 124 998 l 321 998 q 503 969 439 998 q 604 883 567 941 q 641 753 641 825 q 608 632 641 687 q 513 544 576 578 q 633 482 591 517 q 698 396 675 446 q 722 286 722 345 q 634 83 722 166 q 398 0 546 0 l 124 0 l 124 998 m 222 900 l 222 581 l 279 581 q 431 600 382 581 q 509 661 480 619 q 537 753 537 703 q 489 861 537 822 q 337 900 441 900 l 222 900 m 222 480 l 222 98 l 345 98 q 505 119 454 98 q 587 186 556 140 q 618 284 618 231 q 574 400 618 351 q 455 468 531 450 q 278 480 404 480 l 222 480 z "},"Γ":{"ha":642,"x_min":120,"x_max":620,"o":"m 620 899 l 219 899 l 219 0 l 120 0 l 120 998 l 620 998 l 620 899 z "},"Δ":{"ha":1027,"x_min":33,"x_max":994,"o":"m 994 0 l 33 0 l 505 998 l 529 998 l 994 0 m 840 98 l 517 786 l 191 98 l 840 98 z "},"Ε":{"ha":745,"x_min":122,"x_max":694,"o":"m 122 998 l 694 998 l 694 899 l 222 899 l 222 587 l 690 587 l 690 490 l 222 490 l 222 98 l 690 98 l 690 0 l 122 0 l 122 998 z "},"Ζ":{"ha":667,"x_min":38,"x_max":609,"o":"m 83 901 l 83 998 l 609 998 l 192 97 l 588 97 l 588 0 l 38 0 l 458 901 l 83 901 z "},"Η":{"ha":949,"x_min":120,"x_max":828,"o":"m 120 998 l 220 998 l 220 579 l 728 579 l 728 998 l 828 998 l 828 0 l 728 0 l 728 481 l 220 481 l 220 0 l 120 0 l 120 998 z "},"Θ":{"ha":1207,"x_min":78,"x_max":1128,"o":"m 605 -25 q 231 125 384 -25 q 78 494 78 275 q 229 869 78 715 q 597 1023 380 1023 q 976 873 823 1023 q 1128 499 1128 724 q 977 127 1128 279 q 605 -25 825 -25 m 602 925 q 308 803 433 925 q 182 494 182 680 q 303 195 182 317 q 602 72 425 72 q 902 193 779 72 q 1025 499 1025 315 q 893 811 1025 696 q 602 925 762 925 m 853 456 l 353 456 l 353 553 l 853 553 l 853 456 z "},"Ι":{"ha":314,"x_min":107,"x_max":207,"o":"m 107 998 l 207 998 l 207 0 l 107 0 l 107 998 z "},"Κ":{"ha":821,"x_min":121,"x_max":793,"o":"m 121 998 l 223 998 l 223 623 l 621 998 l 756 998 l 277 550 l 793 0 l 661 0 l 223 465 l 223 0 l 121 0 l 121 998 z "},"Λ":{"ha":975,"x_min":45,"x_max":929,"o":"m 929 0 l 821 0 l 490 771 l 154 0 l 45 0 l 479 998 l 501 998 l 929 0 z "},"Μ":{"ha":1276,"x_min":76,"x_max":1200,"o":"m 76 0 l 218 998 l 234 998 l 640 179 l 1041 998 l 1057 998 l 1200 0 l 1102 0 l 1004 713 l 652 0 l 627 0 l 269 719 l 172 0 l 76 0 z "},"Ν":{"ha":1027,"x_min":122,"x_max":905,"o":"m 122 0 l 122 998 l 144 998 l 807 234 l 807 998 l 905 998 l 905 0 l 883 0 l 225 754 l 225 0 l 122 0 z "},"Ξ":{"ha":737,"x_min":78,"x_max":659,"o":"m 659 899 l 78 899 l 78 998 l 659 998 l 659 899 m 659 490 l 78 490 l 78 587 l 659 587 l 659 490 m 659 0 l 78 0 l 78 98 l 659 98 l 659 0 z "},"Ο":{"ha":1207,"x_min":78,"x_max":1128,"o":"m 597 1023 q 976 871 823 1023 q 1128 499 1128 720 q 976 127 1128 280 q 605 -25 824 -25 q 231 127 383 -25 q 78 494 78 279 q 148 761 78 638 q 337 953 217 884 q 597 1023 457 1023 m 602 925 q 392 867 491 925 q 237 712 293 810 q 182 494 182 614 q 305 194 182 317 q 602 72 428 72 q 816 128 718 72 q 970 282 915 184 q 1025 499 1025 380 q 970 714 1025 618 q 814 867 915 810 q 602 925 714 925 z "},"Π":{"ha":949,"x_min":120,"x_max":828,"o":"m 828 0 l 728 0 l 728 903 l 220 903 l 220 0 l 120 0 l 120 998 l 828 998 l 828 0 z "},"Ρ":{"ha":822,"x_min":121,"x_max":744,"o":"m 121 998 l 319 998 q 550 983 490 998 q 690 896 635 962 q 744 732 744 831 q 691 567 744 632 q 545 480 638 503 q 292 464 477 464 l 220 464 l 220 0 l 121 0 l 121 998 m 220 901 l 220 562 l 389 559 q 539 578 492 559 q 614 638 587 597 q 641 732 641 680 q 614 824 641 782 q 542 883 587 865 q 397 901 498 901 l 220 901 z "},"Σ":{"ha":696,"x_min":45,"x_max":629,"o":"m 629 0 l 45 0 l 323 498 l 49 998 l 618 998 l 618 901 l 212 901 l 435 497 l 210 97 l 629 97 l 629 0 z "},"Τ":{"ha":591,"x_min":22,"x_max":570,"o":"m 22 901 l 22 998 l 570 998 l 570 901 l 347 901 l 347 0 l 245 0 l 245 901 l 22 901 z "},"Υ":{"ha":822,"x_min":43,"x_max":779,"o":"m 43 998 l 158 998 l 413 587 l 664 998 l 779 998 l 463 477 l 463 0 l 365 0 l 365 477 l 43 998 z "},"Φ":{"ha":1194,"x_min":68,"x_max":1126,"o":"m 647 98 l 647 0 l 547 0 l 547 98 q 197 220 327 113 q 68 505 68 328 q 199 790 68 681 q 547 912 330 899 l 547 998 l 647 998 l 647 912 q 996 790 867 898 q 1126 506 1126 683 q 995 220 1126 330 q 647 98 864 111 m 647 820 l 647 191 q 915 276 808 201 q 1023 506 1023 350 q 923 727 1023 645 q 647 820 824 808 m 547 191 l 547 820 q 278 735 386 810 q 171 505 171 661 q 270 284 171 366 q 547 191 370 203 z "},"Χ":{"ha":846,"x_min":47,"x_max":800,"o":"m 68 998 l 185 998 l 424 608 l 665 998 l 780 998 l 483 514 l 800 0 l 683 0 l 424 418 l 163 0 l 47 0 l 365 514 l 68 998 z "},"Ψ":{"ha":1099,"x_min":95,"x_max":1004,"o":"m 1004 654 q 963 433 1004 514 q 829 301 923 352 q 600 243 734 250 l 600 0 l 499 0 l 499 243 q 286 292 374 250 q 147 412 199 333 q 95 661 95 492 l 95 998 l 197 998 l 197 694 q 217 506 197 570 q 309 395 236 441 q 499 340 381 349 l 499 998 l 600 998 l 600 340 q 794 397 723 349 q 883 506 865 444 q 901 694 901 567 l 901 998 l 1004 998 l 1004 654 z "},"Ω":{"ha":1162,"x_min":88,"x_max":1074,"o":"m 748 94 l 1042 94 l 1042 0 l 661 0 l 661 133 q 917 359 863 264 q 970 557 970 453 q 863 825 970 725 q 581 924 755 924 q 299 824 408 924 q 191 557 191 724 q 242 361 191 454 q 500 133 293 269 l 500 0 l 120 0 l 120 94 l 414 94 q 152 323 216 216 q 88 558 88 429 q 227 893 88 765 q 581 1022 366 1022 q 935 893 796 1022 q 1074 558 1074 765 q 1009 323 1074 429 q 748 94 945 216 z "},"Ϊ":{"ha":314,"x_min":-60,"x_max":374,"o":"m 107 998 l 207 998 l 207 0 l 107 0 l 107 998 m 19 1232 q 75 1208 52 1232 q 98 1153 98 1185 q 75 1097 98 1120 q 19 1074 52 1074 q -37 1097 -14 1074 q -60 1153 -60 1120 q -37 1208 -60 1185 q 19 1232 -14 1232 m 296 1232 q 351 1208 328 1232 q 374 1153 374 1185 q 351 1097 374 1120 q 296 1074 328 1074 q 240 1097 263 1074 q 217 1153 217 1120 q 240 1208 217 1185 q 296 1232 263 1232 z "},"Ϋ":{"ha":822,"x_min":43,"x_max":779,"o":"m 43 998 l 158 998 l 413 587 l 664 998 l 779 998 l 463 477 l 463 0 l 365 0 l 365 477 l 43 998 m 273 1232 q 328 1208 305 1232 q 351 1153 351 1185 q 328 1097 351 1120 q 273 1074 305 1074 q 217 1097 240 1074 q 194 1153 194 1120 q 217 1208 194 1185 q 273 1232 240 1232 m 549 1232 q 605 1208 582 1232 q 628 1153 628 1185 q 605 1097 628 1120 q 549 1074 582 1074 q 494 1097 517 1074 q 471 1153 471 1120 q 494 1208 471 1185 q 549 1232 517 1232 z "},"ά":{"ha":949,"x_min":73,"x_max":841,"o":"m 841 738 l 841 0 l 747 0 l 747 127 q 613 18 688 54 q 451 -19 539 -19 q 183 95 294 -19 q 73 371 73 208 q 184 644 73 530 q 454 757 296 757 q 618 718 545 757 q 747 602 692 680 l 747 738 l 841 738 m 461 665 q 315 626 382 665 q 208 517 248 587 q 168 368 168 446 q 208 218 168 290 q 316 107 248 147 q 460 68 383 68 q 608 107 538 68 q 716 214 678 146 q 753 365 753 281 q 669 579 753 493 q 461 665 585 665 m 534 1084 l 515 854 l 435 854 l 415 1084 l 534 1084 z "},"έ":{"ha":587,"x_min":70,"x_max":561,"o":"m 561 79 q 317 -20 469 -20 q 139 43 209 -20 q 70 210 70 106 q 203 405 70 349 q 101 562 101 446 q 163 704 101 649 q 318 758 225 758 q 530 675 430 758 l 476 609 q 322 669 399 669 q 228 636 262 669 q 193 548 193 604 q 229 461 193 495 q 319 427 264 427 l 369 427 l 369 346 l 311 346 q 211 307 251 346 q 172 210 172 269 q 214 107 172 144 q 326 69 256 69 q 501 146 433 69 l 561 79 m 353 1084 l 334 854 l 254 854 l 234 1084 l 353 1084 z "},"ή":{"ha":847,"x_min":106,"x_max":749,"o":"m 749 -270 l 655 -270 l 655 352 q 644 524 655 463 q 586 628 633 586 q 458 669 539 669 q 303 613 370 669 q 219 489 237 556 q 201 271 201 421 l 201 0 l 106 0 l 106 738 l 201 738 l 201 606 q 477 757 314 757 q 621 717 557 757 q 717 606 684 677 q 749 380 749 535 l 749 -270 m 483 1084 l 464 854 l 384 854 l 364 1084 l 483 1084 z "},"ί":{"ha":278,"x_min":79,"x_max":198,"o":"m 92 738 l 187 738 l 187 0 l 92 0 l 92 738 m 198 1084 l 179 854 l 99 854 l 79 1084 l 198 1084 z "},"ΰ":{"ha":827,"x_min":92,"x_max":756,"o":"m 92 738 l 187 738 l 187 393 q 199 223 187 283 q 269 119 212 164 q 415 73 327 73 q 597 153 535 73 q 659 369 659 233 q 487 671 659 554 l 539 758 q 756 351 756 630 q 664 85 756 189 q 415 -19 572 -19 q 181 66 270 -19 q 92 382 92 151 l 92 738 m 473 1084 l 454 854 l 374 854 l 354 1084 l 473 1084 m 581 876 q 538 893 555 876 q 520 936 520 911 q 538 979 520 962 q 581 996 555 996 q 623 979 606 996 q 640 936 640 961 q 623 893 640 911 q 581 876 606 876 m 247 876 q 204 893 222 876 q 186 936 186 911 q 204 979 186 961 q 247 996 222 996 q 290 979 272 996 q 307 936 307 962 q 290 893 307 911 q 247 876 272 876 z "},"α":{"ha":949,"x_min":73,"x_max":841,"o":"m 841 738 l 841 0 l 747 0 l 747 127 q 613 18 688 54 q 451 -19 539 -19 q 183 95 294 -19 q 73 371 73 208 q 184 644 73 530 q 454 757 296 757 q 618 718 545 757 q 747 602 692 680 l 747 738 l 841 738 m 461 665 q 315 626 382 665 q 208 517 248 587 q 168 368 168 446 q 208 218 168 290 q 316 107 248 147 q 460 68 383 68 q 608 107 538 68 q 716 214 678 146 q 753 365 753 281 q 669 579 753 493 q 461 665 585 665 z "},"β":{"ha":828,"x_min":106,"x_max":758,"o":"m 201 111 l 201 -270 l 106 -270 l 106 751 q 186 974 106 907 q 377 1042 267 1042 q 556 982 490 1042 q 622 821 622 922 q 473 610 622 665 q 681 517 604 597 q 758 313 758 437 q 664 76 758 172 q 431 -19 570 -19 q 201 111 286 -19 m 295 546 l 295 625 q 525 812 525 631 q 487 913 525 874 q 385 952 448 952 q 249 903 296 952 q 201 728 201 854 l 202 313 q 269 137 202 203 q 429 71 335 71 q 594 139 528 71 q 661 307 661 208 q 594 476 661 406 q 342 546 526 546 l 295 546 z "},"γ":{"ha":770,"x_min":36,"x_max":730,"o":"m 730 738 l 431 83 l 431 -270 l 337 -270 l 337 84 l 36 738 l 137 738 l 384 201 l 629 738 l 730 738 z "},"δ":{"ha":794,"x_min":71,"x_max":724,"o":"m 302 614 q 190 811 190 690 q 269 978 190 913 q 465 1042 348 1042 q 626 1023 550 1042 l 602 938 q 472 953 545 953 q 337 915 387 953 q 287 814 287 876 q 320 721 287 760 q 495 625 353 682 q 724 309 724 534 q 630 76 724 171 q 397 -19 536 -19 q 165 76 259 -19 q 71 309 71 170 q 302 614 71 533 m 397 547 q 234 476 301 547 q 168 307 168 406 q 234 140 168 208 q 397 71 300 71 q 561 140 495 71 q 627 307 627 208 q 561 476 627 406 q 397 547 494 547 m 397 637 z "},"ε":{"ha":587,"x_min":70,"x_max":561,"o":"m 561 79 q 317 -20 469 -20 q 139 43 209 -20 q 70 210 70 106 q 203 405 70 349 q 101 562 101 446 q 163 704 101 649 q 318 758 225 758 q 530 675 430 758 l 476 609 q 322 669 399 669 q 228 636 262 669 q 193 548 193 604 q 229 461 193 495 q 319 427 264 427 l 369 427 l 369 346 l 311 346 q 211 307 251 346 q 172 210 172 269 q 214 107 172 144 q 326 69 256 69 q 501 146 433 69 l 561 79 z "},"ζ":{"ha":646,"x_min":80,"x_max":633,"o":"m 263 -275 l 288 -190 q 368 -201 330 -201 q 536 -94 536 -201 q 498 -30 536 -54 q 358 14 461 -6 q 80 342 80 67 q 179 627 80 486 q 499 939 278 768 l 158 939 l 158 1023 l 616 1023 l 616 939 q 274 603 372 734 q 177 349 177 473 q 225 183 177 243 q 402 96 274 122 q 595 19 557 64 q 632 -90 633 -25 q 561 -236 632 -183 q 375 -289 489 -289 q 263 -275 316 -289 z "},"η":{"ha":847,"x_min":106,"x_max":749,"o":"m 749 -270 l 655 -270 l 655 352 q 644 524 655 463 q 586 628 633 586 q 458 669 539 669 q 303 613 370 669 q 219 489 237 556 q 201 271 201 421 l 201 0 l 106 0 l 106 738 l 201 738 l 201 606 q 477 757 314 757 q 621 717 557 757 q 717 606 684 677 q 749 380 749 535 l 749 -270 z "},"θ":{"ha":909,"x_min":71,"x_max":839,"o":"m 455 -19 q 172 123 273 -19 q 71 509 71 265 q 172 897 71 753 q 455 1042 273 1042 q 738 897 637 1042 q 839 509 839 753 q 738 123 839 266 q 455 -19 637 -19 m 741 553 q 658 847 732 739 q 455 955 583 955 q 252 848 327 955 q 168 553 178 741 l 741 553 m 742 470 l 168 470 q 250 174 176 280 q 455 68 323 68 q 661 173 587 68 q 742 470 734 279 z "},"ι":{"ha":278,"x_min":92,"x_max":187,"o":"m 92 738 l 187 738 l 187 0 l 92 0 l 92 738 z "},"κ":{"ha":697,"x_min":105,"x_max":705,"o":"m 705 0 l 571 0 l 201 332 l 201 0 l 105 0 l 105 739 l 201 739 l 201 441 l 542 738 l 682 738 l 277 386 l 705 0 z "},"λ":{"ha":745,"x_min":26,"x_max":728,"o":"m 728 0 l 627 0 l 380 568 l 127 0 l 26 0 l 330 682 l 180 1023 l 281 1023 l 728 0 z "},"μ":{"ha":847,"x_min":98,"x_max":741,"o":"m 741 1 l 646 1 l 646 133 q 370 -18 532 -18 q 193 60 252 -18 l 193 -270 l 98 -270 l 98 739 l 193 739 l 193 387 q 203 214 193 276 q 261 111 214 153 q 389 69 309 69 q 544 126 477 69 q 628 250 610 182 q 646 468 646 317 l 646 739 l 741 739 l 741 1 z "},"ν":{"ha":770,"x_min":36,"x_max":730,"o":"m 36 738 l 137 738 l 384 201 l 629 738 l 730 738 l 393 0 l 376 0 l 36 738 z "},"ξ":{"ha":646,"x_min":80,"x_max":632,"o":"m 263 -275 l 288 -190 q 368 -201 330 -201 q 536 -94 536 -201 q 506 -35 536 -59 q 345 14 475 -11 q 80 322 80 64 q 137 495 80 420 q 291 600 193 570 q 136 811 136 677 q 218 980 136 919 q 431 1042 300 1042 q 620 1017 535 1042 l 597 926 q 418 953 519 953 q 283 910 334 953 q 233 798 233 867 q 310 676 233 722 q 489 631 387 631 l 570 631 l 570 548 l 433 548 q 255 494 333 548 q 177 329 177 441 q 223 179 177 234 q 387 98 270 123 q 580 32 528 66 q 632 -90 632 -3 q 561 -236 632 -183 q 375 -289 489 -289 q 263 -275 316 -289 z "},"ο":{"ha":909,"x_min":71,"x_max":839,"o":"m 455 757 q 737 633 625 757 q 839 367 839 521 q 731 97 839 212 q 455 -19 624 -19 q 178 97 286 -19 q 71 367 71 212 q 172 633 71 520 q 455 757 284 757 m 455 664 q 252 576 337 664 q 168 365 168 489 q 206 216 168 285 q 311 109 245 146 q 455 71 376 71 q 600 109 534 71 q 704 216 665 146 q 743 365 743 285 q 657 576 743 489 q 455 664 572 664 z "},"π":{"ha":931,"x_min":34,"x_max":897,"o":"m 897 654 l 747 654 l 747 0 l 652 0 l 652 654 l 279 654 l 279 0 l 184 0 l 184 654 l 34 654 l 34 738 l 897 738 l 897 654 z "},"ρ":{"ha":930,"x_min":92,"x_max":860,"o":"m 186 139 l 186 -270 l 92 -270 l 92 347 q 202 642 92 527 q 476 757 312 757 q 750 642 641 757 q 860 367 860 527 q 749 93 860 204 q 476 -19 639 -19 q 186 139 294 -19 m 476 664 q 272 576 355 664 q 189 365 189 488 q 270 157 189 243 q 476 71 352 71 q 685 159 606 71 q 764 365 764 246 q 680 576 764 488 q 476 664 596 664 z "},"ς":{"ha":804,"x_min":71,"x_max":767,"o":"m 767 585 l 692 538 q 446 667 594 667 q 246 584 326 667 q 166 370 166 500 q 229 195 166 259 q 449 101 291 131 q 659 37 602 73 q 716 -90 716 1 q 645 -236 716 -183 q 459 -289 573 -289 q 347 -275 400 -289 l 372 -190 q 452 -201 414 -201 q 620 -94 620 -201 q 583 -30 620 -54 q 422 14 547 -6 q 71 363 71 70 q 179 646 71 534 q 450 757 288 757 q 767 585 664 757 z "},"σ":{"ha":996,"x_min":71,"x_max":968,"o":"m 968 654 l 717 654 q 839 367 839 536 q 728 93 839 204 q 455 -19 618 -19 q 181 92 292 -19 q 71 367 71 203 q 180 642 71 526 q 455 757 290 757 q 580 738 522 757 l 968 738 l 968 654 m 455 664 q 252 577 336 664 q 168 365 168 490 q 249 157 168 243 q 455 71 331 71 q 666 161 589 71 q 743 365 743 251 q 659 576 743 488 q 455 664 575 664 z "},"τ":{"ha":558,"x_min":34,"x_max":524,"o":"m 524 654 l 327 654 l 327 0 l 231 0 l 231 654 l 34 654 l 34 738 l 524 738 l 524 654 z "},"υ":{"ha":827,"x_min":92,"x_max":756,"o":"m 92 738 l 187 738 l 187 393 q 199 223 187 283 q 269 119 212 164 q 415 73 327 73 q 597 153 535 73 q 659 369 659 233 q 487 671 659 554 l 539 758 q 756 351 756 630 q 664 85 756 189 q 415 -19 572 -19 q 181 66 270 -19 q 92 382 92 151 l 92 738 z "},"φ":{"ha":1063,"x_min":71,"x_max":993,"o":"m 579 -18 l 579 -270 l 484 -270 l 484 -17 q 182 97 294 -5 q 71 367 71 198 q 148 596 71 499 q 357 739 224 693 l 388 648 q 168 365 168 570 q 484 77 168 103 l 484 755 q 532 757 510 757 q 869 653 745 757 q 993 367 993 549 q 881 97 993 199 q 579 -18 770 -5 m 579 664 l 579 77 q 895 365 895 106 q 810 581 895 501 q 579 664 725 660 z "},"χ":{"ha":667,"x_min":-5,"x_max":672,"o":"m 640 738 l 385 263 l 672 -270 l 564 -270 l 331 163 l 98 -270 l -5 -270 l 279 259 l 22 738 l 129 738 l 333 359 l 536 738 l 640 738 z "},"ψ":{"ha":1022,"x_min":92,"x_max":930,"o":"m 930 376 q 818 71 930 155 q 559 -18 705 -13 l 559 -270 l 464 -270 l 464 -18 q 268 28 349 -11 q 140 144 188 68 q 92 382 92 220 l 92 738 l 186 738 l 186 414 q 204 234 186 296 q 289 128 222 172 q 464 75 355 84 l 464 738 l 559 738 l 559 75 q 736 129 671 83 q 819 232 802 174 q 836 414 836 290 l 836 738 l 930 738 l 930 376 z "},"ω":{"ha":1191,"x_min":71,"x_max":1120,"o":"m 595 135 q 518 23 576 65 q 385 -19 461 -19 q 155 76 239 -19 q 71 337 71 170 q 184 630 71 513 q 474 757 297 747 l 481 665 q 253 564 338 654 q 168 334 168 473 q 223 137 168 207 q 378 68 279 68 q 502 136 456 68 q 547 331 547 203 l 547 422 l 644 422 l 644 331 q 689 136 644 203 q 813 68 734 68 q 966 136 908 68 q 1023 334 1023 203 q 938 565 1023 475 q 709 665 853 655 l 717 757 q 1007 630 893 748 q 1120 337 1120 513 q 1036 76 1120 170 q 806 -19 952 -19 q 672 23 730 -19 q 595 135 615 65 z "},"ϊ":{"ha":278,"x_min":-78,"x_max":356,"o":"m 92 738 l 187 738 l 187 0 l 92 0 l 92 738 m 1 1029 q 56 1006 33 1029 q 79 951 79 983 q 56 895 79 918 q 1 872 33 872 q -55 895 -32 872 q -78 951 -78 918 q -55 1006 -78 983 q 1 1029 -32 1029 m 277 1029 q 333 1006 310 1029 q 356 951 356 983 q 333 895 356 918 q 277 872 310 872 q 222 895 245 872 q 199 951 199 918 q 222 1006 199 983 q 277 1029 245 1029 z "},"ϋ":{"ha":827,"x_min":92,"x_max":756,"o":"m 92 738 l 187 738 l 187 393 q 199 223 187 283 q 269 119 212 164 q 415 73 327 73 q 597 153 535 73 q 659 369 659 233 q 487 671 659 554 l 539 758 q 756 351 756 630 q 664 85 756 189 q 415 -19 572 -19 q 181 66 270 -19 q 92 382 92 151 l 92 738 m 275 1029 q 331 1006 308 1029 q 354 951 354 983 q 331 895 354 918 q 275 872 308 872 q 220 895 243 872 q 197 951 197 918 q 220 1006 197 983 q 275 1029 243 1029 m 552 1029 q 608 1006 585 1029 q 631 951 631 983 q 608 895 631 918 q 552 872 585 872 q 496 895 519 872 q 473 951 473 918 q 496 1006 473 983 q 552 1029 519 1029 z "},"ό":{"ha":909,"x_min":71,"x_max":839,"o":"m 455 757 q 737 633 625 757 q 839 367 839 521 q 731 97 839 212 q 455 -19 624 -19 q 178 97 286 -19 q 71 367 71 212 q 172 633 71 520 q 455 757 284 757 m 455 664 q 252 576 337 664 q 168 365 168 489 q 206 216 168 285 q 311 109 245 146 q 455 71 376 71 q 600 109 534 71 q 704 216 665 146 q 743 365 743 285 q 657 576 743 489 q 455 664 572 664 m 514 1084 l 495 854 l 415 854 l 395 1084 l 514 1084 z "},"ύ":{"ha":827,"x_min":92,"x_max":756,"o":"m 92 738 l 187 738 l 187 393 q 199 223 187 283 q 269 119 212 164 q 415 73 327 73 q 597 153 535 73 q 659 369 659 233 q 487 671 659 554 l 539 758 q 756 351 756 630 q 664 85 756 189 q 415 -19 572 -19 q 181 66 270 -19 q 92 382 92 151 l 92 738 m 473 1084 l 454 854 l 374 854 l 354 1084 l 473 1084 z "},"ώ":{"ha":1191,"x_min":71,"x_max":1120,"o":"m 595 135 q 518 23 576 65 q 385 -19 461 -19 q 155 76 239 -19 q 71 337 71 170 q 184 630 71 513 q 474 757 297 747 l 481 665 q 253 564 338 654 q 168 334 168 473 q 223 137 168 207 q 378 68 279 68 q 502 136 456 68 q 547 331 547 203 l 547 422 l 644 422 l 644 331 q 689 136 644 203 q 813 68 734 68 q 966 136 908 68 q 1023 334 1023 203 q 938 565 1023 475 q 709 665 853 655 l 717 757 q 1007 630 893 748 q 1120 337 1120 513 q 1036 76 1120 170 q 806 -19 952 -19 q 672 23 730 -19 q 595 135 615 65 m 654 1084 l 635 854 l 555 854 l 536 1084 l 654 1084 z "},"Ё":{"ha":745,"x_min":122,"x_max":694,"o":"m 122 998 l 694 998 l 694 899 l 222 899 l 222 587 l 690 587 l 690 490 l 222 490 l 222 98 l 690 98 l 690 0 l 122 0 l 122 998 m 275 1232 q 331 1208 308 1232 q 354 1153 354 1185 q 331 1097 354 1120 q 275 1074 308 1074 q 220 1097 243 1074 q 197 1153 197 1120 q 220 1208 197 1185 q 275 1232 243 1232 m 552 1232 q 608 1208 585 1232 q 631 1153 631 1185 q 608 1097 631 1120 q 552 1074 585 1074 q 496 1097 519 1074 q 473 1153 473 1120 q 496 1208 473 1185 q 552 1232 519 1232 z "},"Ђ":{"ha":932,"x_min":22,"x_max":854,"o":"m 347 901 l 347 579 l 438 579 q 678 555 598 579 q 806 456 758 531 q 854 267 854 380 q 793 53 854 128 q 620 -23 732 -23 q 454 43 522 -23 l 516 113 q 612 71 560 71 q 714 124 678 71 q 751 267 751 176 q 721 404 751 358 q 636 466 691 450 q 468 482 581 482 l 347 482 l 347 0 l 245 0 l 245 901 l 22 901 l 22 998 l 569 998 l 569 901 l 347 901 z "},"Ѓ":{"ha":642,"x_min":120,"x_max":627,"o":"m 219 0 l 120 0 l 120 998 l 620 998 l 620 899 l 219 899 l 219 0 m 481 1285 l 627 1285 l 427 1076 l 333 1076 l 481 1285 z "},"Є":{"ha":1129,"x_min":79,"x_max":1054,"o":"m 188 454 l 659 454 l 659 552 l 192 552 q 333 824 205 723 q 618 924 462 924 q 975 752 843 924 l 1054 812 q 871 966 986 910 q 616 1023 756 1023 q 233 873 387 1023 q 79 505 79 724 q 225 129 79 283 q 618 -25 371 -25 q 1054 174 897 -25 l 975 233 q 625 69 835 69 q 339 163 464 69 q 188 454 215 257 z "},"Ѕ":{"ha":692,"x_min":18,"x_max":602,"o":"m 18 186 l 103 237 q 310 72 193 72 q 404 95 360 72 q 471 158 448 119 q 494 241 494 197 q 460 340 494 292 q 290 500 414 406 q 134 636 165 594 q 81 789 81 707 q 113 907 81 854 q 200 992 144 961 q 323 1023 257 1023 q 455 988 394 1023 q 585 859 517 953 l 504 798 q 408 896 448 872 q 321 920 368 920 q 223 883 261 920 q 184 793 184 846 q 198 730 184 760 q 248 663 212 699 q 376 564 267 644 q 554 393 506 468 q 602 243 602 319 q 520 55 602 135 q 319 -25 437 -25 q 155 23 229 -25 q 18 186 81 72 z "},"І":{"ha":314,"x_min":107,"x_max":207,"o":"m 107 998 l 207 998 l 207 0 l 107 0 l 107 998 z "},"Ї":{"ha":314,"x_min":-60,"x_max":374,"o":"m 107 998 l 207 998 l 207 0 l 107 0 l 107 998 m 19 1232 q 75 1208 52 1232 q 98 1153 98 1185 q 75 1097 98 1120 q 19 1074 52 1074 q -37 1097 -14 1074 q -60 1153 -60 1120 q -37 1208 -60 1185 q 19 1232 -14 1232 m 296 1232 q 351 1208 328 1232 q 374 1153 374 1185 q 351 1097 374 1120 q 296 1074 328 1074 q 240 1097 263 1074 q 217 1153 217 1120 q 240 1208 217 1185 q 296 1232 263 1232 z "},"Ј":{"ha":669,"x_min":58,"x_max":548,"o":"m 448 998 l 548 998 l 548 324 q 524 108 548 169 q 444 11 500 47 q 307 -25 387 -25 q 188 -2 247 -25 q 58 81 130 22 l 111 160 q 241 83 189 105 q 307 68 275 68 q 385 94 350 68 q 434 162 420 119 q 448 328 448 205 l 448 998 z "},"Љ":{"ha":1479,"x_min":33,"x_max":1402,"o":"m 529 998 l 737 570 l 964 570 q 1214 545 1126 570 q 1352 452 1303 520 q 1402 283 1402 384 q 1351 112 1402 180 q 1220 22 1299 43 q 994 0 1140 0 l 887 0 l 517 786 l 143 0 l 33 0 l 505 998 l 529 998 m 949 96 l 999 96 q 1179 111 1124 96 q 1264 171 1234 125 q 1295 283 1295 216 q 1262 398 1295 352 q 1174 458 1230 444 q 977 472 1119 472 l 773 472 l 949 96 z "},"Њ":{"ha":1449,"x_min":120,"x_max":1371,"o":"m 220 580 l 728 580 l 728 998 l 828 998 l 828 580 l 899 580 q 1115 573 1044 580 q 1247 534 1187 566 q 1339 441 1307 501 q 1371 298 1371 382 q 1323 115 1371 184 q 1194 23 1274 45 q 926 0 1114 0 l 728 0 l 728 482 l 220 482 l 220 0 l 120 0 l 120 998 l 220 998 l 220 580 m 828 96 l 934 96 q 1137 107 1078 96 q 1231 165 1197 119 q 1265 292 1265 211 q 1230 413 1265 368 q 1135 471 1194 459 q 912 482 1077 482 l 828 482 l 828 96 z "},"Ћ":{"ha":943,"x_min":22,"x_max":854,"o":"m 347 0 l 245 0 l 245 901 l 22 901 l 22 998 l 570 998 l 570 901 l 347 901 l 347 579 l 555 579 q 732 548 667 579 q 826 454 797 517 q 854 250 854 391 l 854 0 l 753 0 l 753 256 q 736 402 753 362 q 677 463 719 443 q 558 482 635 482 l 347 482 l 347 0 z "},"Ќ":{"ha":821,"x_min":121,"x_max":793,"o":"m 121 998 l 223 998 l 223 623 l 621 998 l 756 998 l 277 550 l 793 0 l 661 0 l 223 465 l 223 0 l 121 0 l 121 998 m 524 1285 l 669 1285 l 469 1076 l 376 1076 l 524 1285 z "},"Ў":{"ha":897,"x_min":45,"x_max":845,"o":"m 45 995 l 158 995 l 460 317 l 736 998 l 845 998 l 467 101 q 279 -25 414 -25 q 176 -3 224 -25 q 54 101 128 19 l 127 161 q 227 77 202 87 q 278 66 252 66 q 346 87 317 66 q 410 193 375 109 l 45 995 m 208 1236 l 298 1236 q 359 1183 321 1201 q 452 1166 398 1166 q 539 1181 506 1166 q 602 1236 572 1197 l 689 1236 q 613 1134 674 1175 q 451 1093 551 1093 q 288 1134 351 1093 q 208 1236 225 1174 z "},"Џ":{"ha":901,"x_min":120,"x_max":781,"o":"m 406 0 l 120 0 l 120 998 l 220 998 l 220 94 l 681 94 l 681 998 l 781 998 l 781 0 l 498 0 l 498 -149 l 406 -149 l 406 0 z "},"А":{"ha":1027,"x_min":33,"x_max":994,"o":"m 529 998 l 994 0 l 887 0 l 730 328 l 300 328 l 144 0 l 33 0 l 505 998 l 529 998 m 517 786 l 345 425 l 686 425 l 517 786 z "},"Б":{"ha":795,"x_min":121,"x_max":718,"o":"m 121 0 l 121 998 l 621 998 l 621 899 l 219 899 l 219 581 l 266 581 q 537 548 452 581 q 670 444 621 515 q 718 286 718 373 q 633 86 718 172 q 395 0 547 0 l 121 0 m 219 480 l 219 98 l 342 98 q 502 119 451 98 q 583 185 553 140 q 613 284 613 229 q 570 401 613 353 q 464 465 528 450 q 275 480 400 480 l 219 480 z "},"В":{"ha":798,"x_min":124,"x_max":722,"o":"m 124 998 l 321 998 q 503 969 439 998 q 604 883 567 941 q 641 753 641 825 q 608 632 641 687 q 513 544 576 578 q 633 482 591 517 q 698 396 675 446 q 722 286 722 345 q 634 83 722 166 q 398 0 546 0 l 124 0 l 124 998 m 222 900 l 222 581 l 279 581 q 431 600 382 581 q 509 661 480 619 q 537 753 537 703 q 489 861 537 822 q 337 900 441 900 l 222 900 m 222 480 l 222 98 l 345 98 q 505 119 454 98 q 587 186 556 140 q 618 284 618 231 q 574 400 618 351 q 455 468 531 450 q 278 480 404 480 l 222 480 z "},"Г":{"ha":642,"x_min":120,"x_max":620,"o":"m 219 0 l 120 0 l 120 998 l 620 998 l 620 899 l 219 899 l 219 0 z "},"Д":{"ha":1039,"x_min":20,"x_max":1019,"o":"m 119 -149 l 20 -149 l 20 93 l 102 93 l 493 998 l 528 998 l 941 93 l 1019 93 l 1019 -149 l 920 -149 l 920 0 l 119 0 l 119 -149 m 214 93 l 823 93 l 511 791 l 214 93 z "},"Е":{"ha":745,"x_min":122,"x_max":694,"o":"m 122 998 l 694 998 l 694 899 l 222 899 l 222 587 l 690 587 l 690 490 l 222 490 l 222 98 l 690 98 l 690 0 l 122 0 l 122 998 z "},"Ж":{"ha":1299,"x_min":27,"x_max":1271,"o":"m 699 463 l 699 0 l 598 0 l 598 463 l 568 491 l 159 0 l 27 0 l 503 553 l 65 998 l 199 998 l 598 576 l 598 998 l 699 998 l 699 576 l 1099 998 l 1234 998 l 795 553 l 1271 0 l 1139 0 l 730 491 l 699 463 z "},"З":{"ha":807,"x_min":67,"x_max":732,"o":"m 142 901 q 401 1023 247 1023 q 604 952 524 1023 q 684 768 684 881 q 534 540 684 609 q 732 275 732 479 q 644 57 732 140 q 402 -26 555 -26 q 216 19 295 -26 q 67 174 137 63 l 144 220 q 274 89 214 118 q 399 60 334 60 q 561 115 494 60 q 627 277 627 170 q 605 375 627 333 q 541 442 582 416 q 462 475 499 468 q 339 481 425 481 l 322 481 l 322 569 l 355 569 q 577 749 577 569 q 527 881 577 832 q 399 930 476 930 q 210 840 298 930 l 142 901 z "},"И":{"ha":1027,"x_min":122,"x_max":905,"o":"m 905 0 l 802 0 l 802 764 l 144 0 l 122 0 l 122 998 l 222 998 l 222 220 l 883 998 l 905 998 l 905 0 z "},"Й":{"ha":1027,"x_min":122,"x_max":905,"o":"m 905 0 l 802 0 l 802 764 l 144 0 l 122 0 l 122 998 l 222 998 l 222 220 l 883 998 l 905 998 l 905 0 m 273 1236 l 363 1236 q 425 1183 386 1201 q 517 1166 463 1166 q 604 1181 571 1166 q 667 1236 637 1197 l 754 1236 q 678 1134 739 1175 q 516 1093 616 1093 q 353 1134 416 1093 q 273 1236 290 1174 z "},"К":{"ha":821,"x_min":121,"x_max":793,"o":"m 121 998 l 223 998 l 223 623 l 621 998 l 756 998 l 277 550 l 793 0 l 661 0 l 223 465 l 223 0 l 121 0 l 121 998 z "},"Л":{"ha":975,"x_min":45,"x_max":929,"o":"m 929 0 l 821 0 l 490 771 l 154 0 l 45 0 l 479 998 l 501 998 l 929 0 z "},"М":{"ha":1276,"x_min":76,"x_max":1200,"o":"m 76 0 l 218 998 l 234 998 l 640 179 l 1041 998 l 1057 998 l 1200 0 l 1102 0 l 1004 713 l 652 0 l 627 0 l 269 719 l 172 0 l 76 0 z "},"Н":{"ha":949,"x_min":120,"x_max":828,"o":"m 120 998 l 220 998 l 220 579 l 728 579 l 728 998 l 828 998 l 828 0 l 728 0 l 728 481 l 220 481 l 220 0 l 120 0 l 120 998 z "},"О":{"ha":1207,"x_min":78,"x_max":1128,"o":"m 597 1023 q 976 871 823 1023 q 1128 499 1128 720 q 976 127 1128 280 q 605 -25 824 -25 q 231 127 383 -25 q 78 494 78 279 q 148 761 78 638 q 337 953 217 884 q 597 1023 457 1023 m 602 925 q 392 867 491 925 q 237 712 293 810 q 182 494 182 614 q 305 194 182 317 q 602 72 428 72 q 816 128 718 72 q 970 282 915 184 q 1025 499 1025 380 q 970 714 1025 618 q 814 867 915 810 q 602 925 714 925 z "},"П":{"ha":949,"x_min":120,"x_max":828,"o":"m 120 998 l 828 998 l 828 0 l 728 0 l 728 903 l 220 903 l 220 0 l 120 0 l 120 998 z "},"Р":{"ha":822,"x_min":121,"x_max":744,"o":"m 121 998 l 319 998 q 550 983 490 998 q 690 896 635 962 q 744 732 744 831 q 691 567 744 632 q 545 480 638 503 q 292 464 477 464 l 220 464 l 220 0 l 121 0 l 121 998 m 220 901 l 220 562 l 389 559 q 539 578 492 559 q 614 638 587 597 q 641 732 641 680 q 614 824 641 782 q 542 883 587 865 q 397 901 498 901 l 220 901 z "},"С":{"ha":1129,"x_min":75,"x_max":1050,"o":"m 1050 812 l 972 752 q 815 881 907 837 q 615 924 724 924 q 394 867 496 924 q 236 713 292 810 q 180 496 180 616 q 306 191 180 313 q 621 69 431 69 q 972 233 831 69 l 1050 174 q 864 27 976 79 q 615 -25 753 -25 q 202 149 353 -25 q 75 505 75 296 q 229 873 75 724 q 614 1023 382 1023 q 866 967 753 1023 q 1050 812 979 912 z "},"Т":{"ha":591,"x_min":22,"x_max":570,"o":"m 22 901 l 22 998 l 570 998 l 570 901 l 347 901 l 347 0 l 245 0 l 245 901 l 22 901 z "},"У":{"ha":897,"x_min":45,"x_max":845,"o":"m 45 995 l 158 995 l 460 317 l 736 998 l 845 998 l 467 101 q 279 -25 414 -25 q 176 -3 224 -25 q 54 101 128 19 l 127 161 q 227 77 202 87 q 278 66 252 66 q 346 87 317 66 q 410 193 375 109 l 45 995 z "},"Ф":{"ha":1210,"x_min":78,"x_max":1131,"o":"m 555 998 l 654 998 l 654 870 l 731 870 q 1044 782 956 870 q 1131 572 1131 694 q 1054 373 1131 460 q 762 286 977 286 l 654 286 l 654 0 l 555 0 l 555 286 l 448 286 q 259 308 334 286 q 131 402 184 330 q 78 572 78 474 q 165 782 78 694 q 479 870 252 870 l 555 870 l 555 998 m 654 774 l 654 382 l 760 382 l 813 381 q 973 436 918 381 q 1028 573 1028 490 q 963 719 1028 665 q 766 774 898 774 l 654 774 m 555 774 l 443 774 q 251 722 320 774 q 181 574 181 670 q 236 436 181 491 q 400 381 291 381 l 450 382 l 555 382 l 555 774 z "},"Х":{"ha":846,"x_min":47,"x_max":800,"o":"m 68 998 l 185 998 l 424 608 l 665 998 l 780 998 l 483 514 l 800 0 l 683 0 l 424 418 l 163 0 l 47 0 l 365 514 l 68 998 z "},"Ц":{"ha":983,"x_min":121,"x_max":953,"o":"m 860 0 l 121 0 l 121 998 l 221 998 l 221 94 l 682 94 l 682 998 l 782 998 l 782 94 l 953 94 l 953 -149 l 860 -149 l 860 0 z "},"Ч":{"ha":749,"x_min":22,"x_max":629,"o":"m 529 567 l 529 998 l 629 998 l 629 0 l 529 0 l 529 470 l 457 470 q 239 482 308 470 q 116 535 170 494 q 42 636 62 576 q 22 800 22 695 l 22 998 l 119 998 l 119 793 q 170 617 119 668 q 338 567 220 567 l 409 568 l 439 567 l 529 567 z "},"Ш":{"ha":1400,"x_min":120,"x_max":1280,"o":"m 220 94 l 646 94 l 646 998 l 747 998 l 747 94 l 1179 94 l 1179 998 l 1280 998 l 1280 0 l 120 0 l 120 998 l 220 998 l 220 94 z "},"Щ":{"ha":1480,"x_min":120,"x_max":1451,"o":"m 1280 94 l 1451 94 l 1451 -149 l 1357 -149 l 1357 0 l 120 0 l 120 998 l 220 998 l 220 94 l 646 94 l 646 998 l 747 998 l 747 94 l 1179 94 l 1179 998 l 1280 998 l 1280 94 m 1400 271 z "},"Ъ":{"ha":950,"x_min":22,"x_max":872,"o":"m 229 904 l 22 904 l 22 998 l 329 998 l 329 570 l 400 570 q 682 551 597 570 q 820 464 768 532 q 872 288 872 395 q 821 112 872 181 q 691 21 770 43 q 428 0 612 0 l 229 0 l 229 904 m 329 96 l 435 96 q 655 112 604 96 q 736 172 706 128 q 766 283 766 215 q 728 404 766 357 q 632 461 690 451 q 413 472 573 472 l 329 472 l 329 96 z "},"Ы":{"ha":1101,"x_min":121,"x_max":981,"o":"m 121 998 l 220 998 l 220 570 l 292 570 q 574 551 488 570 q 711 464 659 532 q 764 288 764 395 q 713 112 764 182 q 583 21 662 43 q 319 0 505 0 l 121 0 l 121 998 m 220 96 l 327 96 q 546 112 495 96 q 628 172 597 128 q 658 283 658 215 q 620 404 658 357 q 523 461 582 451 q 304 472 465 472 l 220 472 l 220 96 m 881 998 l 981 998 l 981 0 l 881 0 l 881 998 z "},"Ь":{"ha":842,"x_min":121,"x_max":764,"o":"m 121 998 l 220 998 l 220 570 l 292 570 q 574 551 488 570 q 711 464 659 532 q 764 288 764 395 q 713 112 764 182 q 583 21 662 43 q 319 0 505 0 l 121 0 l 121 998 m 220 96 l 327 96 q 546 112 495 96 q 628 172 597 128 q 658 283 658 215 q 620 404 658 357 q 523 461 582 451 q 304 472 465 472 l 220 472 l 220 96 z "},"Э":{"ha":1129,"x_min":75,"x_max":1050,"o":"m 941 454 l 470 454 l 470 552 l 937 552 q 796 824 924 723 q 511 924 667 924 q 155 752 286 924 l 75 812 q 258 966 143 910 q 513 1023 373 1023 q 896 873 742 1023 q 1050 505 1050 724 q 904 129 1050 283 q 511 -25 758 -25 q 75 174 232 -25 l 155 233 q 505 69 294 69 q 790 163 665 69 q 941 454 914 257 z "},"Ю":{"ha":1521,"x_min":120,"x_max":1443,"o":"m 220 552 l 395 552 q 585 907 433 792 q 911 1023 737 1023 q 1290 871 1137 1023 q 1443 499 1443 720 q 1291 128 1443 281 q 919 -25 1139 -25 q 567 105 717 -25 q 395 459 417 235 l 220 459 l 220 0 l 120 0 l 120 998 l 220 998 l 220 552 m 1340 499 q 1212 805 1340 684 q 916 926 1084 926 q 623 803 749 926 q 496 494 496 681 q 622 192 496 313 q 916 72 747 72 q 1216 193 1092 72 q 1340 499 1340 315 z "},"Я":{"ha":811,"x_min":49,"x_max":687,"o":"m 687 998 l 488 998 q 263 984 322 998 q 119 897 174 964 q 63 732 63 830 q 101 589 63 651 q 211 496 140 528 q 408 464 282 465 l 49 0 l 172 0 l 530 464 l 587 464 l 587 0 l 687 0 l 687 998 m 587 900 l 587 561 l 416 559 q 268 578 316 559 q 194 639 220 597 q 167 732 167 681 q 194 824 167 783 q 265 882 221 865 q 412 900 309 900 l 587 900 z "},"а":{"ha":949,"x_min":73,"x_max":841,"o":"m 841 738 l 841 0 l 747 0 l 747 127 q 613 18 688 54 q 451 -19 539 -19 q 183 95 294 -19 q 73 371 73 208 q 184 644 73 530 q 454 757 296 757 q 618 718 545 757 q 747 602 692 680 l 747 738 l 841 738 m 461 665 q 315 626 382 665 q 208 517 248 587 q 168 368 168 446 q 208 218 168 290 q 316 107 248 147 q 460 68 383 68 q 608 107 538 68 q 716 214 678 146 q 753 365 753 281 q 669 579 753 493 q 461 665 585 665 z "},"б":{"ha":929,"x_min":71,"x_max":859,"o":"m 812 1038 l 812 947 q 579 931 744 936 q 395 915 460 927 q 282 870 330 903 q 201 768 234 836 q 160 616 168 700 l 151 512 q 278 698 189 639 q 474 757 366 757 q 748 642 638 757 q 859 367 859 526 q 749 95 859 209 q 474 -19 639 -19 q 188 107 305 -19 q 71 505 71 233 q 114 791 71 694 q 212 931 157 888 q 356 998 268 974 q 686 1029 444 1023 q 812 1038 761 1031 m 762 365 q 677 576 762 488 q 474 664 591 664 q 272 576 357 664 q 186 365 186 488 q 269 157 186 243 q 474 71 351 71 q 680 157 597 71 q 762 365 762 243 z "},"в":{"ha":650,"x_min":106,"x_max":589,"o":"m 320 0 l 106 0 l 106 738 l 317 738 q 491 682 437 738 q 544 552 544 627 q 445 399 544 439 q 589 203 589 349 q 320 0 589 0 m 201 656 l 201 425 l 263 425 q 373 432 347 425 q 421 466 399 439 q 444 536 444 492 q 420 614 444 583 q 371 650 397 645 q 263 656 345 656 l 201 656 m 201 338 l 201 80 l 303 80 q 406 89 375 80 q 459 129 437 98 q 481 206 481 159 q 443 302 481 267 q 342 338 405 338 l 201 338 z "},"г":{"ha":501,"x_min":106,"x_max":479,"o":"m 200 654 l 200 0 l 106 0 l 106 738 l 479 738 l 479 654 l 200 654 z "},"д":{"ha":840,"x_min":22,"x_max":818,"o":"m 112 81 l 397 738 l 446 738 l 729 81 l 818 81 l 818 -94 l 726 -94 l 726 0 l 116 0 l 116 -98 l 22 -98 l 22 81 l 112 81 m 420 591 l 204 81 l 627 81 l 420 591 z "},"е":{"ha":903,"x_min":71,"x_max":831,"o":"m 727 245 l 807 203 q 716 78 768 125 q 600 6 665 31 q 454 -19 536 -19 q 172 99 274 -19 q 71 367 71 218 q 157 617 71 507 q 449 757 266 757 q 750 614 637 757 q 831 361 830 513 l 168 361 q 250 150 171 233 q 446 68 330 68 q 556 87 503 68 q 646 140 609 107 q 727 245 684 172 m 727 444 q 672 565 708 519 q 576 638 635 610 q 450 666 516 666 q 264 596 342 666 q 178 444 207 545 l 727 444 z "},"ж":{"ha":1068,"x_min":-8,"x_max":1076,"o":"m 484 738 l 581 738 l 581 412 l 933 738 l 1049 738 l 701 409 l 1076 0 l 954 0 l 635 357 l 581 311 l 581 0 l 484 0 l 484 311 l 431 357 l 113 0 l -8 0 l 363 409 l 20 738 l 136 738 l 484 412 l 484 738 z "},"з":{"ha":587,"x_min":37,"x_max":528,"o":"m 229 427 l 279 427 q 366 458 326 427 q 406 548 406 490 q 374 633 406 597 q 276 669 342 669 q 122 609 199 669 l 68 675 q 280 758 168 758 q 435 703 372 758 q 497 562 497 648 q 395 405 497 446 q 528 210 528 349 q 466 51 528 122 q 281 -20 404 -20 q 37 79 130 -20 l 97 146 q 273 69 165 69 q 386 108 345 69 q 427 210 427 146 q 385 309 427 271 q 288 346 344 346 l 229 346 l 229 427 z "},"и":{"ha":856,"x_min":106,"x_max":750,"o":"m 201 738 l 201 192 l 743 738 l 750 738 l 750 0 l 655 0 l 655 541 l 117 0 l 106 0 l 106 738 l 201 738 z "},"й":{"ha":856,"x_min":106,"x_max":750,"o":"m 201 738 l 201 192 l 743 738 l 750 738 l 750 0 l 655 0 l 655 541 l 117 0 l 106 0 l 106 738 l 201 738 m 188 1034 l 277 1034 q 339 981 300 999 q 431 964 378 964 q 519 979 486 964 q 582 1034 552 995 l 669 1034 q 592 932 654 973 q 431 891 531 891 q 268 931 331 891 q 188 1034 205 972 z "},"к":{"ha":697,"x_min":106,"x_max":705,"o":"m 106 738 l 201 738 l 201 427 l 543 738 l 675 738 l 301 400 l 705 0 l 570 0 l 231 341 l 201 315 l 201 0 l 106 0 l 106 738 z "},"л":{"ha":770,"x_min":36,"x_max":730,"o":"m 730 0 l 629 0 l 382 537 l 138 0 l 36 0 l 374 738 l 391 738 l 730 0 z "},"м":{"ha":1221,"x_min":37,"x_max":1184,"o":"m 907 738 l 934 738 l 1184 0 l 1085 0 l 903 543 l 619 0 l 602 0 l 317 543 l 136 0 l 37 0 l 288 738 l 314 738 l 611 161 l 907 738 z "},"н":{"ha":831,"x_min":106,"x_max":725,"o":"m 630 355 l 201 355 l 201 0 l 106 0 l 106 738 l 201 738 l 201 445 l 630 445 l 630 738 l 725 738 l 725 0 l 630 0 l 630 355 z "},"о":{"ha":909,"x_min":71,"x_max":839,"o":"m 455 757 q 737 633 625 757 q 839 367 839 521 q 731 97 839 212 q 455 -19 624 -19 q 178 97 286 -19 q 71 367 71 212 q 172 633 71 520 q 455 757 284 757 m 455 664 q 252 576 337 664 q 168 365 168 489 q 206 216 168 285 q 311 109 245 146 q 455 71 376 71 q 600 109 534 71 q 704 216 665 146 q 743 365 743 285 q 657 576 743 489 q 455 664 572 664 z "},"п":{"ha":831,"x_min":106,"x_max":725,"o":"m 106 738 l 725 738 l 725 0 l 630 0 l 630 648 l 201 648 l 201 0 l 106 0 l 106 738 z "},"р":{"ha":947,"x_min":107,"x_max":876,"o":"m 107 738 l 201 738 l 201 602 q 331 718 258 680 q 494 757 404 757 q 764 644 652 757 q 876 371 876 530 q 765 95 876 208 q 497 -19 654 -19 q 335 18 409 -19 q 201 127 261 54 l 201 -270 l 107 -270 l 107 738 m 487 665 q 279 579 363 665 q 195 365 195 493 q 232 214 195 281 q 340 107 270 146 q 488 68 410 68 q 632 107 565 68 q 740 218 700 147 q 780 368 780 290 q 740 517 780 446 q 633 626 701 587 q 487 665 566 665 z "},"с":{"ha":899,"x_min":71,"x_max":822,"o":"m 822 585 l 747 538 q 480 667 649 667 q 256 581 345 667 q 167 370 167 494 q 208 218 167 289 q 320 107 249 146 q 481 68 392 68 q 747 197 644 68 l 822 148 q 680 25 769 68 q 477 -19 591 -19 q 186 92 302 -19 q 71 363 71 203 q 125 562 71 470 q 273 705 179 654 q 484 757 368 757 q 626 734 557 757 q 741 676 694 712 q 822 585 789 640 z "},"т":{"ha":532,"x_min":23,"x_max":509,"o":"m 23 738 l 509 738 l 509 656 l 313 656 l 313 0 l 218 0 l 218 656 l 23 656 l 23 738 z "},"у":{"ha":745,"x_min":26,"x_max":728,"o":"m 26 738 l 127 738 l 380 170 l 627 738 l 728 738 l 288 -270 l 187 -270 l 330 56 l 26 738 z "},"ф":{"ha":1503,"x_min":71,"x_max":1433,"o":"m 705 1023 l 799 1023 l 799 627 q 1055 753 888 753 q 1324 644 1215 753 q 1433 363 1433 534 q 1323 86 1433 195 q 1057 -22 1213 -22 q 799 111 886 -22 l 799 -270 l 705 -270 l 705 111 q 444 -23 618 -23 q 181 85 291 -23 q 71 363 71 194 q 179 644 71 534 q 449 753 288 753 q 705 627 619 753 l 705 1023 m 796 351 q 871 144 796 219 q 1044 68 947 68 q 1257 157 1177 68 q 1337 369 1337 245 q 1253 582 1337 497 q 1050 667 1168 667 q 870 591 944 667 q 796 351 796 515 m 166 368 q 246 157 166 245 q 459 68 326 68 q 558 92 505 68 q 643 151 611 115 q 692 233 675 186 q 708 370 708 280 q 633 590 708 514 q 453 667 559 667 q 250 582 334 667 q 166 368 166 497 z "},"х":{"ha":667,"x_min":-5,"x_max":672,"o":"m 22 738 l 136 738 l 331 465 l 526 738 l 640 738 l 388 387 l 672 0 l 557 0 l 331 310 l 109 0 l -5 0 l 275 387 l 22 738 z "},"ц":{"ha":907,"x_min":106,"x_max":885,"o":"m 795 0 l 106 0 l 106 738 l 201 738 l 201 90 l 630 90 l 630 738 l 726 738 l 726 90 l 885 90 l 885 -117 l 795 -117 l 795 0 z "},"ч":{"ha":636,"x_min":47,"x_max":530,"o":"m 436 333 l 269 333 q 101 391 156 333 q 47 553 47 450 l 47 738 l 140 738 l 140 604 q 176 445 140 475 q 297 414 213 414 l 436 414 l 436 738 l 530 738 l 530 0 l 436 0 l 436 333 z "},"ш":{"ha":1314,"x_min":106,"x_max":1208,"o":"m 1208 0 l 106 0 l 106 738 l 201 738 l 201 90 l 608 90 l 608 738 l 705 738 l 705 90 l 1112 90 l 1112 738 l 1208 738 l 1208 0 z "},"щ":{"ha":1390,"x_min":106,"x_max":1369,"o":"m 1278 0 l 106 0 l 106 738 l 201 738 l 201 90 l 608 90 l 608 738 l 705 738 l 705 90 l 1112 90 l 1112 738 l 1208 738 l 1208 90 l 1369 90 l 1369 -117 l 1278 -117 l 1278 0 m 1314 203 z "},"ъ":{"ha":721,"x_min":37,"x_max":675,"o":"m 267 446 l 357 446 q 526 429 465 446 q 631 354 587 412 q 675 220 675 296 q 611 65 675 130 q 418 0 547 0 l 173 0 l 173 651 l 37 651 l 37 738 l 267 738 l 267 446 m 267 366 l 267 80 l 376 80 q 571 221 571 80 q 545 306 571 269 q 476 354 519 342 q 347 366 434 366 l 267 366 z "},"ы":{"ha":932,"x_min":106,"x_max":835,"o":"m 200 446 l 290 446 q 459 429 398 446 q 564 354 520 412 q 608 220 608 296 q 545 65 608 130 q 351 0 481 0 l 106 0 l 106 738 l 200 738 l 200 446 m 203 359 l 203 80 l 313 80 q 505 216 505 80 q 485 292 505 254 q 424 344 464 329 q 284 359 385 359 l 203 359 m 739 738 l 835 738 l 835 0 l 739 0 l 739 738 z "},"ь":{"ha":654,"x_min":106,"x_max":608,"o":"m 200 446 l 290 446 q 459 429 398 446 q 564 354 520 412 q 608 220 608 296 q 545 65 608 130 q 351 0 481 0 l 106 0 l 106 738 l 200 738 l 200 446 m 203 359 l 203 80 l 313 80 q 505 216 505 80 q 485 292 505 254 q 424 344 464 329 q 284 359 385 359 l 203 359 z "},"э":{"ha":892,"x_min":71,"x_max":821,"o":"m 724 341 q 623 142 711 217 q 412 68 534 68 q 146 197 249 68 l 71 148 q 218 22 123 64 q 416 -19 312 -19 q 708 94 594 -19 q 821 363 821 207 q 704 642 821 528 q 408 757 587 757 q 211 712 304 757 q 71 585 117 667 l 146 538 q 412 667 243 667 q 615 599 530 667 q 724 422 701 530 l 396 422 l 396 341 l 724 341 z "},"ю":{"ha":1161,"x_min":106,"x_max":1090,"o":"m 202 0 l 106 0 l 106 738 l 202 738 l 202 428 l 326 428 q 457 666 351 576 q 706 757 564 757 q 980 642 870 757 q 1090 367 1090 526 q 981 95 1090 209 q 707 -19 871 -19 q 451 77 560 -19 q 326 334 341 173 l 202 334 l 202 0 m 994 365 q 909 576 994 488 q 707 664 823 664 q 504 576 589 664 q 418 365 418 488 q 500 157 418 243 q 707 71 582 71 q 912 157 829 71 q 994 365 994 243 z "},"я":{"ha":618,"x_min":37,"x_max":512,"o":"m 417 330 l 349 330 l 139 0 l 37 0 l 258 340 q 124 402 176 350 q 73 533 73 455 q 132 684 73 631 q 288 738 191 738 l 512 738 l 512 0 l 417 0 l 417 330 m 417 656 l 355 656 q 233 644 264 656 q 183 605 201 633 q 165 529 165 576 q 189 454 165 484 q 241 418 212 425 q 355 411 271 411 l 417 411 l 417 656 z "},"ё":{"ha":901,"x_min":71,"x_max":831,"o":"m 727 245 l 807 203 q 716 78 768 125 q 600 6 665 31 q 454 -19 536 -19 q 172 99 274 -19 q 71 367 71 218 q 157 617 71 507 q 449 757 266 757 q 750 614 637 757 q 831 361 830 513 l 168 361 q 250 150 171 233 q 446 68 330 68 q 556 87 503 68 q 646 140 609 107 q 727 245 684 172 m 727 444 q 672 565 708 519 q 576 638 635 610 q 450 666 516 666 q 264 596 342 666 q 178 444 207 545 l 727 444 m 313 1029 q 369 1006 346 1029 q 392 951 392 983 q 369 895 392 918 q 313 872 346 872 q 258 895 281 872 q 235 951 235 918 q 258 1006 235 983 q 313 1029 281 1029 m 590 1029 q 646 1006 623 1029 q 669 951 669 983 q 646 895 669 918 q 590 872 623 872 q 534 895 557 872 q 511 951 511 918 q 534 1006 511 983 q 590 1029 557 1029 z "},"ђ":{"ha":871,"x_min":24,"x_max":774,"o":"m 223 1023 l 223 930 l 549 930 l 549 849 l 223 849 l 223 606 q 500 757 338 757 q 663 704 596 757 q 751 579 730 650 q 772 380 772 507 l 772 0 l 774 -111 q 648 -289 774 -289 q 540 -266 598 -289 l 540 -180 q 608 -200 576 -200 q 659 -178 642 -200 q 676 -129 675 -157 q 677 0 677 -101 l 677 352 q 664 538 677 480 q 603 632 650 595 q 481 669 557 669 q 365 640 416 669 q 279 559 313 610 q 234 456 245 509 q 223 271 223 402 l 223 0 l 129 0 l 129 849 l 24 849 l 24 930 l 129 930 l 129 1023 l 223 1023 z "},"ѓ":{"ha":501,"x_min":106,"x_max":500,"o":"m 200 654 l 200 0 l 106 0 l 106 738 l 479 738 l 479 654 l 200 654 m 355 1084 l 500 1084 l 300 875 l 207 875 l 355 1084 z "},"є":{"ha":892,"x_min":71,"x_max":821,"o":"m 168 341 q 269 142 181 217 q 480 68 357 68 q 746 197 643 68 l 821 148 q 674 22 768 64 q 476 -19 580 -19 q 184 94 298 -19 q 71 363 71 207 q 188 642 71 528 q 484 757 304 757 q 681 712 587 757 q 821 585 775 667 l 746 538 q 479 667 648 667 q 276 599 361 667 q 168 422 191 530 l 496 422 l 496 341 l 168 341 z "},"ѕ":{"ha":539,"x_min":37,"x_max":477,"o":"m 477 657 l 416 594 q 267 668 340 668 q 188 637 221 668 q 155 566 155 607 q 182 498 155 530 q 296 420 210 465 q 440 314 402 365 q 477 198 477 262 q 414 44 477 107 q 254 -19 350 -19 q 133 9 191 -19 q 37 85 75 37 l 96 153 q 250 71 169 71 q 347 108 307 71 q 387 194 387 144 q 361 267 387 235 q 241 345 334 298 q 106 447 142 397 q 70 562 70 497 q 127 701 70 646 q 272 757 184 757 q 477 657 374 757 z "},"і":{"ha":278,"x_min":61,"x_max":218,"o":"m 139 1042 q 195 1019 172 1042 q 218 963 218 996 q 195 908 218 931 q 139 885 172 885 q 84 908 107 885 q 61 963 61 931 q 84 1019 61 996 q 139 1042 107 1042 m 92 738 l 187 738 l 187 0 l 92 0 l 92 738 z "},"ї":{"ha":278,"x_min":-78,"x_max":356,"o":"m 92 738 l 187 738 l 187 0 l 92 0 l 92 738 m 1 1029 q 56 1006 33 1029 q 79 951 79 983 q 56 895 79 918 q 1 872 33 872 q -55 895 -32 872 q -78 951 -78 918 q -55 1006 -78 983 q 1 1029 -32 1029 m 277 1029 q 333 1006 310 1029 q 356 951 356 983 q 333 895 356 918 q 277 872 310 872 q 222 895 245 872 q 199 951 199 918 q 222 1006 199 983 q 277 1029 245 1029 z "},"ј":{"ha":282,"x_min":-43,"x_max":219,"o":"m 141 1042 q 196 1019 174 1042 q 219 963 219 996 q 196 908 219 931 q 141 885 174 885 q 86 908 109 885 q 63 963 63 931 q 86 1019 63 996 q 141 1042 109 1042 m 94 738 l 191 738 l 191 -111 q 157 -247 191 -204 q 65 -289 123 -289 q -43 -266 17 -289 l -43 -180 q 25 -200 -5 -200 q 83 -168 64 -200 q 94 -83 94 -148 l 94 738 z "},"љ":{"ha":1100,"x_min":37,"x_max":1055,"o":"m 391 738 l 527 446 l 737 446 q 907 428 846 446 q 1012 353 968 411 q 1055 219 1055 294 q 1008 83 1055 148 q 844 0 960 18 l 630 0 l 380 562 l 132 0 l 37 0 l 374 738 l 391 738 m 565 359 l 690 80 l 760 80 q 952 216 952 80 q 927 299 952 264 q 861 347 901 335 q 731 359 821 359 l 565 359 m 727 0 z "},"њ":{"ha":1175,"x_min":106,"x_max":1129,"o":"m 725 445 l 812 445 q 980 428 919 445 q 1085 352 1042 410 q 1129 220 1129 294 q 1065 65 1129 130 q 873 0 1002 0 l 630 0 l 630 355 l 202 355 l 202 0 l 106 0 l 106 738 l 202 738 l 202 445 l 630 445 l 630 738 l 725 738 l 725 445 m 725 355 l 725 80 l 833 80 q 1026 214 1026 80 q 1005 289 1026 252 q 945 340 985 326 q 805 355 905 355 l 725 355 z "},"ћ":{"ha":871,"x_min":24,"x_max":773,"o":"m 130 849 l 24 849 l 24 930 l 130 930 l 130 1023 l 224 1023 l 224 930 l 549 930 l 549 849 l 224 849 l 224 606 q 500 757 339 757 q 664 704 597 757 q 752 579 731 650 q 773 380 773 507 l 773 0 l 678 0 l 678 352 q 664 538 678 480 q 604 632 650 595 q 482 669 557 669 q 365 640 416 669 q 280 559 314 610 q 235 456 245 509 q 224 271 224 402 l 224 0 l 130 0 l 130 849 z "},"ќ":{"ha":697,"x_min":106,"x_max":705,"o":"m 106 738 l 201 738 l 201 427 l 543 738 l 675 738 l 301 400 l 705 0 l 570 0 l 231 341 l 201 315 l 201 0 l 106 0 l 106 738 m 441 1084 l 587 1084 l 387 875 l 294 875 l 441 1084 z "},"ў":{"ha":745,"x_min":26,"x_max":728,"o":"m 26 738 l 127 738 l 380 170 l 627 738 l 728 738 l 288 -270 l 187 -270 l 330 56 l 26 738 m 132 1034 l 221 1034 q 283 981 244 999 q 375 964 321 964 q 463 979 429 964 q 526 1034 496 995 l 612 1034 q 536 932 597 973 q 374 891 475 891 q 212 931 275 891 q 132 1034 149 972 z "},"џ":{"ha":832,"x_min":106,"x_max":726,"o":"m 367 0 l 106 0 l 106 738 l 202 738 l 202 90 l 631 90 l 631 738 l 726 738 l 726 0 l 456 0 l 456 -117 l 367 -117 l 367 0 z "},"Ґ":{"ha":562,"x_min":120,"x_max":541,"o":"m 219 0 l 120 0 l 120 998 l 442 998 l 442 1143 l 541 1143 l 541 899 l 219 899 l 219 0 z "},"ґ":{"ha":494,"x_min":106,"x_max":458,"o":"m 200 654 l 200 0 l 106 0 l 106 738 l 365 738 l 365 829 l 458 829 l 458 654 l 200 654 z "},"Ẁ":{"ha":1333,"x_min":65,"x_max":1268,"o":"m 65 998 l 168 998 l 370 279 l 656 998 l 677 998 l 960 279 l 1166 998 l 1268 998 l 982 0 l 963 0 l 667 755 l 366 0 l 347 0 l 65 998 m 625 1285 l 773 1076 l 680 1076 l 479 1285 l 625 1285 z "},"ẁ":{"ha":1154,"x_min":6,"x_max":1148,"o":"m 6 738 l 104 738 l 330 202 l 566 738 l 583 738 l 819 202 l 1049 738 l 1148 738 l 828 0 l 810 0 l 575 528 l 338 0 l 321 0 l 6 738 m 536 1084 l 684 875 l 590 875 l 390 1084 l 536 1084 z "},"Ẃ":{"ha":1333,"x_min":65,"x_max":1268,"o":"m 65 998 l 168 998 l 370 279 l 656 998 l 677 998 l 960 279 l 1166 998 l 1268 998 l 982 0 l 963 0 l 667 755 l 366 0 l 347 0 l 65 998 m 713 1285 l 859 1285 l 659 1076 l 565 1076 l 713 1285 z "},"ẃ":{"ha":1154,"x_min":6,"x_max":1148,"o":"m 6 738 l 104 738 l 330 202 l 566 738 l 583 738 l 819 202 l 1049 738 l 1148 738 l 828 0 l 810 0 l 575 528 l 338 0 l 321 0 l 6 738 m 623 1084 l 769 1084 l 569 875 l 475 875 l 623 1084 z "},"Ẅ":{"ha":1333,"x_min":65,"x_max":1268,"o":"m 65 998 l 168 998 l 370 279 l 656 998 l 677 998 l 960 279 l 1166 998 l 1268 998 l 982 0 l 963 0 l 667 755 l 366 0 l 347 0 l 65 998 m 529 1232 q 585 1208 562 1232 q 608 1153 608 1185 q 585 1097 608 1120 q 529 1074 562 1074 q 473 1097 496 1074 q 450 1153 450 1120 q 473 1208 450 1185 q 529 1232 496 1232 m 806 1232 q 861 1208 838 1232 q 884 1153 884 1185 q 861 1097 884 1120 q 806 1074 838 1074 q 750 1097 773 1074 q 727 1153 727 1120 q 750 1208 727 1185 q 806 1232 773 1232 z "}}}
